SplineFontDB: 3.2
FontName: VCROSDMono-Expanded
FullName: VCR OSD Mono Expanded
FamilyName: VCR OSD Mono
Weight: Book
Copyright: 
Version: 1.002 September 09 2020
ItalicAngle: 0
UnderlinePosition: -292
UnderlineWidth: 150
Ascent: 1638
Descent: 410
InvalidEm: 0
sfntRevision: 0x00010083
LayerCount: 2
Layer: 0 1 "Back" 1
Layer: 1 1 "Fore" 0
XUID: [1021 1023 925856070 27143]
StyleMap: 0x0040
FSType: 8
OS2Version: 3
OS2_WeightWidthSlopeOnly: 0
OS2_UseTypoMetrics: 0
CreationTime: 1397145733
ModificationTime: 1599662482
PfmFamily: 17
TTFWeight: 400
TTFWidth: 5
LineGap: 200
VLineGap: 0
Panose: 2 0 6 9 0 0 0 0 0 0
OS2TypoAscent: 1800
OS2TypoAOffset: 0
OS2TypoDescent: 0
OS2TypoDOffset: 0
OS2TypoLinegap: 200
OS2WinAscent: 1800
OS2WinAOffset: 0
OS2WinDescent: 200
OS2WinDOffset: 0
HheadAscent: 1800
HheadAOffset: 0
HheadDescent: 0
HheadDOffset: 0
OS2SubXSize: 1434
OS2SubYSize: 1331
OS2SubXOff: 0
OS2SubYOff: 307
OS2SupXSize: 1434
OS2SupYSize: 1331
OS2SupXOff: 0
OS2SupYOff: 922
OS2StrikeYSize: 102
OS2StrikeYPos: 530
OS2CapHeight: 1500
OS2XHeight: 1200
OS2FamilyClass: 2063
OS2Vendor: '    '
OS2CodePages: 00000001.00000000
OS2UnicodeRanges: 80000083.0000206a.00000000.00000000
Lookup: 1 0 0 "'frac' Diagonal Fractions in Latin lookup 0" { "'frac' Diagonal Fractions in Latin lookup 0 subtable"  } ['frac' ('latn' <'dflt' > ) ]
Lookup: 4 0 0 "'frac' Diagonal Fractions in Latin lookup 1" { "'frac' Diagonal Fractions in Latin lookup 1 subtable"  } ['frac' ('latn' <'dflt' > ) ]
MarkAttachClasses: 1
DEI: 91125
TtTable: prep
PUSHW_1
 0
CALL
SVTCA[y-axis]
PUSHW_3
 1
 1
 2
CALL
SVTCA[x-axis]
PUSHW_3
 2
 1
 2
CALL
SVTCA[x-axis]
PUSHW_8
 2
 57
 47
 36
 26
 16
 0
 8
CALL
SVTCA[y-axis]
PUSHW_8
 1
 57
 47
 36
 26
 16
 0
 8
CALL
SVTCA[y-axis]
PUSHW_3
 3
 3
 7
CALL
PUSHW_1
 0
DUP
RCVT
RDTG
ROUND[Black]
RTG
WCVTP
EndTTInstrs
TtTable: fpgm
PUSHW_1
 0
FDEF
MPPEM
PUSHW_1
 9
LT
IF
PUSHB_2
 1
 1
INSTCTRL
EIF
PUSHW_1
 511
SCANCTRL
PUSHW_1
 68
SCVTCI
PUSHW_2
 9
 3
SDS
SDB
ENDF
PUSHW_1
 1
FDEF
DUP
DUP
RCVT

StartChar: .notdef
Encoding: 65536 -1 0
Width: 1200
Flags: W
LayerCount: 2
Fore
SplineSet
151 100 m 1,0,-1
 1042 100 l 1,1,-1
 597 801 l 1,2,-1
 151 100 l 1,0,-1
1100 195 m 1,3,-1
 1100 1594 l 1,4,-1
 656 894 l 1,5,-1
 1100 195 l 1,3,-1
100 1583 m 1,6,-1
 100 206 l 1,7,-1
 537 894 l 1,8,-1
 100 1583 l 1,6,-1
0 1800 m 1,9,-1
 1200 1800 l 1,10,-1
 1200 0 l 1,11,-1
 0 0 l 1,12,-1
 0 1800 l 1,9,-1
1049 1700 m 1,13,-1
 146 1700 l 1,14,-1
 597 988 l 1,15,-1
 1049 1700 l 1,13,-1
EndSplineSet
Validated: 1
EndChar

StartChar: exclam
Encoding: 33 33 4
Width: 1200
Flags: W
LayerCount: 2
Fore
SplineSet
600 300 m 1,0,-1
 600 100 l 1,1,-1
 400 100 l 1,2,-1
 400 300 l 1,3,-1
 600 300 l 1,0,-1
600 500 m 1,4,-1
 400 500 l 1,5,-1
 400 1500 l 1,6,-1
 600 1500 l 1,7,-1
 600 500 l 1,4,-1
EndSplineSet
Validated: 1
EndChar

StartChar: quotedbl
Encoding: 34 34 5
Width: 1200
Flags: W
LayerCount: 2
Fore
SplineSet
900 1200 m 1,0,-1
 900 1100 l 1,1,-1
 800 1100 l 1,2,-1
 800 1200 l 1,3,-1
 700 1200 l 1,4,-1
 700 1500 l 1,5,-1
 1000 1500 l 1,6,-1
 1000 1200 l 1,7,-1
 900 1200 l 1,0,-1
500 1500 m 1,8,-1
 500 1200 l 1,9,-1
 400 1200 l 1,10,-1
 400 1100 l 1,11,-1
 300 1100 l 1,12,-1
 300 1200 l 1,13,-1
 200 1200 l 1,14,-1
 200 1500 l 1,15,-1
 500 1500 l 1,8,-1
EndSplineSet
Validated: 1
EndChar

StartChar: numbersign
Encoding: 35 35 6
Width: 1200
Flags: W
LayerCount: 2
Fore
SplineSet
300 900 m 1,0,-1
 100 900 l 1,1,-1
 100 1100 l 1,2,-1
 300 1100 l 1,3,-1
 300 1400 l 1,4,-1
 500 1400 l 1,5,-1
 500 1200 l 1,6,-1
 700 1200 l 1,7,-1
 700 1500 l 1,8,-1
 900 1500 l 1,9,-1
 900 1300 l 1,10,-1
 1100 1300 l 1,11,-1
 1100 1100 l 1,12,-1
 900 1100 l 1,13,-1
 900 800 l 1,14,-1
 1100 800 l 1,15,-1
 1100 600 l 1,16,-1
 900 600 l 1,17,-1
 900 300 l 1,18,-1
 700 300 l 1,19,-1
 700 500 l 1,20,-1
 500 500 l 1,21,-1
 500 200 l 1,22,-1
 300 200 l 1,23,-1
 300 400 l 1,24,-1
 100 400 l 1,25,-1
 100 600 l 1,26,-1
 300 600 l 1,27,-1
 300 900 l 1,0,-1
500 1000 m 1,28,-1
 500 700 l 1,29,-1
 700 700 l 1,30,-1
 700 1000 l 1,31,-1
 500 1000 l 1,28,-1
EndSplineSet
Validated: 1
EndChar

StartChar: dollar
Encoding: 36 36 7
Width: 1200
Flags: W
LayerCount: 2
Fore
SplineSet
700 1400 m 1,0,-1
 900 1400 l 1,1,-1
 900 1300 l 1,2,-1
 1000 1300 l 1,3,-1
 1000 1200 l 1,4,-1
 1100 1200 l 1,5,-1
 1100 1000 l 1,6,-1
 900 1000 l 1,7,-1
 900 1100 l 1,8,-1
 800 1100 l 1,9,-1
 800 1200 l 1,10,-1
 700 1200 l 1,11,-1
 700 900 l 1,12,-1
 900 900 l 1,13,-1
 900 800 l 1,14,-1
 1000 800 l 1,15,-1
 1000 700 l 1,16,-1
 1100 700 l 1,17,-1
 1100 400 l 1,18,-1
 1000 400 l 1,19,-1
 1000 300 l 1,20,-1
 900 300 l 1,21,-1
 900 200 l 1,22,-1
 700 200 l 1,23,-1
 700 100 l 1,24,-1
 500 100 l 1,25,-1
 500 200 l 1,26,-1
 300 200 l 1,27,-1
 300 300 l 1,28,-1
 200 300 l 1,29,-1
 200 400 l 1,30,-1
 100 400 l 1,31,-1
 100 600 l 1,32,-1
 300 600 l 1,33,-1
 300 500 l 1,34,-1
 400 500 l 1,35,-1
 400 400 l 1,36,-1
 500 400 l 1,37,-1
 500 700 l 1,38,-1
 300 700 l 1,39,-1
 300 800 l 1,40,-1
 200 800 l 1,41,-1
 200 900 l 1,42,-1
 100 900 l 1,43,-1
 100 1200 l 1,44,-1
 200 1200 l 1,45,-1
 200 1300 l 1,46,-1
 300 1300 l 1,47,-1
 300 1400 l 1,48,-1
 500 1400 l 1,49,-1
 500 1500 l 1,50,-1
 700 1500 l 1,51,-1
 700 1400 l 1,0,-1
700 400 m 1,52,-1
 800 400 l 1,53,-1
 800 500 l 1,54,-1
 900 500 l 1,55,-1
 900 600 l 1,56,-1
 800 600 l 1,57,-1
 800 700 l 1,58,-1
 700 700 l 1,59,-1
 700 400 l 1,52,-1
500 1200 m 1,60,-1
 400 1200 l 1,61,-1
 400 1100 l 1,62,-1
 300 1100 l 1,63,-1
 300 1000 l 1,64,-1
 400 1000 l 1,65,-1
 400 900 l 1,66,-1
 500 900 l 1,67,-1
 500 1200 l 1,60,-1
EndSplineSet
Validated: 1
EndChar

StartChar: percent
Encoding: 37 37 8
Width: 1200
Flags: W
LayerCount: 2
Fore
SplineSet
300 1100 m 1,0,-1
 400 1100 l 1,1,-1
 400 1300 l 1,2,-1
 300 1300 l 1,3,-1
 300 1100 l 1,0,-1
1000 200 m 1,4,-1
 1000 100 l 1,5,-1
 700 100 l 1,6,-1
 700 200 l 1,7,-1
 600 200 l 1,8,-1
 600 600 l 1,9,-1
 700 600 l 1,10,-1
 700 700 l 1,11,-1
 1000 700 l 1,12,-1
 1000 600 l 1,13,-1
 1100 600 l 1,14,-1
 1100 200 l 1,15,-1
 1000 200 l 1,4,-1
800 300 m 1,16,-1
 900 300 l 1,17,-1
 900 500 l 1,18,-1
 800 500 l 1,19,-1
 800 300 l 1,16,-1
600 1000 m 1,20,-1
 700 1000 l 1,21,-1
 700 1100 l 1,22,-1
 800 1100 l 1,23,-1
 800 1200 l 1,24,-1
 900 1200 l 1,25,-1
 900 1500 l 1,26,-1
 1100 1500 l 1,27,-1
 1100 1100 l 1,28,-1
 1000 1100 l 1,29,-1
 1000 1000 l 1,30,-1
 900 1000 l 1,31,-1
 900 900 l 1,32,-1
 800 900 l 1,33,-1
 800 800 l 1,34,-1
 700 800 l 1,35,-1
 700 700 l 1,36,-1
 600 700 l 1,37,-1
 600 600 l 1,38,-1
 500 600 l 1,39,-1
 500 500 l 1,40,-1
 400 500 l 1,41,-1
 400 400 l 1,42,-1
 300 400 l 1,43,-1
 300 100 l 1,44,-1
 100 100 l 1,45,-1
 100 500 l 1,46,-1
 200 500 l 1,47,-1
 200 600 l 1,48,-1
 300 600 l 1,49,-1
 300 700 l 1,50,-1
 400 700 l 1,51,-1
 400 800 l 1,52,-1
 500 800 l 1,53,-1
 500 900 l 1,54,-1
 200 900 l 1,55,-1
 200 1000 l 1,56,-1
 100 1000 l 1,57,-1
 100 1400 l 1,58,-1
 200 1400 l 1,59,-1
 200 1500 l 1,60,-1
 500 1500 l 1,61,-1
 500 1400 l 1,62,-1
 600 1400 l 1,63,-1
 600 1000 l 1,20,-1
500 900 m 1,64,-1
 600 900 l 1,65,-1
 600 1000 l 1,66,-1
 500 1000 l 1,67,-1
 500 900 l 1,64,-1
EndSplineSet
Validated: 5
EndChar

StartChar: ampersand
Encoding: 38 38 9
Width: 1200
Flags: W
LayerCount: 2
Fore
SplineSet
700 1500 m 1,0,-1
 400 1500 l 1,1,-1
 400 1100 l 1,2,-1
 500 1100 l 1,3,-1
 500 1000 l 1,4,-1
 600 1000 l 1,5,-1
 600 1100 l 1,6,-1
 700 1100 l 1,7,-1
 700 1500 l 1,0,-1
700 500 m 1,8,-1
 600 500 l 1,9,-1
 600 600 l 1,10,-1
 500 600 l 1,11,-1
 500 700 l 1,12,-1
 300 700 l 1,13,-1
 300 400 l 1,14,-1
 400 400 l 1,15,-1
 400 300 l 1,16,-1
 700 300 l 1,17,-1
 700 500 l 1,8,-1
700 700 m 1,18,-1
 800 700 l 1,19,-1
 800 600 l 1,20,-1
 900 600 l 1,21,-1
 900 700 l 1,22,-1
 1100 700 l 1,23,-1
 1100 500 l 1,24,-1
 1000 500 l 1,25,-1
 1000 300 l 1,26,-1
 1100 300 l 1,27,-1
 1100 100 l 1,28,-1
 900 100 l 1,29,-1
 900 200 l 1,30,-1
 800 200 l 1,31,-1
 800 100 l 1,32,-1
 300 100 l 1,33,-1
 300 200 l 1,34,-1
 200 200 l 1,35,-1
 200 300 l 1,36,-1
 100 300 l 1,37,-1
 100 800 l 1,38,-1
 200 800 l 1,39,-1
 200 900 l 1,40,-1
 300 900 l 1,41,-1
 300 1100 l 1,42,-1
 200 1100 l 1,43,-1
 200 1500 l 1,44,-1
 300 1500 l 1,45,-1
 300 1600 l 1,46,-1
 400 1600 l 1,47,-1
 400 1700 l 1,48,-1
 700 1700 l 1,49,-1
 700 1600 l 1,50,-1
 800 1600 l 1,51,-1
 800 1500 l 1,52,-1
 900 1500 l 1,53,-1
 900 1100 l 1,54,-1
 800 1100 l 1,55,-1
 800 900 l 1,56,-1
 700 900 l 1,57,-1
 700 700 l 1,18,-1
EndSplineSet
Validated: 1
EndChar

StartChar: quotesingle
Encoding: 39 39 10
Width: 1200
Flags: W
LayerCount: 2
Fore
SplineSet
700 1500 m 1,0,-1
 700 1200 l 1,1,-1
 600 1200 l 1,2,-1
 600 1100 l 1,3,-1
 500 1100 l 1,4,-1
 500 1200 l 1,5,-1
 400 1200 l 1,6,-1
 400 1500 l 1,7,-1
 700 1500 l 1,0,-1
EndSplineSet
Validated: 1
EndChar

StartChar: parenleft
Encoding: 40 40 11
Width: 1200
Flags: W
LayerCount: 2
Fore
SplineSet
700 200 m 1,0,-1
 800 200 l 1,1,-1
 800 100 l 1,2,-1
 600 100 l 1,3,-1
 600 200 l 1,4,-1
 500 200 l 1,5,-1
 500 300 l 1,6,-1
 400 300 l 1,7,-1
 400 400 l 1,8,-1
 300 400 l 1,9,-1
 300 1400 l 1,10,-1
 400 1400 l 1,11,-1
 400 1500 l 1,12,-1
 500 1500 l 1,13,-1
 500 1600 l 1,14,-1
 600 1600 l 1,15,-1
 600 1700 l 1,16,-1
 800 1700 l 1,17,-1
 800 1600 l 1,18,-1
 700 1600 l 1,19,-1
 700 1500 l 1,20,-1
 600 1500 l 1,21,-1
 600 1400 l 1,22,-1
 500 1400 l 1,23,-1
 500 400 l 1,24,-1
 600 400 l 1,25,-1
 600 300 l 1,26,-1
 700 300 l 1,27,-1
 700 200 l 1,0,-1
EndSplineSet
Validated: 1
EndChar

StartChar: parenright
Encoding: 41 41 12
Width: 1200
Flags: W
LayerCount: 2
Fore
SplineSet
600 200 m 1,0,-1
 600 100 l 1,1,-1
 400 100 l 1,2,-1
 400 200 l 1,3,-1
 500 200 l 1,4,-1
 500 300 l 1,5,-1
 600 300 l 1,6,-1
 600 400 l 1,7,-1
 700 400 l 1,8,-1
 700 1400 l 1,9,-1
 600 1400 l 1,10,-1
 600 1500 l 1,11,-1
 500 1500 l 1,12,-1
 500 1600 l 1,13,-1
 400 1600 l 1,14,-1
 400 1700 l 1,15,-1
 600 1700 l 1,16,-1
 600 1600 l 1,17,-1
 700 1600 l 1,18,-1
 700 1500 l 1,19,-1
 800 1500 l 1,20,-1
 800 1400 l 1,21,-1
 900 1400 l 1,22,-1
 900 400 l 1,23,-1
 800 400 l 1,24,-1
 800 300 l 1,25,-1
 700 300 l 1,26,-1
 700 200 l 1,27,-1
 600 200 l 1,0,-1
EndSplineSet
Validated: 1
EndChar

StartChar: asterisk
Encoding: 42 42 13
Width: 1200
Flags: W
LayerCount: 2
Fore
SplineSet
300 900 m 1,0,-1
 300 800 l 1,1,-1
 200 800 l 1,2,-1
 200 1000 l 1,3,-1
 300 1000 l 1,4,-1
 300 1100 l 1,5,-1
 400 1100 l 1,6,-1
 400 1200 l 1,7,-1
 300 1200 l 1,8,-1
 300 1300 l 1,9,-1
 200 1300 l 1,10,-1
 200 1500 l 1,11,-1
 300 1500 l 1,12,-1
 300 1400 l 1,13,-1
 400 1400 l 1,14,-1
 400 1300 l 1,15,-1
 500 1300 l 1,16,-1
 500 1600 l 1,17,-1
 700 1600 l 1,18,-1
 700 1300 l 1,19,-1
 800 1300 l 1,20,-1
 800 1400 l 1,21,-1
 900 1400 l 1,22,-1
 900 1500 l 1,23,-1
 1000 1500 l 1,24,-1
 1000 1300 l 1,25,-1
 900 1300 l 1,26,-1
 900 1200 l 1,27,-1
 800 1200 l 1,28,-1
 800 1100 l 1,29,-1
 900 1100 l 1,30,-1
 900 1000 l 1,31,-1
 1000 1000 l 1,32,-1
 1000 800 l 1,33,-1
 900 800 l 1,34,-1
 900 900 l 1,35,-1
 800 900 l 1,36,-1
 800 1000 l 1,37,-1
 700 1000 l 1,38,-1
 700 700 l 1,39,-1
 500 700 l 1,40,-1
 500 1000 l 1,41,-1
 400 1000 l 1,42,-1
 400 900 l 1,43,-1
 300 900 l 1,0,-1
EndSplineSet
Validated: 1
EndChar

StartChar: plus
Encoding: 43 43 14
Width: 1200
Flags: W
LayerCount: 2
Fore
SplineSet
500 900 m 1,0,-1
 500 1300 l 1,1,-1
 700 1300 l 1,2,-1
 700 900 l 1,3,-1
 1100 900 l 1,4,-1
 1100 700 l 1,5,-1
 700 700 l 1,6,-1
 700 300 l 1,7,-1
 500 300 l 1,8,-1
 500 700 l 1,9,-1
 100 700 l 1,10,-1
 100 900 l 1,11,-1
 500 900 l 1,0,-1
EndSplineSet
Validated: 1
EndChar

StartChar: comma
Encoding: 44 44 15
Width: 1200
Flags: W
LayerCount: 2
Fore
SplineSet
500 300 m 1,0,-1
 500 500 l 1,1,-1
 700 500 l 1,2,-1
 700 300 l 1,3,-1
 600 300 l 1,4,-1
 600 200 l 1,5,-1
 500 200 l 1,6,-1
 500 100 l 1,7,-1
 300 100 l 1,8,-1
 300 200 l 1,9,-1
 400 200 l 1,10,-1
 400 300 l 1,11,-1
 500 300 l 1,0,-1
EndSplineSet
Validated: 1
EndChar

StartChar: hyphen
Encoding: 45 45 16
AltUni2: 0000ad.ffffffff.0
Width: 1200
Flags: W
LayerCount: 2
Fore
SplineSet
1000 900 m 1,0,-1
 1000 700 l 1,1,-1
 200 700 l 1,2,-1
 200 900 l 1,3,-1
 1000 900 l 1,0,-1
EndSplineSet
Validated: 1
EndChar

StartChar: period
Encoding: 46 46 17
Width: 1200
Flags: W
LayerCount: 2
Fore
SplineSet
600 300 m 1,0,-1
 600 100 l 1,1,-1
 400 100 l 1,2,-1
 400 300 l 1,3,-1
 600 300 l 1,0,-1
EndSplineSet
Validated: 1
EndChar

StartChar: slash
Encoding: 47 47 18
Width: 1200
Flags: W
LayerCount: 2
Fore
SplineSet
900 1500 m 1,0,-1
 1100 1500 l 1,1,-1
 1100 1100 l 1,2,-1
 1000 1100 l 1,3,-1
 1000 1000 l 1,4,-1
 900 1000 l 1,5,-1
 900 900 l 1,6,-1
 800 900 l 1,7,-1
 800 800 l 1,8,-1
 700 800 l 1,9,-1
 700 700 l 1,10,-1
 600 700 l 1,11,-1
 600 600 l 1,12,-1
 500 600 l 1,13,-1
 500 500 l 1,14,-1
 400 500 l 1,15,-1
 400 400 l 1,16,-1
 300 400 l 1,17,-1
 300 100 l 1,18,-1
 100 100 l 1,19,-1
 100 500 l 1,20,-1
 200 500 l 1,21,-1
 200 600 l 1,22,-1
 300 600 l 1,23,-1
 300 700 l 1,24,-1
 400 700 l 1,25,-1
 400 800 l 1,26,-1
 500 800 l 1,27,-1
 500 900 l 1,28,-1
 600 900 l 1,29,-1
 600 1000 l 1,30,-1
 700 1000 l 1,31,-1
 700 1100 l 1,32,-1
 800 1100 l 1,33,-1
 800 1200 l 1,34,-1
 900 1200 l 1,35,-1
 900 1500 l 1,0,-1
EndSplineSet
Validated: 1
Substitution2: "'frac' Diagonal Fractions in Latin lookup 0 subtable" fraction
EndChar

StartChar: zero
Encoding: 48 48 19
Width: 1200
Flags: W
LayerCount: 2
Fore
SplineSet
400 700 m 1,0,-1
 400 800 l 1,1,-1
 500 800 l 1,2,-1
 500 900 l 1,3,-1
 600 900 l 1,4,-1
 600 1000 l 1,5,-1
 700 1000 l 1,6,-1
 700 1100 l 1,7,-1
 900 1100 l 1,8,-1
 900 1200 l 1,9,-1
 800 1200 l 1,10,-1
 800 1300 l 1,11,-1
 400 1300 l 1,12,-1
 400 1200 l 1,13,-1
 300 1200 l 1,14,-1
 300 700 l 1,15,-1
 400 700 l 1,0,-1
300 500 m 1,16,-1
 300 400 l 1,17,-1
 400 400 l 1,18,-1
 400 300 l 1,19,-1
 800 300 l 1,20,-1
 800 400 l 1,21,-1
 900 400 l 1,22,-1
 900 900 l 1,23,-1
 800 900 l 1,24,-1
 800 800 l 1,25,-1
 700 800 l 1,26,-1
 700 700 l 1,27,-1
 600 700 l 1,28,-1
 600 600 l 1,29,-1
 500 600 l 1,30,-1
 500 500 l 1,31,-1
 300 500 l 1,16,-1
300 1400 m 1,32,-1
 300 1500 l 1,33,-1
 900 1500 l 1,34,-1
 900 1400 l 1,35,-1
 1000 1400 l 1,36,-1
 1000 1300 l 1,37,-1
 1100 1300 l 1,38,-1
 1100 300 l 1,39,-1
 1000 300 l 1,40,-1
 1000 200 l 1,41,-1
 900 200 l 1,42,-1
 900 100 l 1,43,-1
 300 100 l 1,44,-1
 300 200 l 1,45,-1
 200 200 l 1,46,-1
 200 300 l 1,47,-1
 100 300 l 1,48,-1
 100 1300 l 1,49,-1
 200 1300 l 1,50,-1
 200 1400 l 1,51,-1
 300 1400 l 1,32,-1
EndSplineSet
Validated: 1
EndChar

StartChar: one
Encoding: 49 49 20
Width: 1200
Flags: W
LayerCount: 2
Fore
SplineSet
700 300 m 1,0,-1
 900 300 l 1,1,-1
 900 100 l 1,2,-1
 300 100 l 1,3,-1
 300 300 l 1,4,-1
 500 300 l 1,5,-1
 500 1100 l 1,6,-1
 300 1100 l 1,7,-1
 300 1300 l 1,8,-1
 400 1300 l 1,9,-1
 400 1400 l 1,10,-1
 500 1400 l 1,11,-1
 500 1500 l 1,12,-1
 700 1500 l 1,13,-1
 700 300 l 1,0,-1
EndSplineSet
Validated: 1
EndChar

StartChar: two
Encoding: 50 50 21
Width: 1200
Flags: W
LayerCount: 2
Fore
SplineSet
300 300 m 1,0,-1
 1100 300 l 1,1,-1
 1100 100 l 1,2,-1
 100 100 l 1,3,-1
 100 700 l 1,4,-1
 200 700 l 1,5,-1
 200 800 l 1,6,-1
 300 800 l 1,7,-1
 300 900 l 1,8,-1
 800 900 l 1,9,-1
 800 1000 l 1,10,-1
 900 1000 l 1,11,-1
 900 1200 l 1,12,-1
 800 1200 l 1,13,-1
 800 1300 l 1,14,-1
 400 1300 l 1,15,-1
 400 1200 l 1,16,-1
 300 1200 l 1,17,-1
 300 1100 l 1,18,-1
 100 1100 l 1,19,-1
 100 1300 l 1,20,-1
 200 1300 l 1,21,-1
 200 1400 l 1,22,-1
 300 1400 l 1,23,-1
 300 1500 l 1,24,-1
 900 1500 l 1,25,-1
 900 1400 l 1,26,-1
 1000 1400 l 1,27,-1
 1000 1300 l 1,28,-1
 1100 1300 l 1,29,-1
 1100 900 l 1,30,-1
 1000 900 l 1,31,-1
 1000 800 l 1,32,-1
 900 800 l 1,33,-1
 900 700 l 1,34,-1
 400 700 l 1,35,-1
 400 600 l 1,36,-1
 300 600 l 1,37,-1
 300 300 l 1,0,-1
EndSplineSet
Validated: 1
EndChar

StartChar: three
Encoding: 51 51 22
Width: 1200
Flags: W
LayerCount: 2
Fore
SplineSet
200 300 m 1,0,-1
 100 300 l 1,1,-1
 100 500 l 1,2,-1
 300 500 l 1,3,-1
 300 400 l 1,4,-1
 400 400 l 1,5,-1
 400 300 l 1,6,-1
 800 300 l 1,7,-1
 800 400 l 1,8,-1
 900 400 l 1,9,-1
 900 600 l 1,10,-1
 800 600 l 1,11,-1
 800 700 l 1,12,-1
 500 700 l 1,13,-1
 500 900 l 1,14,-1
 800 900 l 1,15,-1
 800 1000 l 1,16,-1
 900 1000 l 1,17,-1
 900 1200 l 1,18,-1
 800 1200 l 1,19,-1
 800 1300 l 1,20,-1
 400 1300 l 1,21,-1
 400 1200 l 1,22,-1
 300 1200 l 1,23,-1
 300 1100 l 1,24,-1
 100 1100 l 1,25,-1
 100 1300 l 1,26,-1
 200 1300 l 1,27,-1
 200 1400 l 1,28,-1
 300 1400 l 1,29,-1
 300 1500 l 1,30,-1
 900 1500 l 1,31,-1
 900 1400 l 1,32,-1
 1000 1400 l 1,33,-1
 1000 1300 l 1,34,-1
 1100 1300 l 1,35,-1
 1100 900 l 1,36,-1
 1000 900 l 1,37,-1
 1000 700 l 1,38,-1
 1100 700 l 1,39,-1
 1100 300 l 1,40,-1
 1000 300 l 1,41,-1
 1000 200 l 1,42,-1
 900 200 l 1,43,-1
 900 100 l 1,44,-1
 300 100 l 1,45,-1
 300 200 l 1,46,-1
 200 200 l 1,47,-1
 200 300 l 1,0,-1
EndSplineSet
Validated: 1
EndChar

StartChar: four
Encoding: 52 52 23
Width: 1200
Flags: W
LayerCount: 2
Fore
SplineSet
700 1400 m 1,0,-1
 700 1500 l 1,1,-1
 900 1500 l 1,2,-1
 900 700 l 1,3,-1
 1100 700 l 1,4,-1
 1100 500 l 1,5,-1
 900 500 l 1,6,-1
 900 100 l 1,7,-1
 700 100 l 1,8,-1
 700 500 l 1,9,-1
 100 500 l 1,10,-1
 100 900 l 1,11,-1
 200 900 l 1,12,-1
 200 1000 l 1,13,-1
 300 1000 l 1,14,-1
 300 1100 l 1,15,-1
 400 1100 l 1,16,-1
 400 1200 l 1,17,-1
 500 1200 l 1,18,-1
 500 1300 l 1,19,-1
 600 1300 l 1,20,-1
 600 1400 l 1,21,-1
 700 1400 l 1,0,-1
700 700 m 1,22,-1
 700 1100 l 1,23,-1
 600 1100 l 1,24,-1
 600 1000 l 1,25,-1
 500 1000 l 1,26,-1
 500 900 l 1,27,-1
 400 900 l 1,28,-1
 400 800 l 1,29,-1
 300 800 l 1,30,-1
 300 700 l 1,31,-1
 700 700 l 1,22,-1
EndSplineSet
Validated: 1
EndChar

StartChar: five
Encoding: 53 53 24
Width: 1200
Flags: W
LayerCount: 2
Fore
SplineSet
100 1500 m 1,0,-1
 1100 1500 l 1,1,-1
 1100 1300 l 1,2,-1
 300 1300 l 1,3,-1
 300 1100 l 1,4,-1
 900 1100 l 1,5,-1
 900 1000 l 1,6,-1
 1000 1000 l 1,7,-1
 1000 900 l 1,8,-1
 1100 900 l 1,9,-1
 1100 300 l 1,10,-1
 1000 300 l 1,11,-1
 1000 200 l 1,12,-1
 900 200 l 1,13,-1
 900 100 l 1,14,-1
 300 100 l 1,15,-1
 300 200 l 1,16,-1
 200 200 l 1,17,-1
 200 300 l 1,18,-1
 100 300 l 1,19,-1
 100 500 l 1,20,-1
 300 500 l 1,21,-1
 300 400 l 1,22,-1
 400 400 l 1,23,-1
 400 300 l 1,24,-1
 800 300 l 1,25,-1
 800 400 l 1,26,-1
 900 400 l 1,27,-1
 900 800 l 1,28,-1
 800 800 l 1,29,-1
 800 900 l 1,30,-1
 100 900 l 1,31,-1
 100 1500 l 1,0,-1
EndSplineSet
Validated: 1
EndChar

StartChar: six
Encoding: 54 54 25
Width: 1200
Flags: W
LayerCount: 2
Fore
SplineSet
900 200 m 1,0,-1
 900 100 l 1,1,-1
 300 100 l 1,2,-1
 300 200 l 1,3,-1
 200 200 l 1,4,-1
 200 300 l 1,5,-1
 100 300 l 1,6,-1
 100 1300 l 1,7,-1
 200 1300 l 1,8,-1
 200 1400 l 1,9,-1
 300 1400 l 1,10,-1
 300 1500 l 1,11,-1
 900 1500 l 1,12,-1
 900 1400 l 1,13,-1
 1000 1400 l 1,14,-1
 1000 1300 l 1,15,-1
 1100 1300 l 1,16,-1
 1100 1100 l 1,17,-1
 900 1100 l 1,18,-1
 900 1200 l 1,19,-1
 800 1200 l 1,20,-1
 800 1300 l 1,21,-1
 400 1300 l 1,22,-1
 400 1200 l 1,23,-1
 300 1200 l 1,24,-1
 300 900 l 1,25,-1
 900 900 l 1,26,-1
 900 800 l 1,27,-1
 1000 800 l 1,28,-1
 1000 700 l 1,29,-1
 1100 700 l 1,30,-1
 1100 300 l 1,31,-1
 1000 300 l 1,32,-1
 1000 200 l 1,33,-1
 900 200 l 1,0,-1
400 300 m 1,34,-1
 800 300 l 1,35,-1
 800 400 l 1,36,-1
 900 400 l 1,37,-1
 900 600 l 1,38,-1
 800 600 l 1,39,-1
 800 700 l 1,40,-1
 300 700 l 1,41,-1
 300 400 l 1,42,-1
 400 400 l 1,43,-1
 400 300 l 1,34,-1
EndSplineSet
Validated: 1
EndChar

StartChar: seven
Encoding: 55 55 26
Width: 1200
Flags: W
LayerCount: 2
Fore
SplineSet
900 1300 m 1,0,-1
 100 1300 l 1,1,-1
 100 1500 l 1,2,-1
 1100 1500 l 1,3,-1
 1100 1000 l 1,4,-1
 1000 1000 l 1,5,-1
 1000 900 l 1,6,-1
 900 900 l 1,7,-1
 900 800 l 1,8,-1
 800 800 l 1,9,-1
 800 700 l 1,10,-1
 700 700 l 1,11,-1
 700 100 l 1,12,-1
 500 100 l 1,13,-1
 500 800 l 1,14,-1
 600 800 l 1,15,-1
 600 900 l 1,16,-1
 700 900 l 1,17,-1
 700 1000 l 1,18,-1
 800 1000 l 1,19,-1
 800 1100 l 1,20,-1
 900 1100 l 1,21,-1
 900 1300 l 1,0,-1
EndSplineSet
Validated: 1
EndChar

StartChar: eight
Encoding: 56 56 27
Width: 1200
Flags: W
LayerCount: 2
Fore
SplineSet
400 300 m 1,0,-1
 800 300 l 1,1,-1
 800 400 l 1,2,-1
 900 400 l 1,3,-1
 900 600 l 1,4,-1
 800 600 l 1,5,-1
 800 700 l 1,6,-1
 400 700 l 1,7,-1
 400 600 l 1,8,-1
 300 600 l 1,9,-1
 300 400 l 1,10,-1
 400 400 l 1,11,-1
 400 300 l 1,0,-1
900 200 m 1,12,-1
 900 100 l 1,13,-1
 300 100 l 1,14,-1
 300 200 l 1,15,-1
 200 200 l 1,16,-1
 200 300 l 1,17,-1
 100 300 l 1,18,-1
 100 700 l 1,19,-1
 200 700 l 1,20,-1
 200 900 l 1,21,-1
 100 900 l 1,22,-1
 100 1300 l 1,23,-1
 200 1300 l 1,24,-1
 200 1400 l 1,25,-1
 300 1400 l 1,26,-1
 300 1500 l 1,27,-1
 900 1500 l 1,28,-1
 900 1400 l 1,29,-1
 1000 1400 l 1,30,-1
 1000 1300 l 1,31,-1
 1100 1300 l 1,32,-1
 1100 900 l 1,33,-1
 1000 900 l 1,34,-1
 1000 700 l 1,35,-1
 1100 700 l 1,36,-1
 1100 300 l 1,37,-1
 1000 300 l 1,38,-1
 1000 200 l 1,39,-1
 900 200 l 1,12,-1
800 1300 m 1,40,-1
 400 1300 l 1,41,-1
 400 1200 l 1,42,-1
 300 1200 l 1,43,-1
 300 1000 l 1,44,-1
 400 1000 l 1,45,-1
 400 900 l 1,46,-1
 800 900 l 1,47,-1
 800 1000 l 1,48,-1
 900 1000 l 1,49,-1
 900 1200 l 1,50,-1
 800 1200 l 1,51,-1
 800 1300 l 1,40,-1
EndSplineSet
Validated: 1
EndChar

StartChar: nine
Encoding: 57 57 28
Width: 1200
Flags: W
LayerCount: 2
Fore
SplineSet
200 300 m 1,0,-1
 100 300 l 1,1,-1
 100 500 l 1,2,-1
 300 500 l 1,3,-1
 300 400 l 1,4,-1
 400 400 l 1,5,-1
 400 300 l 1,6,-1
 800 300 l 1,7,-1
 800 400 l 1,8,-1
 900 400 l 1,9,-1
 900 700 l 1,10,-1
 300 700 l 1,11,-1
 300 800 l 1,12,-1
 200 800 l 1,13,-1
 200 900 l 1,14,-1
 100 900 l 1,15,-1
 100 1300 l 1,16,-1
 200 1300 l 1,17,-1
 200 1400 l 1,18,-1
 300 1400 l 1,19,-1
 300 1500 l 1,20,-1
 900 1500 l 1,21,-1
 900 1400 l 1,22,-1
 1000 1400 l 1,23,-1
 1000 1300 l 1,24,-1
 1100 1300 l 1,25,-1
 1100 300 l 1,26,-1
 1000 300 l 1,27,-1
 1000 200 l 1,28,-1
 900 200 l 1,29,-1
 900 100 l 1,30,-1
 300 100 l 1,31,-1
 300 200 l 1,32,-1
 200 200 l 1,33,-1
 200 300 l 1,0,-1
900 900 m 1,34,-1
 900 1200 l 1,35,-1
 800 1200 l 1,36,-1
 800 1300 l 1,37,-1
 400 1300 l 1,38,-1
 400 1200 l 1,39,-1
 300 1200 l 1,40,-1
 300 999 l 1,41,-1
 400 999 l 1,42,-1
 400 900 l 1,43,-1
 900 900 l 1,34,-1
EndSplineSet
Validated: 1
EndChar

StartChar: colon
Encoding: 58 58 29
Width: 1200
Flags: W
LayerCount: 2
Fore
SplineSet
600 500 m 1,0,-1
 600 300 l 1,1,-1
 400 300 l 1,2,-1
 400 500 l 1,3,-1
 600 500 l 1,0,-1
600 1300 m 1,4,-1
 600 1100 l 1,5,-1
 400 1100 l 1,6,-1
 400 1300 l 1,7,-1
 600 1300 l 1,4,-1
EndSplineSet
Validated: 1
EndChar

StartChar: semicolon
Encoding: 59 59 30
AltUni2: 00037e.ffffffff.0
Width: 1200
Flags: W
LayerCount: 2
Fore
SplineSet
600 1300 m 1,0,-1
 600 1100 l 1,1,-1
 400 1100 l 1,2,-1
 400 1300 l 1,3,-1
 600 1300 l 1,0,-1
400 300 m 1,4,-1
 400 500 l 1,5,-1
 600 500 l 1,6,-1
 600 300 l 1,7,-1
 500 300 l 1,8,-1
 500 200 l 1,9,-1
 400 200 l 1,10,-1
 400 100 l 1,11,-1
 200 100 l 1,12,-1
 200 200 l 1,13,-1
 300 200 l 1,14,-1
 300 300 l 1,15,-1
 400 300 l 1,4,-1
EndSplineSet
Validated: 1
EndChar

StartChar: less
Encoding: 60 60 31
Width: 1200
Flags: W
LayerCount: 2
Fore
SplineSet
700 200 m 1,0,-1
 700 300 l 1,1,-1
 600 300 l 1,2,-1
 600 400 l 1,3,-1
 500 400 l 1,4,-1
 500 500 l 1,5,-1
 400 500 l 1,6,-1
 400 600 l 1,7,-1
 300 600 l 1,8,-1
 300 700 l 1,9,-1
 200 700 l 1,10,-1
 200 1000 l 1,11,-1
 300 1000 l 1,12,-1
 300 1100 l 1,13,-1
 400 1100 l 1,14,-1
 400 1200 l 1,15,-1
 500 1200 l 1,16,-1
 500 1300 l 1,17,-1
 600 1300 l 1,18,-1
 600 1400 l 1,19,-1
 700 1400 l 1,20,-1
 700 1500 l 1,21,-1
 800 1500 l 1,22,-1
 800 1600 l 1,23,-1
 1000 1600 l 1,24,-1
 1000 1400 l 1,25,-1
 900 1400 l 1,26,-1
 900 1300 l 1,27,-1
 800 1300 l 1,28,-1
 800 1200 l 1,29,-1
 700 1200 l 1,30,-1
 700 1100 l 1,31,-1
 600 1100 l 1,32,-1
 600 1000 l 1,33,-1
 500 1000 l 1,34,-1
 500 900 l 1,35,-1
 400 900 l 1,36,-1
 400 800 l 1,37,-1
 500 800 l 1,38,-1
 500 700 l 1,39,-1
 600 700 l 1,40,-1
 600 600 l 1,41,-1
 700 600 l 1,42,-1
 700 500 l 1,43,-1
 800 500 l 1,44,-1
 800 400 l 1,45,-1
 900 400 l 1,46,-1
 900 300 l 1,47,-1
 1000 300 l 1,48,-1
 1000 100 l 1,49,-1
 800 100 l 1,50,-1
 800 200 l 1,51,-1
 700 200 l 1,0,-1
EndSplineSet
Validated: 1
EndChar

StartChar: equal
Encoding: 61 61 32
Width: 1200
Flags: W
LayerCount: 2
Fore
SplineSet
1100 1100 m 1,0,-1
 1100 900 l 1,1,-1
 100 900 l 1,2,-1
 100 1100 l 1,3,-1
 1100 1100 l 1,0,-1
1100 700 m 1,4,-1
 1100 500 l 1,5,-1
 100 500 l 1,6,-1
 100 700 l 1,7,-1
 1100 700 l 1,4,-1
EndSplineSet
Validated: 1
EndChar

StartChar: greater
Encoding: 62 62 33
Width: 1200
Flags: W
LayerCount: 2
Fore
SplineSet
400 200 m 1,0,-1
 400 100 l 1,1,-1
 200 100 l 1,2,-1
 200 300 l 1,3,-1
 300 300 l 1,4,-1
 300 400 l 1,5,-1
 400 400 l 1,6,-1
 400 500 l 1,7,-1
 500 500 l 1,8,-1
 500 600 l 1,9,-1
 600 600 l 1,10,-1
 600 700 l 1,11,-1
 700 700 l 1,12,-1
 700 800 l 1,13,-1
 800 800 l 1,14,-1
 800 900 l 1,15,-1
 700 900 l 1,16,-1
 700 1000 l 1,17,-1
 600 1000 l 1,18,-1
 600 1100 l 1,19,-1
 500 1100 l 1,20,-1
 500 1200 l 1,21,-1
 400 1200 l 1,22,-1
 400 1300 l 1,23,-1
 300 1300 l 1,24,-1
 300 1400 l 1,25,-1
 200 1400 l 1,26,-1
 200 1600 l 1,27,-1
 400 1600 l 1,28,-1
 400 1500 l 1,29,-1
 500 1500 l 1,30,-1
 500 1400 l 1,31,-1
 600 1400 l 1,32,-1
 600 1300 l 1,33,-1
 700 1300 l 1,34,-1
 700 1200 l 1,35,-1
 800 1200 l 1,36,-1
 800 1100 l 1,37,-1
 900 1100 l 1,38,-1
 900 1000 l 1,39,-1
 1000 1000 l 1,40,-1
 1000 700 l 1,41,-1
 900 700 l 1,42,-1
 900 600 l 1,43,-1
 800 600 l 1,44,-1
 800 500 l 1,45,-1
 700 500 l 1,46,-1
 700 400 l 1,47,-1
 600 400 l 1,48,-1
 600 300 l 1,49,-1
 500 300 l 1,50,-1
 500 200 l 1,51,-1
 400 200 l 1,0,-1
EndSplineSet
Validated: 1
EndChar

StartChar: question
Encoding: 63 63 34
Width: 1200
Flags: W
LayerCount: 2
Fore
SplineSet
700 300 m 1,0,-1
 700 100 l 1,1,-1
 500 100 l 1,2,-1
 500 300 l 1,3,-1
 700 300 l 1,0,-1
700 800 m 1,4,-1
 700 900 l 1,5,-1
 800 900 l 1,6,-1
 800 1000 l 1,7,-1
 900 1000 l 1,8,-1
 900 1200 l 1,9,-1
 800 1200 l 1,10,-1
 800 1300 l 1,11,-1
 400 1300 l 1,12,-1
 400 1200 l 1,13,-1
 300 1200 l 1,14,-1
 300 1100 l 1,15,-1
 100 1100 l 1,16,-1
 100 1300 l 1,17,-1
 200 1300 l 1,18,-1
 200 1400 l 1,19,-1
 300 1400 l 1,20,-1
 300 1500 l 1,21,-1
 900 1500 l 1,22,-1
 900 1400 l 1,23,-1
 1000 1400 l 1,24,-1
 1000 1300 l 1,25,-1
 1100 1300 l 1,26,-1
 1100 900 l 1,27,-1
 1000 900 l 1,28,-1
 1000 800 l 1,29,-1
 900 800 l 1,30,-1
 900 700 l 1,31,-1
 800 700 l 1,32,-1
 800 600 l 1,33,-1
 700 600 l 1,34,-1
 700 500 l 1,35,-1
 500 500 l 1,36,-1
 500 700 l 1,37,-1
 600 700 l 1,38,-1
 600 800 l 1,39,-1
 700 800 l 1,4,-1
EndSplineSet
Validated: 1
EndChar

StartChar: at
Encoding: 64 64 35
Width: 1200
Flags: W
LayerCount: 2
Fore
SplineSet
600 1000 m 1,0,-1
 500 1000 l 1,1,-1
 500 600 l 1,2,-1
 600 600 l 1,3,-1
 600 1000 l 1,0,-1
800 500 m 1,4,-1
 800 600 l 1,5,-1
 900 600 l 1,6,-1
 900 700 l 1,7,-1
 1000 700 l 1,8,-1
 1000 1100 l 1,9,-1
 900 1100 l 1,10,-1
 900 1200 l 1,11,-1
 800 1200 l 1,12,-1
 800 1300 l 1,13,-1
 400 1300 l 1,14,-1
 400 1200 l 1,15,-1
 300 1200 l 1,16,-1
 300 1100 l 1,17,-1
 200 1100 l 1,18,-1
 200 500 l 1,19,-1
 300 500 l 1,20,-1
 300 400 l 1,21,-1
 400 400 l 1,22,-1
 400 300 l 1,23,-1
 800 300 l 1,24,-1
 800 400 l 1,25,-1
 1000 400 l 1,26,-1
 1000 300 l 1,27,-1
 900 300 l 1,28,-1
 900 200 l 1,29,-1
 300 200 l 1,30,-1
 300 300 l 1,31,-1
 200 300 l 1,32,-1
 200 400 l 1,33,-1
 100 400 l 1,34,-1
 100 1200 l 1,35,-1
 200 1200 l 1,36,-1
 200 1300 l 1,37,-1
 300 1300 l 1,38,-1
 300 1400 l 1,39,-1
 900 1400 l 1,40,-1
 900 1300 l 1,41,-1
 1000 1300 l 1,42,-1
 1000 1200 l 1,43,-1
 1100 1200 l 1,44,-1
 1100 600 l 1,45,-1
 1000 600 l 1,46,-1
 1000 500 l 1,47,-1
 800 500 l 1,4,-1
800 600 m 1,48,-1
 700 600 l 1,49,-1
 700 500 l 1,50,-1
 400 500 l 1,51,-1
 400 600 l 1,52,-1
 300 600 l 1,53,-1
 300 1000 l 1,54,-1
 400 1000 l 1,55,-1
 400 1100 l 1,56,-1
 600 1100 l 1,57,-1
 600 1000 l 1,58,-1
 700 1000 l 1,59,-1
 700 1100 l 1,60,-1
 800 1100 l 1,61,-1
 800 600 l 1,48,-1
EndSplineSet
Validated: 5
EndChar

StartChar: A
Encoding: 65 65 36
Width: 1200
Flags: W
LayerCount: 2
Fore
SplineSet
300 700 m 1,0,-1
 900 700 l 1,1,-1
 900 1000 l 1,2,-1
 800 1000 l 1,3,-1
 800 1100 l 1,4,-1
 700 1100 l 1,5,-1
 700 1200 l 1,6,-1
 500 1200 l 1,7,-1
 500 1100 l 1,8,-1
 400 1100 l 1,9,-1
 400 1000 l 1,10,-1
 300 1000 l 1,11,-1
 300 700 l 1,0,-1
300 100 m 1,12,-1
 100 100 l 1,13,-1
 100 1100 l 1,14,-1
 200 1100 l 1,15,-1
 200 1200 l 1,16,-1
 300 1200 l 1,17,-1
 300 1300 l 1,18,-1
 400 1300 l 1,19,-1
 400 1400 l 1,20,-1
 500 1400 l 1,21,-1
 500 1500 l 1,22,-1
 700 1500 l 1,23,-1
 700 1400 l 1,24,-1
 800 1400 l 1,25,-1
 800 1300 l 1,26,-1
 900 1300 l 1,27,-1
 900 1200 l 1,28,-1
 1000 1200 l 1,29,-1
 1000 1100 l 1,30,-1
 1100 1100 l 1,31,-1
 1100 100 l 1,32,-1
 900 100 l 1,33,-1
 900 500 l 1,34,-1
 300 500 l 1,35,-1
 300 100 l 1,12,-1
EndSplineSet
Validated: 1
EndChar

StartChar: B
Encoding: 66 66 37
Width: 1200
Flags: W
LayerCount: 2
Fore
SplineSet
300 900 m 1,0,-1
 800 900 l 1,1,-1
 800 1000 l 1,2,-1
 900 1000 l 1,3,-1
 900 1200 l 1,4,-1
 800 1200 l 1,5,-1
 800 1300 l 1,6,-1
 300 1300 l 1,7,-1
 300 900 l 1,0,-1
100 100 m 1,8,-1
 100 1500 l 1,9,-1
 900 1500 l 1,10,-1
 900 1400 l 1,11,-1
 1000 1400 l 1,12,-1
 1000 1300 l 1,13,-1
 1100 1300 l 1,14,-1
 1100 900 l 1,15,-1
 1000 900 l 1,16,-1
 1000 700 l 1,17,-1
 1100 700 l 1,18,-1
 1100 300 l 1,19,-1
 1000 300 l 1,20,-1
 1000 200 l 1,21,-1
 900 200 l 1,22,-1
 900 100 l 1,23,-1
 100 100 l 1,8,-1
300 300 m 1,24,-1
 800 300 l 1,25,-1
 800 400 l 1,26,-1
 900 400 l 1,27,-1
 900 600 l 1,28,-1
 800 600 l 1,29,-1
 800 700 l 1,30,-1
 300 700 l 1,31,-1
 300 300 l 1,24,-1
EndSplineSet
Validated: 1
EndChar

StartChar: C
Encoding: 67 67 38
Width: 1200
Flags: W
LayerCount: 2
Fore
SplineSet
400 300 m 1,0,-1
 800 300 l 1,1,-1
 800 400 l 1,2,-1
 900 400 l 1,3,-1
 900 500 l 1,4,-1
 1100 500 l 1,5,-1
 1100 300 l 1,6,-1
 1000 300 l 1,7,-1
 1000 200 l 1,8,-1
 900 200 l 1,9,-1
 900 100 l 1,10,-1
 300 100 l 1,11,-1
 300 200 l 1,12,-1
 200 200 l 1,13,-1
 200 300 l 1,14,-1
 100 300 l 1,15,-1
 100 1300 l 1,16,-1
 200 1300 l 1,17,-1
 200 1400 l 1,18,-1
 300 1400 l 1,19,-1
 300 1500 l 1,20,-1
 900 1500 l 1,21,-1
 900 1400 l 1,22,-1
 1000 1400 l 1,23,-1
 1000 1300 l 1,24,-1
 1100 1300 l 1,25,-1
 1100 1100 l 1,26,-1
 900 1100 l 1,27,-1
 900 1200 l 1,28,-1
 800 1200 l 1,29,-1
 800 1300 l 1,30,-1
 400 1300 l 1,31,-1
 400 1200 l 1,32,-1
 300 1200 l 1,33,-1
 300 400 l 1,34,-1
 400 400 l 1,35,-1
 400 300 l 1,0,-1
EndSplineSet
Validated: 1
EndChar

StartChar: D
Encoding: 68 68 39
Width: 1200
Flags: W
LayerCount: 2
Fore
SplineSet
300 1300 m 1,0,-1
 300 300 l 1,1,-1
 800 300 l 1,2,-1
 800 400 l 1,3,-1
 900 400 l 1,4,-1
 900 1200 l 1,5,-1
 800 1200 l 1,6,-1
 800 1300 l 1,7,-1
 300 1300 l 1,0,-1
100 100 m 1,8,-1
 100 1500 l 1,9,-1
 900 1500 l 1,10,-1
 900 1400 l 1,11,-1
 1000 1400 l 1,12,-1
 1000 1300 l 1,13,-1
 1100 1300 l 1,14,-1
 1100 300 l 1,15,-1
 1000 300 l 1,16,-1
 1000 200 l 1,17,-1
 900 200 l 1,18,-1
 900 100 l 1,19,-1
 100 100 l 1,8,-1
EndSplineSet
Validated: 1
EndChar

StartChar: E
Encoding: 69 69 40
Width: 1200
Flags: W
LayerCount: 2
Fore
SplineSet
1100 1500 m 1,0,-1
 1100 1300 l 1,1,-1
 300 1300 l 1,2,-1
 300 900 l 1,3,-1
 900 900 l 1,4,-1
 900 700 l 1,5,-1
 300 700 l 1,6,-1
 300 300 l 1,7,-1
 1100 300 l 1,8,-1
 1100 100 l 1,9,-1
 100 100 l 1,10,-1
 100 1500 l 1,11,-1
 1100 1500 l 1,0,-1
EndSplineSet
Validated: 1
EndChar

StartChar: F
Encoding: 70 70 41
Width: 1200
Flags: W
LayerCount: 2
Fore
SplineSet
1100 1500 m 1,0,-1
 1100 1300 l 1,1,-1
 300 1300 l 1,2,-1
 300 900 l 1,3,-1
 900 900 l 1,4,-1
 900 700 l 1,5,-1
 300 700 l 1,6,-1
 300 100 l 1,7,-1
 100 100 l 1,8,-1
 100 1500 l 1,9,-1
 1100 1500 l 1,0,-1
EndSplineSet
Validated: 1
EndChar

StartChar: G
Encoding: 71 71 42
Width: 1200
Flags: W
LayerCount: 2
Fore
SplineSet
1000 1300 m 1,0,-1
 1100 1300 l 1,1,-1
 1100 1100 l 1,2,-1
 900 1100 l 1,3,-1
 900 1200 l 1,4,-1
 800 1200 l 1,5,-1
 800 1300 l 1,6,-1
 400 1300 l 1,7,-1
 400 1200 l 1,8,-1
 300 1200 l 1,9,-1
 300 400 l 1,10,-1
 400 400 l 1,11,-1
 400 300 l 1,12,-1
 800 300 l 1,13,-1
 800 400 l 1,14,-1
 900 400 l 1,15,-1
 900 700 l 1,16,-1
 600 700 l 1,17,-1
 600 900 l 1,18,-1
 1100 900 l 1,19,-1
 1100 300 l 1,20,-1
 1000 300 l 1,21,-1
 1000 200 l 1,22,-1
 900 200 l 1,23,-1
 900 100 l 1,24,-1
 300 100 l 1,25,-1
 300 200 l 1,26,-1
 200 200 l 1,27,-1
 200 300 l 1,28,-1
 100 300 l 1,29,-1
 100 1300 l 1,30,-1
 200 1300 l 1,31,-1
 200 1400 l 1,32,-1
 300 1400 l 1,33,-1
 300 1500 l 1,34,-1
 900 1500 l 1,35,-1
 900 1400 l 1,36,-1
 1000 1400 l 1,37,-1
 1000 1300 l 1,0,-1
EndSplineSet
Validated: 1
EndChar

StartChar: H
Encoding: 72 72 43
Width: 1200
Flags: W
LayerCount: 2
Fore
SplineSet
300 700 m 1,0,-1
 300 100 l 1,1,-1
 100 100 l 1,2,-1
 100 1500 l 1,3,-1
 300 1500 l 1,4,-1
 300 900 l 1,5,-1
 900 900 l 1,6,-1
 900 1500 l 1,7,-1
 1100 1500 l 1,8,-1
 1100 100 l 1,9,-1
 900 100 l 1,10,-1
 900 700 l 1,11,-1
 300 700 l 1,0,-1
EndSplineSet
Validated: 1
EndChar

StartChar: I
Encoding: 73 73 44
Width: 1200
Flags: W
LayerCount: 2
Fore
SplineSet
300 100 m 1,0,-1
 300 300 l 1,1,-1
 500 300 l 1,2,-1
 500 1300 l 1,3,-1
 300 1300 l 1,4,-1
 300 1500 l 1,5,-1
 900 1500 l 1,6,-1
 900 1300 l 1,7,-1
 700 1300 l 1,8,-1
 700 300 l 1,9,-1
 900 300 l 1,10,-1
 900 100 l 1,11,-1
 300 100 l 1,0,-1
EndSplineSet
Validated: 1
EndChar

StartChar: J
Encoding: 74 74 45
Width: 1200
Flags: W
LayerCount: 2
Fore
SplineSet
200 300 m 1,0,-1
 100 300 l 1,1,-1
 100 500 l 1,2,-1
 300 500 l 1,3,-1
 300 400 l 1,4,-1
 400 400 l 1,5,-1
 400 300 l 1,6,-1
 600 300 l 1,7,-1
 600 400 l 1,8,-1
 700 400 l 1,9,-1
 700 1300 l 1,10,-1
 500 1300 l 1,11,-1
 500 1500 l 1,12,-1
 1100 1500 l 1,13,-1
 1100 1300 l 1,14,-1
 900 1300 l 1,15,-1
 900 300 l 1,16,-1
 800 300 l 1,17,-1
 800 200 l 1,18,-1
 700 200 l 1,19,-1
 700 100 l 1,20,-1
 300 100 l 1,21,-1
 300 200 l 1,22,-1
 200 200 l 1,23,-1
 200 300 l 1,0,-1
EndSplineSet
Validated: 1
EndChar

StartChar: K
Encoding: 75 75 46
Width: 1200
Flags: W
LayerCount: 2
Fore
SplineSet
300 700 m 1,0,-1
 300 100 l 1,1,-1
 100 100 l 1,2,-1
 100 1500 l 1,3,-1
 300 1500 l 1,4,-1
 300 900 l 1,5,-1
 400 900 l 1,6,-1
 400 1000 l 1,7,-1
 500 1000 l 1,8,-1
 500 1100 l 1,9,-1
 600 1100 l 1,10,-1
 600 1200 l 1,11,-1
 700 1200 l 1,12,-1
 700 1300 l 1,13,-1
 800 1300 l 1,14,-1
 800 1400 l 1,15,-1
 900 1400 l 1,16,-1
 900 1500 l 1,17,-1
 1100 1500 l 1,18,-1
 1100 1300 l 1,19,-1
 1000 1300 l 1,20,-1
 1000 1200 l 1,21,-1
 900 1200 l 1,22,-1
 900 1100 l 1,23,-1
 800 1100 l 1,24,-1
 800 1000 l 1,25,-1
 700 1000 l 1,26,-1
 700 900 l 1,27,-1
 600 900 l 1,28,-1
 600 700 l 1,29,-1
 700 700 l 1,30,-1
 700 600 l 1,31,-1
 800 600 l 1,32,-1
 800 500 l 1,33,-1
 900 500 l 1,34,-1
 900 400 l 1,35,-1
 1000 400 l 1,36,-1
 1000 300 l 1,37,-1
 1100 300 l 1,38,-1
 1100 100 l 1,39,-1
 900 100 l 1,40,-1
 900 200 l 1,41,-1
 800 200 l 1,42,-1
 800 300 l 1,43,-1
 700 300 l 1,44,-1
 700 400 l 1,45,-1
 600 400 l 1,46,-1
 600 500 l 1,47,-1
 500 500 l 1,48,-1
 500 600 l 1,49,-1
 400 600 l 1,50,-1
 400 700 l 1,51,-1
 300 700 l 1,0,-1
EndSplineSet
Validated: 1
EndChar

StartChar: L
Encoding: 76 76 47
Width: 1200
Flags: W
LayerCount: 2
Fore
SplineSet
100 100 m 1,0,-1
 100 1500 l 1,1,-1
 300 1500 l 1,2,-1
 300 300 l 1,3,-1
 1100 300 l 1,4,-1
 1100 100 l 1,5,-1
 100 100 l 1,0,-1
EndSplineSet
Validated: 1
EndChar

StartChar: M
Encoding: 77 77 48
Width: 1200
Flags: W
LayerCount: 2
Fore
SplineSet
300 100 m 1,0,-1
 100 100 l 1,1,-1
 100 1500 l 1,2,-1
 300 1500 l 1,3,-1
 300 1300 l 1,4,-1
 400 1300 l 1,5,-1
 400 1200 l 1,6,-1
 500 1200 l 1,7,-1
 500 1100 l 1,8,-1
 700 1100 l 1,9,-1
 700 1200 l 1,10,-1
 800 1200 l 1,11,-1
 800 1300 l 1,12,-1
 900 1300 l 1,13,-1
 900 1500 l 1,14,-1
 1100 1500 l 1,15,-1
 1100 100 l 1,16,-1
 900 100 l 1,17,-1
 900 1000 l 1,18,-1
 800 1000 l 1,19,-1
 800 900 l 1,20,-1
 700 900 l 1,21,-1
 700 700 l 1,22,-1
 500 700 l 1,23,-1
 500 900 l 1,24,-1
 400 900 l 1,25,-1
 400 1000 l 1,26,-1
 300 1000 l 1,27,-1
 300 100 l 1,0,-1
EndSplineSet
Validated: 1
EndChar

StartChar: N
Encoding: 78 78 49
Width: 1200
Flags: W
LayerCount: 2
Fore
SplineSet
300 900 m 1,0,-1
 300 100 l 1,1,-1
 100 100 l 1,2,-1
 100 1500 l 1,3,-1
 300 1500 l 1,4,-1
 300 1200 l 1,5,-1
 400 1200 l 1,6,-1
 400 1100 l 1,7,-1
 500 1100 l 1,8,-1
 500 1000 l 1,9,-1
 600 1000 l 1,10,-1
 600 900 l 1,11,-1
 700 900 l 1,12,-1
 700 800 l 1,13,-1
 800 800 l 1,14,-1
 800 700 l 1,15,-1
 900 700 l 1,16,-1
 900 1500 l 1,17,-1
 1100 1500 l 1,18,-1
 1100 100 l 1,19,-1
 900 100 l 1,20,-1
 900 400 l 1,21,-1
 800 400 l 1,22,-1
 800 500 l 1,23,-1
 700 500 l 1,24,-1
 700 600 l 1,25,-1
 600 600 l 1,26,-1
 600 700 l 1,27,-1
 500 700 l 1,28,-1
 500 800 l 1,29,-1
 400 800 l 1,30,-1
 400 900 l 1,31,-1
 300 900 l 1,0,-1
EndSplineSet
Validated: 1
EndChar

StartChar: O
Encoding: 79 79 50
Width: 1200
Flags: W
LayerCount: 2
Fore
SplineSet
800 1300 m 1,0,-1
 400 1300 l 1,1,-1
 400 1200 l 1,2,-1
 300 1200 l 1,3,-1
 300 400 l 1,4,-1
 400 400 l 1,5,-1
 400 300 l 1,6,-1
 800 300 l 1,7,-1
 800 400 l 1,8,-1
 900 400 l 1,9,-1
 900 1200 l 1,10,-1
 800 1200 l 1,11,-1
 800 1300 l 1,0,-1
300 1400 m 1,12,-1
 300 1500 l 1,13,-1
 900 1500 l 1,14,-1
 900 1400 l 1,15,-1
 1000 1400 l 1,16,-1
 1000 1300 l 1,17,-1
 1100 1300 l 1,18,-1
 1100 300 l 1,19,-1
 1000 300 l 1,20,-1
 1000 200 l 1,21,-1
 900 200 l 1,22,-1
 900 100 l 1,23,-1
 300 100 l 1,24,-1
 300 200 l 1,25,-1
 200 200 l 1,26,-1
 200 300 l 1,27,-1
 100 300 l 1,28,-1
 100 1300 l 1,29,-1
 200 1300 l 1,30,-1
 200 1400 l 1,31,-1
 300 1400 l 1,12,-1
EndSplineSet
Validated: 1
EndChar

StartChar: P
Encoding: 80 80 51
Width: 1200
Flags: W
LayerCount: 2
Fore
SplineSet
300 1300 m 1,0,-1
 300 900 l 1,1,-1
 800 900 l 1,2,-1
 800 1000 l 1,3,-1
 900 1000 l 1,4,-1
 900 1200 l 1,5,-1
 800 1200 l 1,6,-1
 800 1300 l 1,7,-1
 300 1300 l 1,0,-1
300 700 m 1,8,-1
 300 100 l 1,9,-1
 100 100 l 1,10,-1
 100 1500 l 1,11,-1
 900 1500 l 1,12,-1
 900 1400 l 1,13,-1
 1000 1400 l 1,14,-1
 1000 1300 l 1,15,-1
 1100 1300 l 1,16,-1
 1100 900 l 1,17,-1
 1000 900 l 1,18,-1
 1000 800 l 1,19,-1
 900 800 l 1,20,-1
 900 700 l 1,21,-1
 300 700 l 1,8,-1
EndSplineSet
Validated: 1
EndChar

StartChar: Q
Encoding: 81 81 52
Width: 1200
Flags: W
LayerCount: 2
Fore
SplineSet
300 1200 m 1,0,-1
 300 400 l 1,1,-1
 400 400 l 1,2,-1
 400 300 l 1,3,-1
 700 300 l 1,4,-1
 700 400 l 1,5,-1
 600 400 l 1,6,-1
 600 500 l 1,7,-1
 500 500 l 1,8,-1
 500 700 l 1,9,-1
 700 700 l 1,10,-1
 700 600 l 1,11,-1
 800 600 l 1,12,-1
 800 500 l 1,13,-1
 900 500 l 1,14,-1
 900 1200 l 1,15,-1
 800 1200 l 1,16,-1
 800 1300 l 1,17,-1
 400 1300 l 1,18,-1
 400 1200 l 1,19,-1
 300 1200 l 1,0,-1
200 300 m 1,20,-1
 100 300 l 1,21,-1
 100 1300 l 1,22,-1
 200 1300 l 1,23,-1
 200 1400 l 1,24,-1
 300 1400 l 1,25,-1
 300 1500 l 1,26,-1
 900 1500 l 1,27,-1
 900 1400 l 1,28,-1
 1000 1400 l 1,29,-1
 1000 1300 l 1,30,-1
 1100 1300 l 1,31,-1
 1100 400 l 1,32,-1
 1000 400 l 1,33,-1
 1000 300 l 1,34,-1
 1100 300 l 1,35,-1
 1100 100 l 1,36,-1
 900 100 l 1,37,-1
 900 200 l 1,38,-1
 700 200 l 1,39,-1
 700 100 l 1,40,-1
 300 100 l 1,41,-1
 300 200 l 1,42,-1
 200 200 l 1,43,-1
 200 300 l 1,20,-1
EndSplineSet
Validated: 1
EndChar

StartChar: R
Encoding: 82 82 53
Width: 1200
Flags: W
LayerCount: 2
Fore
SplineSet
300 1300 m 1,0,-1
 300 900 l 1,1,-1
 800 900 l 1,2,-1
 800 1000 l 1,3,-1
 900 1000 l 1,4,-1
 900 1200 l 1,5,-1
 800 1200 l 1,6,-1
 800 1300 l 1,7,-1
 300 1300 l 1,0,-1
400 700 m 1,8,-1
 300 700 l 1,9,-1
 300 100 l 1,10,-1
 100 100 l 1,11,-1
 100 1500 l 1,12,-1
 900 1500 l 1,13,-1
 900 1400 l 1,14,-1
 1000 1400 l 1,15,-1
 1000 1300 l 1,16,-1
 1100 1300 l 1,17,-1
 1100 900 l 1,18,-1
 1000 900 l 1,19,-1
 1000 800 l 1,20,-1
 900 800 l 1,21,-1
 900 700 l 1,22,-1
 700 700 l 1,23,-1
 700 600 l 1,24,-1
 800 600 l 1,25,-1
 800 500 l 1,26,-1
 900 500 l 1,27,-1
 900 400 l 1,28,-1
 1000 400 l 1,29,-1
 1000 300 l 1,30,-1
 1100 300 l 1,31,-1
 1100 100 l 1,32,-1
 900 100 l 1,33,-1
 900 200 l 1,34,-1
 800 200 l 1,35,-1
 800 300 l 1,36,-1
 700 300 l 1,37,-1
 700 400 l 1,38,-1
 600 400 l 1,39,-1
 600 500 l 1,40,-1
 500 500 l 1,41,-1
 500 600 l 1,42,-1
 400 600 l 1,43,-1
 400 700 l 1,8,-1
EndSplineSet
Validated: 1
EndChar

StartChar: S
Encoding: 83 83 54
Width: 1200
Flags: W
LayerCount: 2
Fore
SplineSet
1000 1300 m 1,0,-1
 1100 1300 l 1,1,-1
 1100 1100 l 1,2,-1
 900 1100 l 1,3,-1
 900 1200 l 1,4,-1
 800 1200 l 1,5,-1
 800 1300 l 1,6,-1
 400 1300 l 1,7,-1
 400 1200 l 1,8,-1
 300 1200 l 1,9,-1
 300 1000 l 1,10,-1
 400 1000 l 1,11,-1
 400 900 l 1,12,-1
 900 900 l 1,13,-1
 900 800 l 1,14,-1
 1000 800 l 1,15,-1
 1000 700 l 1,16,-1
 1100 700 l 1,17,-1
 1100 300 l 1,18,-1
 1000 300 l 1,19,-1
 1000 200 l 1,20,-1
 900 200 l 1,21,-1
 900 100 l 1,22,-1
 300 100 l 1,23,-1
 300 200 l 1,24,-1
 200 200 l 1,25,-1
 200 300 l 1,26,-1
 100 300 l 1,27,-1
 100 500 l 1,28,-1
 300 500 l 1,29,-1
 300 400 l 1,30,-1
 400 400 l 1,31,-1
 400 300 l 1,32,-1
 800 300 l 1,33,-1
 800 400 l 1,34,-1
 900 400 l 1,35,-1
 900 600 l 1,36,-1
 800 600 l 1,37,-1
 800 700 l 1,38,-1
 300 700 l 1,39,-1
 300 800 l 1,40,-1
 200 800 l 1,41,-1
 200 900 l 1,42,-1
 100 900 l 1,43,-1
 100 1300 l 1,44,-1
 200 1300 l 1,45,-1
 200 1400 l 1,46,-1
 300 1400 l 1,47,-1
 300 1500 l 1,48,-1
 900 1500 l 1,49,-1
 900 1400 l 1,50,-1
 1000 1400 l 1,51,-1
 1000 1300 l 1,0,-1
EndSplineSet
Validated: 1
EndChar

StartChar: T
Encoding: 84 84 55
Width: 1200
Flags: W
LayerCount: 2
Fore
SplineSet
500 1300 m 1,0,-1
 100 1300 l 1,1,-1
 100 1500 l 1,2,-1
 1100 1500 l 1,3,-1
 1100 1300 l 1,4,-1
 700 1300 l 1,5,-1
 700 100 l 1,6,-1
 500 100 l 1,7,-1
 500 1300 l 1,0,-1
EndSplineSet
Validated: 1
EndChar

StartChar: U
Encoding: 85 85 56
Width: 1200
Flags: W
LayerCount: 2
Fore
SplineSet
200 300 m 1,0,-1
 100 300 l 1,1,-1
 100 1500 l 1,2,-1
 300 1500 l 1,3,-1
 300 400 l 1,4,-1
 400 400 l 1,5,-1
 400 300 l 1,6,-1
 800 300 l 1,7,-1
 800 400 l 1,8,-1
 900 400 l 1,9,-1
 900 1500 l 1,10,-1
 1100 1500 l 1,11,-1
 1100 300 l 1,12,-1
 1000 300 l 1,13,-1
 1000 200 l 1,14,-1
 900 200 l 1,15,-1
 900 100 l 1,16,-1
 300 100 l 1,17,-1
 300 200 l 1,18,-1
 200 200 l 1,19,-1
 200 300 l 1,0,-1
EndSplineSet
Validated: 1
EndChar

StartChar: V
Encoding: 86 86 57
Width: 1200
Flags: W
LayerCount: 2
Fore
SplineSet
200 500 m 1,0,-1
 100 500 l 1,1,-1
 100 1500 l 1,2,-1
 300 1500 l 1,3,-1
 300 600 l 1,4,-1
 400 600 l 1,5,-1
 400 500 l 1,6,-1
 500 500 l 1,7,-1
 500 400 l 1,8,-1
 700 400 l 1,9,-1
 700 500 l 1,10,-1
 800 500 l 1,11,-1
 800 600 l 1,12,-1
 900 600 l 1,13,-1
 900 1500 l 1,14,-1
 1100 1500 l 1,15,-1
 1100 500 l 1,16,-1
 1000 500 l 1,17,-1
 1000 400 l 1,18,-1
 900 400 l 1,19,-1
 900 300 l 1,20,-1
 800 300 l 1,21,-1
 800 200 l 1,22,-1
 700 200 l 1,23,-1
 700 100 l 1,24,-1
 500 100 l 1,25,-1
 500 200 l 1,26,-1
 400 200 l 1,27,-1
 400 300 l 1,28,-1
 300 300 l 1,29,-1
 300 400 l 1,30,-1
 200 400 l 1,31,-1
 200 500 l 1,0,-1
EndSplineSet
Validated: 1
EndChar

StartChar: W
Encoding: 87 87 58
Width: 1200
Flags: W
LayerCount: 2
Fore
SplineSet
100 1500 m 1,0,-1
 300 1500 l 1,1,-1
 300 400 l 1,2,-1
 500 400 l 1,3,-1
 500 900 l 1,4,-1
 700 900 l 1,5,-1
 700 400 l 1,6,-1
 900 400 l 1,7,-1
 900 1500 l 1,8,-1
 1100 1500 l 1,9,-1
 1100 300 l 1,10,-1
 1000 300 l 1,11,-1
 1000 200 l 1,12,-1
 900 200 l 1,13,-1
 900 100 l 1,14,-1
 700 100 l 1,15,-1
 700 200 l 1,16,-1
 500 200 l 1,17,-1
 500 100 l 1,18,-1
 300 100 l 1,19,-1
 300 200 l 1,20,-1
 200 200 l 1,21,-1
 200 300 l 1,22,-1
 100 300 l 1,23,-1
 100 1500 l 1,0,-1
EndSplineSet
Validated: 1
EndChar

StartChar: X
Encoding: 88 88 59
Width: 1200
Flags: W
LayerCount: 2
Fore
SplineSet
300 400 m 1,0,-1
 300 100 l 1,1,-1
 100 100 l 1,2,-1
 100 500 l 1,3,-1
 200 500 l 1,4,-1
 200 600 l 1,5,-1
 300 600 l 1,6,-1
 300 700 l 1,7,-1
 400 700 l 1,8,-1
 400 900 l 1,9,-1
 300 900 l 1,10,-1
 300 1000 l 1,11,-1
 200 1000 l 1,12,-1
 200 1100 l 1,13,-1
 100 1100 l 1,14,-1
 100 1500 l 1,15,-1
 300 1500 l 1,16,-1
 300 1200 l 1,17,-1
 400 1200 l 1,18,-1
 400 1100 l 1,19,-1
 500 1100 l 1,20,-1
 500 1000 l 1,21,-1
 700 1000 l 1,22,-1
 700 1100 l 1,23,-1
 800 1100 l 1,24,-1
 800 1200 l 1,25,-1
 900 1200 l 1,26,-1
 900 1500 l 1,27,-1
 1100 1500 l 1,28,-1
 1100 1100 l 1,29,-1
 1000 1100 l 1,30,-1
 1000 1000 l 1,31,-1
 900 1000 l 1,32,-1
 900 900 l 1,33,-1
 800 900 l 1,34,-1
 800 700 l 1,35,-1
 900 700 l 1,36,-1
 900 600 l 1,37,-1
 1000 600 l 1,38,-1
 1000 500 l 1,39,-1
 1100 500 l 1,40,-1
 1100 100 l 1,41,-1
 900 100 l 1,42,-1
 900 400 l 1,43,-1
 800 400 l 1,44,-1
 800 500 l 1,45,-1
 700 500 l 1,46,-1
 700 600 l 1,47,-1
 500 600 l 1,48,-1
 500 500 l 1,49,-1
 400 500 l 1,50,-1
 400 400 l 1,51,-1
 300 400 l 1,0,-1
EndSplineSet
Validated: 1
EndChar

StartChar: Y
Encoding: 89 89 60
Width: 1200
Flags: W
LayerCount: 2
Fore
SplineSet
700 100 m 1,0,-1
 500 100 l 1,1,-1
 500 600 l 1,2,-1
 400 600 l 1,3,-1
 400 700 l 1,4,-1
 300 700 l 1,5,-1
 300 800 l 1,6,-1
 200 800 l 1,7,-1
 200 900 l 1,8,-1
 100 900 l 1,9,-1
 100 1500 l 1,10,-1
 300 1500 l 1,11,-1
 300 1000 l 1,12,-1
 400 1000 l 1,13,-1
 400 900 l 1,14,-1
 500 900 l 1,15,-1
 500 800 l 1,16,-1
 700 800 l 1,17,-1
 700 900 l 1,18,-1
 800 900 l 1,19,-1
 800 1000 l 1,20,-1
 900 1000 l 1,21,-1
 900 1500 l 1,22,-1
 1100 1500 l 1,23,-1
 1100 900 l 1,24,-1
 1000 900 l 1,25,-1
 1000 800 l 1,26,-1
 900 800 l 1,27,-1
 900 700 l 1,28,-1
 800 700 l 1,29,-1
 800 600 l 1,30,-1
 700 600 l 1,31,-1
 700 100 l 1,0,-1
EndSplineSet
Validated: 1
EndChar

StartChar: Z
Encoding: 90 90 61
Width: 1200
Flags: W
LayerCount: 2
Fore
SplineSet
900 1200 m 1,0,-1
 900 1300 l 1,1,-1
 100 1300 l 1,2,-1
 100 1500 l 1,3,-1
 1100 1500 l 1,4,-1
 1100 1100 l 1,5,-1
 1000 1100 l 1,6,-1
 1000 1000 l 1,7,-1
 900 1000 l 1,8,-1
 900 900 l 1,9,-1
 800 900 l 1,10,-1
 800 800 l 1,11,-1
 700 800 l 1,12,-1
 700 700 l 1,13,-1
 600 700 l 1,14,-1
 600 600 l 1,15,-1
 500 600 l 1,16,-1
 500 500 l 1,17,-1
 400 500 l 1,18,-1
 400 400 l 1,19,-1
 300 400 l 1,20,-1
 300 300 l 1,21,-1
 1100 300 l 1,22,-1
 1100 100 l 1,23,-1
 100 100 l 1,24,-1
 100 500 l 1,25,-1
 200 500 l 1,26,-1
 200 600 l 1,27,-1
 300 600 l 1,28,-1
 300 700 l 1,29,-1
 400 700 l 1,30,-1
 400 800 l 1,31,-1
 500 800 l 1,32,-1
 500 900 l 1,33,-1
 600 900 l 1,34,-1
 600 1000 l 1,35,-1
 700 1000 l 1,36,-1
 700 1100 l 1,37,-1
 800 1100 l 1,38,-1
 800 1200 l 1,39,-1
 900 1200 l 1,0,-1
EndSplineSet
Validated: 1
EndChar

StartChar: bracketleft
Encoding: 91 91 62
Width: 1200
Flags: W
LayerCount: 2
Fore
SplineSet
1000 1700 m 1,0,-1
 1000 1500 l 1,1,-1
 600 1500 l 1,2,-1
 600 300 l 1,3,-1
 1000 300 l 1,4,-1
 1000 100 l 1,5,-1
 400 100 l 1,6,-1
 400 1700 l 1,7,-1
 1000 1700 l 1,0,-1
EndSplineSet
Validated: 1
EndChar

StartChar: backslash
Encoding: 92 92 63
Width: 1200
Flags: W
LayerCount: 2
Fore
SplineSet
300 1200 m 1,0,-1
 400 1200 l 1,1,-1
 400 1100 l 1,2,-1
 500 1100 l 1,3,-1
 500 1000 l 1,4,-1
 600 1000 l 1,5,-1
 600 900 l 1,6,-1
 700 900 l 1,7,-1
 700 800 l 1,8,-1
 800 800 l 1,9,-1
 800 700 l 1,10,-1
 900 700 l 1,11,-1
 900 600 l 1,12,-1
 1000 600 l 1,13,-1
 1000 500 l 1,14,-1
 1100 500 l 1,15,-1
 1100 100 l 1,16,-1
 900 100 l 1,17,-1
 900 400 l 1,18,-1
 800 400 l 1,19,-1
 800 500 l 1,20,-1
 700 500 l 1,21,-1
 700 600 l 1,22,-1
 600 600 l 1,23,-1
 600 700 l 1,24,-1
 500 700 l 1,25,-1
 500 800 l 1,26,-1
 400 800 l 1,27,-1
 400 900 l 1,28,-1
 300 900 l 1,29,-1
 300 1000 l 1,30,-1
 200 1000 l 1,31,-1
 200 1100 l 1,32,-1
 100 1100 l 1,33,-1
 100 1500 l 1,34,-1
 300 1500 l 1,35,-1
 300 1200 l 1,0,-1
EndSplineSet
Validated: 1
EndChar

StartChar: bracketright
Encoding: 93 93 64
Width: 1200
Flags: W
LayerCount: 2
Fore
SplineSet
600 1500 m 1,0,-1
 200 1500 l 1,1,-1
 200 1700 l 1,2,-1
 800 1700 l 1,3,-1
 800 100 l 1,4,-1
 200 100 l 1,5,-1
 200 300 l 1,6,-1
 600 300 l 1,7,-1
 600 1500 l 1,0,-1
EndSplineSet
Validated: 1
EndChar

StartChar: asciicircum
Encoding: 94 94 65
Width: 1200
Flags: W
LayerCount: 2
Fore
SplineSet
700 1500 m 1,0,-1
 700 1400 l 1,1,-1
 800 1400 l 1,2,-1
 800 1300 l 1,3,-1
 900 1300 l 1,4,-1
 900 1200 l 1,5,-1
 1000 1200 l 1,6,-1
 1000 1100 l 1,7,-1
 1100 1100 l 1,8,-1
 1100 1000 l 1,9,-1
 800 1000 l 1,10,-1
 800 1100 l 1,11,-1
 700 1100 l 1,12,-1
 700 1200 l 1,13,-1
 500 1200 l 1,14,-1
 500 1100 l 1,15,-1
 400 1100 l 1,16,-1
 400 1000 l 1,17,-1
 100 1000 l 1,18,-1
 100 1100 l 1,19,-1
 200 1100 l 1,20,-1
 200 1200 l 1,21,-1
 300 1200 l 1,22,-1
 300 1300 l 1,23,-1
 400 1300 l 1,24,-1
 400 1400 l 1,25,-1
 500 1400 l 1,26,-1
 500 1500 l 1,27,-1
 700 1500 l 1,0,-1
EndSplineSet
Validated: 1
EndChar

StartChar: underscore
Encoding: 95 95 66
Width: 1200
Flags: W
LayerCount: 2
Fore
SplineSet
0 0 m 1,0,-1
 0 200 l 1,1,-1
 1200 200 l 1,2,-1
 1200 0 l 1,3,-1
 0 0 l 1,0,-1
EndSplineSet
Validated: 1
EndChar

StartChar: grave
Encoding: 96 96 67
Width: 1200
Flags: W
LayerCount: 2
Fore
SplineSet
600 1500 m 1,0,-1
 600 1400 l 1,1,-1
 700 1400 l 1,2,-1
 700 1300 l 1,3,-1
 800 1300 l 1,4,-1
 800 1200 l 1,5,-1
 600 1200 l 1,6,-1
 600 1300 l 1,7,-1
 400 1300 l 1,8,-1
 400 1400 l 1,9,-1
 300 1400 l 1,10,-1
 300 1500 l 1,11,-1
 600 1500 l 1,0,-1
EndSplineSet
Validated: 1
EndChar

StartChar: a
Encoding: 97 97 68
Width: 1200
Flags: W
LayerCount: 2
Fore
SplineSet
400 300 m 1,0,-1
 800 300 l 1,1,-1
 800 400 l 1,2,-1
 900 400 l 1,3,-1
 900 600 l 1,4,-1
 800 600 l 1,5,-1
 800 700 l 1,6,-1
 400 700 l 1,7,-1
 400 600 l 1,8,-1
 300 600 l 1,9,-1
 300 400 l 1,10,-1
 400 400 l 1,11,-1
 400 300 l 1,0,-1
300 100 m 1,12,-1
 300 200 l 1,13,-1
 200 200 l 1,14,-1
 200 300 l 1,15,-1
 100 300 l 1,16,-1
 100 700 l 1,17,-1
 200 700 l 1,18,-1
 200 800 l 1,19,-1
 300 800 l 1,20,-1
 300 900 l 1,21,-1
 800 900 l 1,22,-1
 800 800 l 1,23,-1
 900 800 l 1,24,-1
 900 1000 l 1,25,-1
 800 1000 l 1,26,-1
 800 1100 l 1,27,-1
 300 1100 l 1,28,-1
 300 1300 l 1,29,-1
 900 1300 l 1,30,-1
 900 1200 l 1,31,-1
 1000 1200 l 1,32,-1
 1000 1100 l 1,33,-1
 1100 1100 l 1,34,-1
 1100 100 l 1,35,-1
 900 100 l 1,36,-1
 900 200 l 1,37,-1
 800 200 l 1,38,-1
 800 100 l 1,39,-1
 300 100 l 1,12,-1
EndSplineSet
Validated: 1
EndChar

StartChar: b
Encoding: 98 98 69
Width: 1200
Flags: W
LayerCount: 2
Fore
SplineSet
600 300 m 1,0,-1
 700 300 l 1,1,-1
 700 400 l 1,2,-1
 800 400 l 1,3,-1
 800 500 l 1,4,-1
 900 500 l 1,5,-1
 900 800 l 1,6,-1
 800 800 l 1,7,-1
 800 900 l 1,8,-1
 700 900 l 1,9,-1
 700 1000 l 1,10,-1
 600 1000 l 1,11,-1
 600 900 l 1,12,-1
 500 900 l 1,13,-1
 500 800 l 1,14,-1
 400 800 l 1,15,-1
 400 500 l 1,16,-1
 500 500 l 1,17,-1
 500 400 l 1,18,-1
 600 400 l 1,19,-1
 600 300 l 1,0,-1
300 300 m 1,20,-1
 300 100 l 1,21,-1
 100 100 l 1,22,-1
 100 1500 l 1,23,-1
 300 1500 l 1,24,-1
 300 1000 l 1,25,-1
 400 1000 l 1,26,-1
 400 1100 l 1,27,-1
 500 1100 l 1,28,-1
 500 1200 l 1,29,-1
 800 1200 l 1,30,-1
 800 1100 l 1,31,-1
 900 1100 l 1,32,-1
 900 1000 l 1,33,-1
 1000 1000 l 1,34,-1
 1000 900 l 1,35,-1
 1100 900 l 1,36,-1
 1100 400 l 1,37,-1
 1000 400 l 1,38,-1
 1000 300 l 1,39,-1
 900 300 l 1,40,-1
 900 200 l 1,41,-1
 800 200 l 1,42,-1
 800 100 l 1,43,-1
 500 100 l 1,44,-1
 500 200 l 1,45,-1
 400 200 l 1,46,-1
 400 300 l 1,47,-1
 300 300 l 1,20,-1
EndSplineSet
Validated: 1
EndChar

StartChar: c
Encoding: 99 99 70
Width: 1200
Flags: W
LayerCount: 2
Fore
SplineSet
900 400 m 1,0,-1
 900 500 l 1,1,-1
 1100 500 l 1,2,-1
 1100 300 l 1,3,-1
 1000 300 l 1,4,-1
 1000 200 l 1,5,-1
 900 200 l 1,6,-1
 900 100 l 1,7,-1
 300 100 l 1,8,-1
 300 200 l 1,9,-1
 200 200 l 1,10,-1
 200 300 l 1,11,-1
 100 300 l 1,12,-1
 100 1000 l 1,13,-1
 200 1000 l 1,14,-1
 200 1100 l 1,15,-1
 300 1100 l 1,16,-1
 300 1200 l 1,17,-1
 900 1200 l 1,18,-1
 900 1100 l 1,19,-1
 1000 1100 l 1,20,-1
 1000 1000 l 1,21,-1
 1100 1000 l 1,22,-1
 1100 800 l 1,23,-1
 900 800 l 1,24,-1
 900 900 l 1,25,-1
 800 900 l 1,26,-1
 800 1000 l 1,27,-1
 400 1000 l 1,28,-1
 400 900 l 1,29,-1
 300 900 l 1,30,-1
 300 400 l 1,31,-1
 400 400 l 1,32,-1
 400 300 l 1,33,-1
 800 300 l 1,34,-1
 800 400 l 1,35,-1
 900 400 l 1,0,-1
EndSplineSet
Validated: 1
EndChar

StartChar: d
Encoding: 100 100 71
Width: 1200
Flags: W
LayerCount: 2
Fore
SplineSet
900 1000 m 1,0,-1
 900 1500 l 1,1,-1
 1100 1500 l 1,2,-1
 1100 100 l 1,3,-1
 900 100 l 1,4,-1
 900 300 l 1,5,-1
 800 300 l 1,6,-1
 800 200 l 1,7,-1
 700 200 l 1,8,-1
 700 100 l 1,9,-1
 400 100 l 1,10,-1
 400 200 l 1,11,-1
 300 200 l 1,12,-1
 300 300 l 1,13,-1
 200 300 l 1,14,-1
 200 400 l 1,15,-1
 100 400 l 1,16,-1
 100 900 l 1,17,-1
 200 900 l 1,18,-1
 200 1000 l 1,19,-1
 300 1000 l 1,20,-1
 300 1100 l 1,21,-1
 400 1100 l 1,22,-1
 400 1200 l 1,23,-1
 700 1200 l 1,24,-1
 700 1100 l 1,25,-1
 800 1100 l 1,26,-1
 800 1000 l 1,27,-1
 900 1000 l 1,0,-1
400 400 m 1,28,-1
 500 400 l 1,29,-1
 500 300 l 1,30,-1
 600 300 l 1,31,-1
 600 400 l 1,32,-1
 700 400 l 1,33,-1
 700 500 l 1,34,-1
 800 500 l 1,35,-1
 800 800 l 1,36,-1
 700 800 l 1,37,-1
 700 900 l 1,38,-1
 600 900 l 1,39,-1
 600 1000 l 1,40,-1
 500 1000 l 1,41,-1
 500 900 l 1,42,-1
 400 900 l 1,43,-1
 400 800 l 1,44,-1
 300 800 l 1,45,-1
 300 500 l 1,46,-1
 400 500 l 1,47,-1
 400 400 l 1,28,-1
EndSplineSet
Validated: 1
EndChar

StartChar: e
Encoding: 101 101 72
Width: 1200
Flags: W
LayerCount: 2
Fore
SplineSet
300 900 m 1,0,-1
 300 800 l 1,1,-1
 900 800 l 1,2,-1
 900 900 l 1,3,-1
 800 900 l 1,4,-1
 800 1000 l 1,5,-1
 400 1000 l 1,6,-1
 400 900 l 1,7,-1
 300 900 l 1,0,-1
1100 400 m 1,8,-1
 1100 300 l 1,9,-1
 1000 300 l 1,10,-1
 1000 200 l 1,11,-1
 900 200 l 1,12,-1
 900 100 l 1,13,-1
 300 100 l 1,14,-1
 300 200 l 1,15,-1
 200 200 l 1,16,-1
 200 300 l 1,17,-1
 100 300 l 1,18,-1
 100 1000 l 1,19,-1
 200 1000 l 1,20,-1
 200 1100 l 1,21,-1
 300 1100 l 1,22,-1
 300 1200 l 1,23,-1
 900 1200 l 1,24,-1
 900 1100 l 1,25,-1
 1000 1100 l 1,26,-1
 1000 1000 l 1,27,-1
 1100 1000 l 1,28,-1
 1100 700 l 1,29,-1
 1000 700 l 1,30,-1
 1000 600 l 1,31,-1
 300 600 l 1,32,-1
 300 400 l 1,33,-1
 400 400 l 1,34,-1
 400 300 l 1,35,-1
 800 300 l 1,36,-1
 800 400 l 1,37,-1
 1100 400 l 1,8,-1
EndSplineSet
Validated: 1
EndChar

StartChar: f
Encoding: 102 102 73
Width: 1200
Flags: W
LayerCount: 2
Fore
SplineSet
700 100 m 1,0,-1
 500 100 l 1,1,-1
 500 1000 l 1,2,-1
 200 1000 l 1,3,-1
 200 1200 l 1,4,-1
 500 1200 l 1,5,-1
 500 1400 l 1,6,-1
 600 1400 l 1,7,-1
 600 1500 l 1,8,-1
 1000 1500 l 1,9,-1
 1000 1300 l 1,10,-1
 700 1300 l 1,11,-1
 700 1200 l 1,12,-1
 1000 1200 l 1,13,-1
 1000 1000 l 1,14,-1
 700 1000 l 1,15,-1
 700 100 l 1,0,-1
EndSplineSet
Validated: 1
EndChar

StartChar: g
Encoding: 103 103 74
Width: 1200
Flags: W
LayerCount: 2
Fore
SplineSet
900 900 m 1,0,-1
 900 1000 l 1,1,-1
 800 1000 l 1,2,-1
 800 1100 l 1,3,-1
 400 1100 l 1,4,-1
 400 1000 l 1,5,-1
 300 1000 l 1,6,-1
 300 900 l 1,7,-1
 400 900 l 1,8,-1
 400 800 l 1,9,-1
 800 800 l 1,10,-1
 800 900 l 1,11,-1
 900 900 l 1,0,-1
300 200 m 1,12,-1
 200 200 l 1,13,-1
 200 400 l 1,14,-1
 400 400 l 1,15,-1
 400 300 l 1,16,-1
 800 300 l 1,17,-1
 800 400 l 1,18,-1
 900 400 l 1,19,-1
 900 700 l 1,20,-1
 800 700 l 1,21,-1
 800 600 l 1,22,-1
 300 600 l 1,23,-1
 300 700 l 1,24,-1
 200 700 l 1,25,-1
 200 800 l 1,26,-1
 100 800 l 1,27,-1
 100 1100 l 1,28,-1
 200 1100 l 1,29,-1
 200 1200 l 1,30,-1
 300 1200 l 1,31,-1
 300 1300 l 1,32,-1
 900 1300 l 1,33,-1
 900 1200 l 1,34,-1
 1000 1200 l 1,35,-1
 1000 1100 l 1,36,-1
 1100 1100 l 1,37,-1
 1100 300 l 1,38,-1
 1000 300 l 1,39,-1
 1000 200 l 1,40,-1
 900 200 l 1,41,-1
 900 100 l 1,42,-1
 300 100 l 1,43,-1
 300 200 l 1,12,-1
EndSplineSet
Validated: 1
EndChar

StartChar: h
Encoding: 104 104 75
Width: 1200
Flags: W
LayerCount: 2
Fore
SplineSet
300 700 m 1,0,-1
 300 100 l 1,1,-1
 100 100 l 1,2,-1
 100 1500 l 1,3,-1
 300 1500 l 1,4,-1
 300 1000 l 1,5,-1
 400 1000 l 1,6,-1
 400 1100 l 1,7,-1
 500 1100 l 1,8,-1
 500 1200 l 1,9,-1
 800 1200 l 1,10,-1
 800 1100 l 1,11,-1
 900 1100 l 1,12,-1
 900 1000 l 1,13,-1
 1000 1000 l 1,14,-1
 1000 900 l 1,15,-1
 1100 900 l 1,16,-1
 1100 100 l 1,17,-1
 900 100 l 1,18,-1
 900 800 l 1,19,-1
 800 800 l 1,20,-1
 800 900 l 1,21,-1
 700 900 l 1,22,-1
 700 1000 l 1,23,-1
 600 1000 l 1,24,-1
 600 900 l 1,25,-1
 500 900 l 1,26,-1
 500 800 l 1,27,-1
 400 800 l 1,28,-1
 400 700 l 1,29,-1
 300 700 l 1,0,-1
EndSplineSet
Validated: 1
EndChar

StartChar: i
Encoding: 105 105 76
Width: 1200
Flags: W
LayerCount: 2
Fore
SplineSet
700 1400 m 1,0,-1
 700 1200 l 1,1,-1
 500 1200 l 1,2,-1
 500 1400 l 1,3,-1
 700 1400 l 1,0,-1
800 300 m 1,4,-1
 900 300 l 1,5,-1
 900 100 l 1,6,-1
 700 100 l 1,7,-1
 700 200 l 1,8,-1
 600 200 l 1,9,-1
 600 300 l 1,10,-1
 500 300 l 1,11,-1
 500 800 l 1,12,-1
 300 800 l 1,13,-1
 300 1000 l 1,14,-1
 700 1000 l 1,15,-1
 700 400 l 1,16,-1
 800 400 l 1,17,-1
 800 300 l 1,4,-1
EndSplineSet
Validated: 1
EndChar

StartChar: j
Encoding: 106 106 77
Width: 1200
Flags: W
LayerCount: 2
Fore
SplineSet
900 1600 m 1,0,-1
 900 1400 l 1,1,-1
 700 1400 l 1,2,-1
 700 1600 l 1,3,-1
 900 1600 l 1,0,-1
900 300 m 1,4,-1
 800 300 l 1,5,-1
 800 200 l 1,6,-1
 700 200 l 1,7,-1
 700 100 l 1,8,-1
 300 100 l 1,9,-1
 300 300 l 1,10,-1
 600 300 l 1,11,-1
 600 400 l 1,12,-1
 700 400 l 1,13,-1
 700 1000 l 1,14,-1
 500 1000 l 1,15,-1
 500 1200 l 1,16,-1
 900 1200 l 1,17,-1
 900 300 l 1,4,-1
EndSplineSet
Validated: 1
EndChar

StartChar: k
Encoding: 107 107 78
Width: 1200
Flags: W
LayerCount: 2
Fore
SplineSet
300 300 m 1,0,-1
 300 100 l 1,1,-1
 100 100 l 1,2,-1
 100 1500 l 1,3,-1
 300 1500 l 1,4,-1
 300 600 l 1,5,-1
 400 600 l 1,6,-1
 400 700 l 1,7,-1
 500 700 l 1,8,-1
 500 800 l 1,9,-1
 600 800 l 1,10,-1
 600 900 l 1,11,-1
 700 900 l 1,12,-1
 700 1000 l 1,13,-1
 800 1000 l 1,14,-1
 800 1100 l 1,15,-1
 900 1100 l 1,16,-1
 900 1200 l 1,17,-1
 1100 1200 l 1,18,-1
 1100 1000 l 1,19,-1
 1000 1000 l 1,20,-1
 1000 900 l 1,21,-1
 900 900 l 1,22,-1
 900 800 l 1,23,-1
 800 800 l 1,24,-1
 800 700 l 1,25,-1
 700 700 l 1,26,-1
 700 600 l 1,27,-1
 800 600 l 1,28,-1
 800 500 l 1,29,-1
 900 500 l 1,30,-1
 900 400 l 1,31,-1
 1000 400 l 1,32,-1
 1000 300 l 1,33,-1
 1100 300 l 1,34,-1
 1100 100 l 1,35,-1
 900 100 l 1,36,-1
 900 200 l 1,37,-1
 800 200 l 1,38,-1
 800 300 l 1,39,-1
 700 300 l 1,40,-1
 700 400 l 1,41,-1
 600 400 l 1,42,-1
 600 500 l 1,43,-1
 500 500 l 1,44,-1
 500 400 l 1,45,-1
 400 400 l 1,46,-1
 400 300 l 1,47,-1
 300 300 l 1,0,-1
EndSplineSet
Validated: 1
EndChar

StartChar: l
Encoding: 108 108 79
Width: 1200
Flags: W
LayerCount: 2
Fore
SplineSet
700 1500 m 1,0,-1
 700 100 l 1,1,-1
 500 100 l 1,2,-1
 500 1500 l 1,3,-1
 700 1500 l 1,0,-1
EndSplineSet
Validated: 1
EndChar

StartChar: m
Encoding: 109 109 80
Width: 1200
Flags: W
LayerCount: 2
Fore
SplineSet
300 900 m 1,0,-1
 300 100 l 1,1,-1
 100 100 l 1,2,-1
 100 1200 l 1,3,-1
 300 1200 l 1,4,-1
 300 1100 l 1,5,-1
 400 1100 l 1,6,-1
 400 1200 l 1,7,-1
 900 1200 l 1,8,-1
 900 1100 l 1,9,-1
 1000 1100 l 1,10,-1
 1000 1000 l 1,11,-1
 1100 1000 l 1,12,-1
 1100 100 l 1,13,-1
 900 100 l 1,14,-1
 900 900 l 1,15,-1
 800 900 l 1,16,-1
 800 1000 l 1,17,-1
 700 1000 l 1,18,-1
 700 100 l 1,19,-1
 500 100 l 1,20,-1
 500 1000 l 1,21,-1
 400 1000 l 1,22,-1
 400 900 l 1,23,-1
 300 900 l 1,0,-1
EndSplineSet
Validated: 1
EndChar

StartChar: n
Encoding: 110 110 81
Width: 1200
Flags: W
LayerCount: 2
Fore
SplineSet
300 900 m 1,0,-1
 300 100 l 1,1,-1
 100 100 l 1,2,-1
 100 1200 l 1,3,-1
 300 1200 l 1,4,-1
 300 1100 l 1,5,-1
 400 1100 l 1,6,-1
 400 1200 l 1,7,-1
 900 1200 l 1,8,-1
 900 1100 l 1,9,-1
 1000 1100 l 1,10,-1
 1000 1000 l 1,11,-1
 1100 1000 l 1,12,-1
 1100 100 l 1,13,-1
 900 100 l 1,14,-1
 900 900 l 1,15,-1
 800 900 l 1,16,-1
 800 1000 l 1,17,-1
 400 1000 l 1,18,-1
 400 900 l 1,19,-1
 300 900 l 1,0,-1
EndSplineSet
Validated: 1
EndChar

StartChar: o
Encoding: 111 111 82
Width: 1200
Flags: W
LayerCount: 2
Fore
SplineSet
400 300 m 1,0,-1
 800 300 l 1,1,-1
 800 400 l 1,2,-1
 900 400 l 1,3,-1
 900 900 l 1,4,-1
 800 900 l 1,5,-1
 800 1000 l 1,6,-1
 400 1000 l 1,7,-1
 400 900 l 1,8,-1
 300 900 l 1,9,-1
 300 400 l 1,10,-1
 400 400 l 1,11,-1
 400 300 l 1,0,-1
300 100 m 1,12,-1
 300 200 l 1,13,-1
 200 200 l 1,14,-1
 200 300 l 1,15,-1
 100 300 l 1,16,-1
 100 1000 l 1,17,-1
 200 1000 l 1,18,-1
 200 1100 l 1,19,-1
 300 1100 l 1,20,-1
 300 1200 l 1,21,-1
 900 1200 l 1,22,-1
 900 1100 l 1,23,-1
 1000 1100 l 1,24,-1
 1000 1000 l 1,25,-1
 1100 1000 l 1,26,-1
 1100 300 l 1,27,-1
 1000 300 l 1,28,-1
 1000 200 l 1,29,-1
 900 200 l 1,30,-1
 900 100 l 1,31,-1
 300 100 l 1,12,-1
EndSplineSet
Validated: 1
EndChar

StartChar: p
Encoding: 112 112 83
Width: 1200
Flags: W
LayerCount: 2
Fore
SplineSet
900 1000 m 1,0,-1
 800 1000 l 1,1,-1
 800 1100 l 1,2,-1
 500 1100 l 1,3,-1
 500 1000 l 1,4,-1
 400 1000 l 1,5,-1
 400 700 l 1,6,-1
 500 700 l 1,7,-1
 500 600 l 1,8,-1
 800 600 l 1,9,-1
 800 700 l 1,10,-1
 900 700 l 1,11,-1
 900 1000 l 1,0,-1
300 500 m 1,12,-1
 300 100 l 1,13,-1
 100 100 l 1,14,-1
 100 1300 l 1,15,-1
 300 1300 l 1,16,-1
 300 1200 l 1,17,-1
 400 1200 l 1,18,-1
 400 1300 l 1,19,-1
 900 1300 l 1,20,-1
 900 1200 l 1,21,-1
 1000 1200 l 1,22,-1
 1000 1100 l 1,23,-1
 1100 1100 l 1,24,-1
 1100 600 l 1,25,-1
 1000 600 l 1,26,-1
 1000 500 l 1,27,-1
 900 500 l 1,28,-1
 900 400 l 1,29,-1
 400 400 l 1,30,-1
 400 500 l 1,31,-1
 300 500 l 1,12,-1
EndSplineSet
Validated: 1
EndChar

StartChar: q
Encoding: 113 113 84
Width: 1200
Flags: W
LayerCount: 2
Fore
SplineSet
300 1000 m 1,0,-1
 300 700 l 1,1,-1
 400 700 l 1,2,-1
 400 600 l 1,3,-1
 700 600 l 1,4,-1
 700 700 l 1,5,-1
 800 700 l 1,6,-1
 800 1000 l 1,7,-1
 700 1000 l 1,8,-1
 700 1100 l 1,9,-1
 400 1100 l 1,10,-1
 400 1000 l 1,11,-1
 300 1000 l 1,0,-1
900 1200 m 1,12,-1
 900 1300 l 1,13,-1
 1100 1300 l 1,14,-1
 1100 100 l 1,15,-1
 900 100 l 1,16,-1
 900 400 l 1,17,-1
 800 400 l 1,18,-1
 800 500 l 1,19,-1
 700 500 l 1,20,-1
 700 400 l 1,21,-1
 300 400 l 1,22,-1
 300 500 l 1,23,-1
 200 500 l 1,24,-1
 200 600 l 1,25,-1
 100 600 l 1,26,-1
 100 1100 l 1,27,-1
 200 1100 l 1,28,-1
 200 1200 l 1,29,-1
 300 1200 l 1,30,-1
 300 1300 l 1,31,-1
 800 1300 l 1,32,-1
 800 1200 l 1,33,-1
 900 1200 l 1,12,-1
EndSplineSet
Validated: 1
EndChar

StartChar: r
Encoding: 114 114 85
Width: 1200
Flags: W
LayerCount: 2
Fore
SplineSet
300 700 m 1,0,-1
 300 100 l 1,1,-1
 100 100 l 1,2,-1
 100 1200 l 1,3,-1
 300 1200 l 1,4,-1
 300 1000 l 1,5,-1
 400 1000 l 1,6,-1
 400 1100 l 1,7,-1
 500 1100 l 1,8,-1
 500 1200 l 1,9,-1
 900 1200 l 1,10,-1
 900 1100 l 1,11,-1
 1000 1100 l 1,12,-1
 1000 1000 l 1,13,-1
 1100 1000 l 1,14,-1
 1100 800 l 1,15,-1
 900 800 l 1,16,-1
 900 900 l 1,17,-1
 800 900 l 1,18,-1
 800 1000 l 1,19,-1
 600 1000 l 1,20,-1
 600 900 l 1,21,-1
 500 900 l 1,22,-1
 500 800 l 1,23,-1
 400 800 l 1,24,-1
 400 700 l 1,25,-1
 300 700 l 1,0,-1
EndSplineSet
Validated: 1
EndChar

StartChar: s
Encoding: 115 115 86
Width: 1200
Flags: W
LayerCount: 2
Fore
SplineSet
200 300 m 1,0,-1
 100 300 l 1,1,-1
 100 500 l 1,2,-1
 300 500 l 1,3,-1
 300 400 l 1,4,-1
 400 400 l 1,5,-1
 400 300 l 1,6,-1
 800 300 l 1,7,-1
 800 500 l 1,8,-1
 600 500 l 1,9,-1
 600 600 l 1,10,-1
 400 600 l 1,11,-1
 400 700 l 1,12,-1
 200 700 l 1,13,-1
 200 800 l 1,14,-1
 100 800 l 1,15,-1
 100 1000 l 1,16,-1
 200 1000 l 1,17,-1
 200 1100 l 1,18,-1
 300 1100 l 1,19,-1
 300 1200 l 1,20,-1
 900 1200 l 1,21,-1
 900 1100 l 1,22,-1
 1000 1100 l 1,23,-1
 1000 1000 l 1,24,-1
 1100 1000 l 1,25,-1
 1100 800 l 1,26,-1
 900 800 l 1,27,-1
 900 900 l 1,28,-1
 800 900 l 1,29,-1
 800 1000 l 1,30,-1
 400 1000 l 1,31,-1
 400 800 l 1,32,-1
 700 800 l 1,33,-1
 700 700 l 1,34,-1
 900 700 l 1,35,-1
 900 600 l 1,36,-1
 1000 600 l 1,37,-1
 1000 500 l 1,38,-1
 1100 500 l 1,39,-1
 1100 300 l 1,40,-1
 1000 300 l 1,41,-1
 1000 200 l 1,42,-1
 900 200 l 1,43,-1
 900 100 l 1,44,-1
 300 100 l 1,45,-1
 300 200 l 1,46,-1
 200 200 l 1,47,-1
 200 300 l 1,0,-1
EndSplineSet
Validated: 1
EndChar

StartChar: t
Encoding: 116 116 87
Width: 1200
Flags: W
LayerCount: 2
Fore
SplineSet
800 300 m 1,0,-1
 900 300 l 1,1,-1
 900 100 l 1,2,-1
 700 100 l 1,3,-1
 700 200 l 1,4,-1
 600 200 l 1,5,-1
 600 300 l 1,6,-1
 500 300 l 1,7,-1
 500 1000 l 1,8,-1
 300 1000 l 1,9,-1
 300 1200 l 1,10,-1
 500 1200 l 1,11,-1
 500 1500 l 1,12,-1
 700 1500 l 1,13,-1
 700 1200 l 1,14,-1
 900 1200 l 1,15,-1
 900 1000 l 1,16,-1
 700 1000 l 1,17,-1
 700 400 l 1,18,-1
 800 400 l 1,19,-1
 800 300 l 1,0,-1
EndSplineSet
Validated: 1
EndChar

StartChar: u
Encoding: 117 117 88
Width: 1200
Flags: W
LayerCount: 2
Fore
SplineSet
100 1200 m 1,0,-1
 300 1200 l 1,1,-1
 300 400 l 1,2,-1
 400 400 l 1,3,-1
 400 300 l 1,4,-1
 800 300 l 1,5,-1
 800 400 l 1,6,-1
 900 400 l 1,7,-1
 900 1200 l 1,8,-1
 1100 1200 l 1,9,-1
 1100 300 l 1,10,-1
 1000 300 l 1,11,-1
 1000 200 l 1,12,-1
 900 200 l 1,13,-1
 900 100 l 1,14,-1
 300 100 l 1,15,-1
 300 200 l 1,16,-1
 200 200 l 1,17,-1
 200 300 l 1,18,-1
 100 300 l 1,19,-1
 100 1200 l 1,0,-1
EndSplineSet
Validated: 1
EndChar

StartChar: v
Encoding: 118 118 89
Width: 1200
Flags: W
LayerCount: 2
Fore
SplineSet
100 1200 m 1,0,-1
 300 1200 l 1,1,-1
 300 600 l 1,2,-1
 400 600 l 1,3,-1
 400 500 l 1,4,-1
 500 500 l 1,5,-1
 500 400 l 1,6,-1
 700 400 l 1,7,-1
 700 500 l 1,8,-1
 800 500 l 1,9,-1
 800 600 l 1,10,-1
 900 600 l 1,11,-1
 900 1200 l 1,12,-1
 1100 1200 l 1,13,-1
 1100 500 l 1,14,-1
 1000 500 l 1,15,-1
 1000 400 l 1,16,-1
 900 400 l 1,17,-1
 900 300 l 1,18,-1
 800 300 l 1,19,-1
 800 200 l 1,20,-1
 700 200 l 1,21,-1
 700 100 l 1,22,-1
 500 100 l 1,23,-1
 500 200 l 1,24,-1
 400 200 l 1,25,-1
 400 300 l 1,26,-1
 300 300 l 1,27,-1
 300 400 l 1,28,-1
 200 400 l 1,29,-1
 200 500 l 1,30,-1
 100 500 l 1,31,-1
 100 1200 l 1,0,-1
EndSplineSet
Validated: 1
EndChar

StartChar: w
Encoding: 119 119 90
Width: 1200
Flags: W
LayerCount: 2
Fore
SplineSet
100 1200 m 1,0,-1
 300 1200 l 1,1,-1
 300 400 l 1,2,-1
 400 400 l 1,3,-1
 400 300 l 1,4,-1
 500 300 l 1,5,-1
 500 800 l 1,6,-1
 700 800 l 1,7,-1
 700 300 l 1,8,-1
 800 300 l 1,9,-1
 800 400 l 1,10,-1
 900 400 l 1,11,-1
 900 1200 l 1,12,-1
 1100 1200 l 1,13,-1
 1100 300 l 1,14,-1
 1000 300 l 1,15,-1
 1000 200 l 1,16,-1
 900 200 l 1,17,-1
 900 100 l 1,18,-1
 700 100 l 1,19,-1
 700 200 l 1,20,-1
 500 200 l 1,21,-1
 500 100 l 1,22,-1
 300 100 l 1,23,-1
 300 200 l 1,24,-1
 200 200 l 1,25,-1
 200 300 l 1,26,-1
 100 300 l 1,27,-1
 100 1200 l 1,0,-1
EndSplineSet
Validated: 1
EndChar

StartChar: x
Encoding: 120 120 91
Width: 1200
Flags: W
LayerCount: 2
Fore
SplineSet
300 200 m 1,0,-1
 300 100 l 1,1,-1
 100 100 l 1,2,-1
 100 300 l 1,3,-1
 200 300 l 1,4,-1
 200 400 l 1,5,-1
 300 400 l 1,6,-1
 300 500 l 1,7,-1
 400 500 l 1,8,-1
 400 600 l 1,9,-1
 500 600 l 1,10,-1
 500 700 l 1,11,-1
 400 700 l 1,12,-1
 400 800 l 1,13,-1
 300 800 l 1,14,-1
 300 900 l 1,15,-1
 200 900 l 1,16,-1
 200 1000 l 1,17,-1
 100 1000 l 1,18,-1
 100 1200 l 1,19,-1
 300 1200 l 1,20,-1
 300 1100 l 1,21,-1
 400 1100 l 1,22,-1
 400 1000 l 1,23,-1
 500 1000 l 1,24,-1
 500 900 l 1,25,-1
 700 900 l 1,26,-1
 700 1000 l 1,27,-1
 800 1000 l 1,28,-1
 800 1100 l 1,29,-1
 900 1100 l 1,30,-1
 900 1200 l 1,31,-1
 1100 1200 l 1,32,-1
 1100 1000 l 1,33,-1
 1000 1000 l 1,34,-1
 1000 900 l 1,35,-1
 900 900 l 1,36,-1
 900 800 l 1,37,-1
 800 800 l 1,38,-1
 800 700 l 1,39,-1
 700 700 l 1,40,-1
 700 600 l 1,41,-1
 800 600 l 1,42,-1
 800 500 l 1,43,-1
 900 500 l 1,44,-1
 900 400 l 1,45,-1
 1000 400 l 1,46,-1
 1000 300 l 1,47,-1
 1100 300 l 1,48,-1
 1100 100 l 1,49,-1
 900 100 l 1,50,-1
 900 200 l 1,51,-1
 800 200 l 1,52,-1
 800 300 l 1,53,-1
 700 300 l 1,54,-1
 700 400 l 1,55,-1
 500 400 l 1,56,-1
 500 300 l 1,57,-1
 400 300 l 1,58,-1
 400 200 l 1,59,-1
 300 200 l 1,0,-1
EndSplineSet
Validated: 1
EndChar

StartChar: y
Encoding: 121 121 92
Width: 1200
Flags: W
LayerCount: 2
Fore
SplineSet
300 100 m 1,0,-1
 300 300 l 1,1,-1
 800 300 l 1,2,-1
 800 400 l 1,3,-1
 900 400 l 1,4,-1
 900 700 l 1,5,-1
 800 700 l 1,6,-1
 800 600 l 1,7,-1
 700 600 l 1,8,-1
 700 500 l 1,9,-1
 300 500 l 1,10,-1
 300 600 l 1,11,-1
 200 600 l 1,12,-1
 200 700 l 1,13,-1
 100 700 l 1,14,-1
 100 1300 l 1,15,-1
 300 1300 l 1,16,-1
 300 800 l 1,17,-1
 400 800 l 1,18,-1
 400 700 l 1,19,-1
 600 700 l 1,20,-1
 600 800 l 1,21,-1
 700 800 l 1,22,-1
 700 900 l 1,23,-1
 800 900 l 1,24,-1
 800 1100 l 1,25,-1
 900 1100 l 1,26,-1
 900 1300 l 1,27,-1
 1100 1300 l 1,28,-1
 1100 300 l 1,29,-1
 1000 300 l 1,30,-1
 1000 200 l 1,31,-1
 900 200 l 1,32,-1
 900 100 l 1,33,-1
 300 100 l 1,0,-1
EndSplineSet
Validated: 1
EndChar

StartChar: z
Encoding: 122 122 93
Width: 1200
Flags: W
LayerCount: 2
Fore
SplineSet
500 300 m 1,0,-1
 1100 300 l 1,1,-1
 1100 100 l 1,2,-1
 100 100 l 1,3,-1
 100 300 l 1,4,-1
 200 300 l 1,5,-1
 200 400 l 1,6,-1
 300 400 l 1,7,-1
 300 500 l 1,8,-1
 400 500 l 1,9,-1
 400 600 l 1,10,-1
 500 600 l 1,11,-1
 500 700 l 1,12,-1
 600 700 l 1,13,-1
 600 800 l 1,14,-1
 700 800 l 1,15,-1
 700 900 l 1,16,-1
 800 900 l 1,17,-1
 800 1000 l 1,18,-1
 100 1000 l 1,19,-1
 100 1200 l 1,20,-1
 1100 1200 l 1,21,-1
 1100 900 l 1,22,-1
 1000 900 l 1,23,-1
 1000 800 l 1,24,-1
 900 800 l 1,25,-1
 900 700 l 1,26,-1
 800 700 l 1,27,-1
 800 600 l 1,28,-1
 700 600 l 1,29,-1
 700 500 l 1,30,-1
 600 500 l 1,31,-1
 600 400 l 1,32,-1
 500 400 l 1,33,-1
 500 300 l 1,0,-1
EndSplineSet
Validated: 1
EndChar

StartChar: braceleft
Encoding: 123 123 94
Width: 1200
Flags: W
LayerCount: 2
Fore
SplineSet
600 1500 m 1,0,-1
 600 1700 l 1,1,-1
 900 1700 l 1,2,-1
 900 1400 l 1,3,-1
 700 1400 l 1,4,-1
 700 1000 l 1,5,-1
 600 1000 l 1,6,-1
 600 800 l 1,7,-1
 700 800 l 1,8,-1
 700 400 l 1,9,-1
 900 400 l 1,10,-1
 900 100 l 1,11,-1
 600 100 l 1,12,-1
 600 300 l 1,13,-1
 500 300 l 1,14,-1
 500 800 l 1,15,-1
 300 800 l 1,16,-1
 300 1000 l 1,17,-1
 500 1000 l 1,18,-1
 500 1500 l 1,19,-1
 600 1500 l 1,0,-1
EndSplineSet
Validated: 1
EndChar

StartChar: bar
Encoding: 124 124 95
Width: 1200
Flags: W
LayerCount: 2
Fore
SplineSet
700 1700 m 1,0,-1
 700 100 l 1,1,-1
 500 100 l 1,2,-1
 500 1700 l 1,3,-1
 700 1700 l 1,0,-1
EndSplineSet
Validated: 1
EndChar

StartChar: braceright
Encoding: 125 125 96
Width: 1200
Flags: W
LayerCount: 2
Fore
SplineSet
700 1500 m 1,0,-1
 700 1000 l 1,1,-1
 900 1000 l 1,2,-1
 900 800 l 1,3,-1
 700 800 l 1,4,-1
 700 300 l 1,5,-1
 600 300 l 1,6,-1
 600 100 l 1,7,-1
 300 100 l 1,8,-1
 300 400 l 1,9,-1
 500 400 l 1,10,-1
 500 800 l 1,11,-1
 600 800 l 1,12,-1
 600 1000 l 1,13,-1
 500 1000 l 1,14,-1
 500 1400 l 1,15,-1
 300 1400 l 1,16,-1
 300 1700 l 1,17,-1
 600 1700 l 1,18,-1
 600 1500 l 1,19,-1
 700 1500 l 1,0,-1
EndSplineSet
Validated: 1
EndChar

StartChar: asciitilde
Encoding: 126 126 97
Width: 1200
Flags: W
LayerCount: 2
Fore
SplineSet
300 900 m 1,0,-1
 300 1000 l 1,1,-1
 600 1000 l 1,2,-1
 600 900 l 1,3,-1
 700 900 l 1,4,-1
 700 800 l 1,5,-1
 900 800 l 1,6,-1
 900 900 l 1,7,-1
 1000 900 l 1,8,-1
 1000 1000 l 1,9,-1
 1100 1000 l 1,10,-1
 1100 800 l 1,11,-1
 1000 800 l 1,12,-1
 1000 700 l 1,13,-1
 900 700 l 1,14,-1
 900 600 l 1,15,-1
 600 600 l 1,16,-1
 600 700 l 1,17,-1
 500 700 l 1,18,-1
 500 800 l 1,19,-1
 300 800 l 1,20,-1
 300 700 l 1,21,-1
 200 700 l 1,22,-1
 200 600 l 1,23,-1
 100 600 l 1,24,-1
 100 800 l 1,25,-1
 200 800 l 1,26,-1
 200 900 l 1,27,-1
 300 900 l 1,0,-1
EndSplineSet
Validated: 1
EndChar

StartChar: cent
Encoding: 162 162 98
Width: 1200
Flags: W
LayerCount: 2
Fore
SplineSet
500 300 m 1,0,-1
 300 300 l 1,1,-1
 300 400 l 1,2,-1
 200 400 l 1,3,-1
 200 500 l 1,4,-1
 100 500 l 1,5,-1
 100 1100 l 1,6,-1
 200 1100 l 1,7,-1
 200 1200 l 1,8,-1
 300 1200 l 1,9,-1
 300 1300 l 1,10,-1
 500 1300 l 1,11,-1
 500 1500 l 1,12,-1
 700 1500 l 1,13,-1
 700 1300 l 1,14,-1
 900 1300 l 1,15,-1
 900 1200 l 1,16,-1
 1000 1200 l 1,17,-1
 1000 1100 l 1,18,-1
 1100 1100 l 1,19,-1
 1100 900 l 1,20,-1
 900 900 l 1,21,-1
 900 1000 l 1,22,-1
 800 1000 l 1,23,-1
 800 1100 l 1,24,-1
 700 1100 l 1,25,-1
 700 500 l 1,26,-1
 800 500 l 1,27,-1
 800 600 l 1,28,-1
 900 600 l 1,29,-1
 900 700 l 1,30,-1
 1100 700 l 1,31,-1
 1100 500 l 1,32,-1
 1000 500 l 1,33,-1
 1000 400 l 1,34,-1
 900 400 l 1,35,-1
 900 300 l 1,36,-1
 700 300 l 1,37,-1
 700 100 l 1,38,-1
 500 100 l 1,39,-1
 500 300 l 1,0,-1
500 1100 m 1,40,-1
 400 1100 l 1,41,-1
 400 1000 l 1,42,-1
 300 1000 l 1,43,-1
 300 600 l 1,44,-1
 400 600 l 1,45,-1
 400 500 l 1,46,-1
 500 500 l 1,47,-1
 500 1100 l 1,40,-1
EndSplineSet
Validated: 1
EndChar

StartChar: sterling
Encoding: 163 163 99
Width: 1200
Flags: W
LayerCount: 2
Fore
SplineSet
400 300 m 1,0,-1
 1100 300 l 1,1,-1
 1100 100 l 1,2,-1
 100 100 l 1,3,-1
 100 300 l 1,4,-1
 200 300 l 1,5,-1
 200 400 l 1,6,-1
 300 400 l 1,7,-1
 300 900 l 1,8,-1
 100 900 l 1,9,-1
 100 1100 l 1,10,-1
 300 1100 l 1,11,-1
 300 1500 l 1,12,-1
 400 1500 l 1,13,-1
 400 1600 l 1,14,-1
 500 1600 l 1,15,-1
 500 1700 l 1,16,-1
 900 1700 l 1,17,-1
 900 1600 l 1,18,-1
 1000 1600 l 1,19,-1
 1000 1500 l 1,20,-1
 1100 1500 l 1,21,-1
 1100 1300 l 1,22,-1
 900 1300 l 1,23,-1
 900 1400 l 1,24,-1
 800 1400 l 1,25,-1
 800 1500 l 1,26,-1
 600 1500 l 1,27,-1
 600 1400 l 1,28,-1
 500 1400 l 1,29,-1
 500 1100 l 1,30,-1
 900 1100 l 1,31,-1
 900 900 l 1,32,-1
 500 900 l 1,33,-1
 500 400 l 1,34,-1
 400 400 l 1,35,-1
 400 300 l 1,0,-1
EndSplineSet
Validated: 1
EndChar

StartChar: yen
Encoding: 165 165 100
Width: 1200
Flags: W
LayerCount: 2
Fore
SplineSet
700 300 m 1,0,-1
 700 100 l 1,1,-1
 500 100 l 1,2,-1
 500 300 l 1,3,-1
 200 300 l 1,4,-1
 200 400 l 1,5,-1
 500 400 l 1,6,-1
 500 600 l 1,7,-1
 200 600 l 1,8,-1
 200 700 l 1,9,-1
 500 700 l 1,10,-1
 500 800 l 1,11,-1
 400 800 l 1,12,-1
 400 1000 l 1,13,-1
 300 1000 l 1,14,-1
 300 1200 l 1,15,-1
 200 1200 l 1,16,-1
 200 1500 l 1,17,-1
 400 1500 l 1,18,-1
 400 1200 l 1,19,-1
 500 1200 l 1,20,-1
 500 1000 l 1,21,-1
 700 1000 l 1,22,-1
 700 1200 l 1,23,-1
 800 1200 l 1,24,-1
 800 1500 l 1,25,-1
 1000 1500 l 1,26,-1
 1000 1200 l 1,27,-1
 900 1200 l 1,28,-1
 900 1000 l 1,29,-1
 800 1000 l 1,30,-1
 800 800 l 1,31,-1
 700 800 l 1,32,-1
 700 700 l 1,33,-1
 1000 700 l 1,34,-1
 1000 600 l 1,35,-1
 700 600 l 1,36,-1
 700 400 l 1,37,-1
 1000 400 l 1,38,-1
 1000 300 l 1,39,-1
 700 300 l 1,0,-1
EndSplineSet
Validated: 1
EndChar

StartChar: brokenbar
Encoding: 166 166 101
Width: 1200
Flags: W
LayerCount: 2
Fore
SplineSet
700 1700 m 1,0,-1
 700 1000 l 1,1,-1
 500 1000 l 1,2,-1
 500 1700 l 1,3,-1
 700 1700 l 1,0,-1
700 800 m 1,4,-1
 700 100 l 1,5,-1
 500 100 l 1,6,-1
 500 800 l 1,7,-1
 700 800 l 1,4,-1
EndSplineSet
Validated: 1
EndChar

StartChar: dieresis
Encoding: 168 168 102
Width: 1200
Flags: W
LayerCount: 2
Fore
SplineSet
500 1500 m 1,0,-1
 500 1300 l 1,1,-1
 300 1300 l 1,2,-1
 300 1500 l 1,3,-1
 500 1500 l 1,0,-1
900 1500 m 1,4,-1
 900 1300 l 1,5,-1
 700 1300 l 1,6,-1
 700 1500 l 1,7,-1
 900 1500 l 1,4,-1
EndSplineSet
Validated: 1
EndChar

StartChar: copyright
Encoding: 169 169 103
Width: 1200
Flags: W
LayerCount: 2
Fore
SplineSet
400 400 m 1,0,-1
 800 400 l 1,1,-1
 800 500 l 1,2,-1
 900 500 l 1,3,-1
 900 600 l 1,4,-1
 1000 600 l 1,5,-1
 1000 1100 l 1,6,-1
 900 1100 l 1,7,-1
 900 1200 l 1,8,-1
 800 1200 l 1,9,-1
 800 1300 l 1,10,-1
 400 1300 l 1,11,-1
 400 1200 l 1,12,-1
 300 1200 l 1,13,-1
 300 1100 l 1,14,-1
 200 1100 l 1,15,-1
 200 600 l 1,16,-1
 300 600 l 1,17,-1
 300 500 l 1,18,-1
 400 500 l 1,19,-1
 400 400 l 1,0,-1
900 400 m 1,20,-1
 900 300 l 1,21,-1
 300 300 l 1,22,-1
 300 400 l 1,23,-1
 200 400 l 1,24,-1
 200 500 l 1,25,-1
 100 500 l 1,26,-1
 100 1200 l 1,27,-1
 200 1200 l 1,28,-1
 200 1300 l 1,29,-1
 300 1300 l 1,30,-1
 300 1400 l 1,31,-1
 900 1400 l 1,32,-1
 900 1300 l 1,33,-1
 1000 1300 l 1,34,-1
 1000 1200 l 1,35,-1
 1100 1200 l 1,36,-1
 1100 500 l 1,37,-1
 1000 500 l 1,38,-1
 1000 400 l 1,39,-1
 900 400 l 1,20,-1
800 1200 m 1,40,-1
 800 1100 l 1,41,-1
 600 1100 l 1,42,-1
 600 1000 l 1,43,-1
 500 1000 l 1,44,-1
 500 700 l 1,45,-1
 600 700 l 1,46,-1
 600 600 l 1,47,-1
 800 600 l 1,48,-1
 800 500 l 1,49,-1
 500 500 l 1,50,-1
 500 600 l 1,51,-1
 400 600 l 1,52,-1
 400 1100 l 1,53,-1
 500 1100 l 1,54,-1
 500 1200 l 1,55,-1
 800 1200 l 1,40,-1
EndSplineSet
Validated: 5
EndChar

StartChar: ordfeminine
Encoding: 170 170 104
Width: 1200
Flags: W
LayerCount: 2
Fore
SplineSet
900 600 m 1,0,-1
 900 400 l 1,1,-1
 200 400 l 1,2,-1
 200 600 l 1,3,-1
 900 600 l 1,0,-1
700 800 m 1,4,-1
 700 1100 l 1,5,-1
 400 1100 l 1,6,-1
 400 1000 l 1,7,-1
 300 1000 l 1,8,-1
 300 900 l 1,9,-1
 400 900 l 1,10,-1
 400 800 l 1,11,-1
 700 800 l 1,4,-1
300 1400 m 1,12,-1
 300 1500 l 1,13,-1
 800 1500 l 1,14,-1
 800 1400 l 1,15,-1
 900 1400 l 1,16,-1
 900 700 l 1,17,-1
 800 700 l 1,18,-1
 800 800 l 1,19,-1
 700 800 l 1,20,-1
 700 700 l 1,21,-1
 300 700 l 1,22,-1
 300 800 l 1,23,-1
 200 800 l 1,24,-1
 200 1100 l 1,25,-1
 300 1100 l 1,26,-1
 300 1200 l 1,27,-1
 700 1200 l 1,28,-1
 700 1400 l 1,29,-1
 400 1400 l 1,30,-1
 400 1300 l 1,31,-1
 200 1300 l 1,32,-1
 200 1400 l 1,33,-1
 300 1400 l 1,12,-1
EndSplineSet
Validated: 5
EndChar

StartChar: guillemotleft
Encoding: 171 171 105
Width: 1200
Flags: W
LayerCount: 2
Fore
SplineSet
200 700 m 1,0,-1
 100 700 l 1,1,-1
 100 800 l 1,2,-1
 200 800 l 1,3,-1
 200 900 l 1,4,-1
 300 900 l 1,5,-1
 300 1000 l 1,6,-1
 400 1000 l 1,7,-1
 400 1100 l 1,8,-1
 500 1100 l 1,9,-1
 500 1200 l 1,10,-1
 600 1200 l 1,11,-1
 600 1000 l 1,12,-1
 500 1000 l 1,13,-1
 500 900 l 1,14,-1
 400 900 l 1,15,-1
 400 800 l 1,16,-1
 300 800 l 1,17,-1
 300 700 l 1,18,-1
 400 700 l 1,19,-1
 400 600 l 1,20,-1
 500 600 l 1,21,-1
 500 500 l 1,22,-1
 600 500 l 1,23,-1
 600 300 l 1,24,-1
 500 300 l 1,25,-1
 500 400 l 1,26,-1
 400 400 l 1,27,-1
 400 500 l 1,28,-1
 300 500 l 1,29,-1
 300 600 l 1,30,-1
 200 600 l 1,31,-1
 200 700 l 1,0,-1
700 700 m 1,32,-1
 600 700 l 1,33,-1
 600 800 l 1,34,-1
 700 800 l 1,35,-1
 700 900 l 1,36,-1
 800 900 l 1,37,-1
 800 1000 l 1,38,-1
 900 1000 l 1,39,-1
 900 1100 l 1,40,-1
 1000 1100 l 1,41,-1
 1000 1200 l 1,42,-1
 1100 1200 l 1,43,-1
 1100 1000 l 1,44,-1
 1000 1000 l 1,45,-1
 1000 900 l 1,46,-1
 900 900 l 1,47,-1
 900 800 l 1,48,-1
 800 800 l 1,49,-1
 800 700 l 1,50,-1
 900 700 l 1,51,-1
 900 600 l 1,52,-1
 1000 600 l 1,53,-1
 1000 500 l 1,54,-1
 1100 500 l 1,55,-1
 1100 300 l 1,56,-1
 1000 300 l 1,57,-1
 1000 400 l 1,58,-1
 900 400 l 1,59,-1
 900 500 l 1,60,-1
 800 500 l 1,61,-1
 800 600 l 1,62,-1
 700 600 l 1,63,-1
 700 700 l 1,32,-1
EndSplineSet
Validated: 1
EndChar

StartChar: registered
Encoding: 174 174 106
Width: 1200
Flags: W
LayerCount: 2
Fore
SplineSet
700 1300 m 1,0,-1
 700 1200 l 1,1,-1
 500 1200 l 1,2,-1
 500 1000 l 1,3,-1
 700 1000 l 1,4,-1
 700 900 l 1,5,-1
 500 900 l 1,6,-1
 500 700 l 1,7,-1
 400 700 l 1,8,-1
 400 1300 l 1,9,-1
 700 1300 l 1,0,-1
700 1200 m 1,10,-1
 800 1200 l 1,11,-1
 800 1000 l 1,12,-1
 700 1000 l 1,13,-1
 700 1200 l 1,10,-1
700 900 m 1,14,-1
 800 900 l 1,15,-1
 800 700 l 1,16,-1
 700 700 l 1,17,-1
 700 900 l 1,14,-1
400 600 m 1,18,-1
 800 600 l 1,19,-1
 800 700 l 1,20,-1
 900 700 l 1,21,-1
 900 800 l 1,22,-1
 1000 800 l 1,23,-1
 1000 1200 l 1,24,-1
 900 1200 l 1,25,-1
 900 1300 l 1,26,-1
 800 1300 l 1,27,-1
 800 1400 l 1,28,-1
 400 1400 l 1,29,-1
 400 1300 l 1,30,-1
 300 1300 l 1,31,-1
 300 1200 l 1,32,-1
 200 1200 l 1,33,-1
 200 800 l 1,34,-1
 300 800 l 1,35,-1
 300 700 l 1,36,-1
 400 700 l 1,37,-1
 400 600 l 1,18,-1
900 600 m 1,38,-1
 900 500 l 1,39,-1
 300 500 l 1,40,-1
 300 600 l 1,41,-1
 200 600 l 1,42,-1
 200 700 l 1,43,-1
 100 700 l 1,44,-1
 100 1300 l 1,45,-1
 200 1300 l 1,46,-1
 200 1400 l 1,47,-1
 300 1400 l 1,48,-1
 300 1500 l 1,49,-1
 900 1500 l 1,50,-1
 900 1400 l 1,51,-1
 1000 1400 l 1,52,-1
 1000 1300 l 1,53,-1
 1100 1300 l 1,54,-1
 1100 700 l 1,55,-1
 1000 700 l 1,56,-1
 1000 600 l 1,57,-1
 900 600 l 1,38,-1
EndSplineSet
Validated: 5
EndChar

StartChar: degree
Encoding: 176 176 107
Width: 1200
Flags: W
LayerCount: 2
Fore
SplineSet
300 1400 m 1,0,-1
 300 1500 l 1,1,-1
 700 1500 l 1,2,-1
 700 1400 l 1,3,-1
 800 1400 l 1,4,-1
 800 1300 l 1,5,-1
 900 1300 l 1,6,-1
 900 900 l 1,7,-1
 800 900 l 1,8,-1
 800 800 l 1,9,-1
 700 800 l 1,10,-1
 700 700 l 1,11,-1
 300 700 l 1,12,-1
 300 800 l 1,13,-1
 200 800 l 1,14,-1
 200 900 l 1,15,-1
 100 900 l 1,16,-1
 100 1300 l 1,17,-1
 200 1300 l 1,18,-1
 200 1400 l 1,19,-1
 300 1400 l 1,0,-1
400 1300 m 1,20,-1
 400 1200 l 1,21,-1
 300 1200 l 1,22,-1
 300 1000 l 1,23,-1
 400 1000 l 1,24,-1
 400 900 l 1,25,-1
 600 900 l 1,26,-1
 600 1000 l 1,27,-1
 700 1000 l 1,28,-1
 700 1200 l 1,29,-1
 600 1200 l 1,30,-1
 600 1300 l 1,31,-1
 400 1300 l 1,20,-1
EndSplineSet
Validated: 1
EndChar

StartChar: uni00B2
Encoding: 178 178 108
Width: 1200
Flags: W
LayerCount: 2
Fore
SplineSet
300 1500 m 1,0,-1
 300 1600 l 1,1,-1
 400 1600 l 1,2,-1
 400 1700 l 1,3,-1
 700 1700 l 1,4,-1
 700 1600 l 1,5,-1
 800 1600 l 1,6,-1
 800 1400 l 1,7,-1
 700 1400 l 1,8,-1
 700 1300 l 1,9,-1
 500 1300 l 1,10,-1
 500 1100 l 1,11,-1
 800 1100 l 1,12,-1
 800 1000 l 1,13,-1
 300 1000 l 1,14,-1
 300 1300 l 1,15,-1
 400 1300 l 1,16,-1
 400 1400 l 1,17,-1
 600 1400 l 1,18,-1
 600 1600 l 1,19,-1
 500 1600 l 1,20,-1
 500 1500 l 1,21,-1
 300 1500 l 1,0,-1
EndSplineSet
Validated: 1
EndChar

StartChar: uni00B3
Encoding: 179 179 109
Width: 1200
Flags: W
LayerCount: 2
Fore
SplineSet
700 1600 m 1,0,-1
 800 1600 l 1,1,-1
 800 1400 l 1,2,-1
 700 1400 l 1,3,-1
 700 1300 l 1,4,-1
 800 1300 l 1,5,-1
 800 1100 l 1,6,-1
 700 1100 l 1,7,-1
 700 1000 l 1,8,-1
 400 1000 l 1,9,-1
 400 1100 l 1,10,-1
 300 1100 l 1,11,-1
 300 1200 l 1,12,-1
 500 1200 l 1,13,-1
 500 1100 l 1,14,-1
 600 1100 l 1,15,-1
 600 1300 l 1,16,-1
 500 1300 l 1,17,-1
 500 1400 l 1,18,-1
 600 1400 l 1,19,-1
 600 1600 l 1,20,-1
 500 1600 l 1,21,-1
 500 1500 l 1,22,-1
 300 1500 l 1,23,-1
 300 1600 l 1,24,-1
 400 1600 l 1,25,-1
 400 1700 l 1,26,-1
 700 1700 l 1,27,-1
 700 1600 l 1,0,-1
EndSplineSet
Validated: 1
EndChar

StartChar: acute
Encoding: 180 180 110
Width: 1200
Flags: W
LayerCount: 2
Fore
SplineSet
900 1500 m 1,0,-1
 900 1400 l 1,1,-1
 800 1400 l 1,2,-1
 800 1300 l 1,3,-1
 600 1300 l 1,4,-1
 600 1200 l 1,5,-1
 400 1200 l 1,6,-1
 400 1300 l 1,7,-1
 500 1300 l 1,8,-1
 500 1400 l 1,9,-1
 600 1400 l 1,10,-1
 600 1500 l 1,11,-1
 900 1500 l 1,0,-1
EndSplineSet
Validated: 1
EndChar

StartChar: uni00B9
Encoding: 185 185 111
Width: 1200
Flags: W
LayerCount: 2
Fore
SplineSet
500 1500 m 1,0,-1
 400 1500 l 1,1,-1
 400 1600 l 1,2,-1
 500 1600 l 1,3,-1
 500 1700 l 1,4,-1
 700 1700 l 1,5,-1
 700 1100 l 1,6,-1
 800 1100 l 1,7,-1
 800 1000 l 1,8,-1
 400 1000 l 1,9,-1
 400 1100 l 1,10,-1
 500 1100 l 1,11,-1
 500 1500 l 1,0,-1
EndSplineSet
Validated: 1
EndChar

StartChar: ordmasculine
Encoding: 186 186 112
Width: 1200
Flags: W
LayerCount: 2
Fore
SplineSet
900 600 m 1,0,-1
 900 400 l 1,1,-1
 200 400 l 1,2,-1
 200 600 l 1,3,-1
 900 600 l 1,0,-1
400 1300 m 1,4,-1
 400 900 l 1,5,-1
 700 900 l 1,6,-1
 700 1300 l 1,7,-1
 400 1300 l 1,4,-1
400 1400 m 1,8,-1
 400 1500 l 1,9,-1
 700 1500 l 1,10,-1
 700 1400 l 1,11,-1
 800 1400 l 1,12,-1
 800 1300 l 1,13,-1
 900 1300 l 1,14,-1
 900 900 l 1,15,-1
 800 900 l 1,16,-1
 800 800 l 1,17,-1
 700 800 l 1,18,-1
 700 700 l 1,19,-1
 400 700 l 1,20,-1
 400 800 l 1,21,-1
 300 800 l 1,22,-1
 300 900 l 1,23,-1
 200 900 l 1,24,-1
 200 1300 l 1,25,-1
 300 1300 l 1,26,-1
 300 1400 l 1,27,-1
 400 1400 l 1,8,-1
EndSplineSet
Validated: 1
EndChar

StartChar: guillemotright
Encoding: 187 187 113
Width: 1200
Flags: W
LayerCount: 2
Fore
SplineSet
1000 600 m 1,0,-1
 900 600 l 1,1,-1
 900 500 l 1,2,-1
 800 500 l 1,3,-1
 800 400 l 1,4,-1
 700 400 l 1,5,-1
 700 300 l 1,6,-1
 600 300 l 1,7,-1
 600 500 l 1,8,-1
 700 500 l 1,9,-1
 700 600 l 1,10,-1
 800 600 l 1,11,-1
 800 700 l 1,12,-1
 900 700 l 1,13,-1
 900 800 l 1,14,-1
 800 800 l 1,15,-1
 800 900 l 1,16,-1
 700 900 l 1,17,-1
 700 1000 l 1,18,-1
 600 1000 l 1,19,-1
 600 1200 l 1,20,-1
 700 1200 l 1,21,-1
 700 1100 l 1,22,-1
 800 1100 l 1,23,-1
 800 1000 l 1,24,-1
 900 1000 l 1,25,-1
 900 900 l 1,26,-1
 1000 900 l 1,27,-1
 1000 800 l 1,28,-1
 1100 800 l 1,29,-1
 1100 700 l 1,30,-1
 1000 700 l 1,31,-1
 1000 600 l 1,0,-1
500 600 m 1,32,-1
 400 600 l 1,33,-1
 400 500 l 1,34,-1
 300 500 l 1,35,-1
 300 400 l 1,36,-1
 200 400 l 1,37,-1
 200 300 l 1,38,-1
 100 300 l 1,39,-1
 100 500 l 1,40,-1
 200 500 l 1,41,-1
 200 600 l 1,42,-1
 300 600 l 1,43,-1
 300 700 l 1,44,-1
 400 700 l 1,45,-1
 400 800 l 1,46,-1
 300 800 l 1,47,-1
 300 900 l 1,48,-1
 200 900 l 1,49,-1
 200 1000 l 1,50,-1
 100 1000 l 1,51,-1
 100 1200 l 1,52,-1
 200 1200 l 1,53,-1
 200 1100 l 1,54,-1
 300 1100 l 1,55,-1
 300 1000 l 1,56,-1
 400 1000 l 1,57,-1
 400 900 l 1,58,-1
 500 900 l 1,59,-1
 500 800 l 1,60,-1
 600 800 l 1,61,-1
 600 700 l 1,62,-1
 500 700 l 1,63,-1
 500 600 l 1,32,-1
EndSplineSet
Validated: 1
EndChar

StartChar: onequarter
Encoding: 188 188 114
Width: 1200
Flags: W
LayerCount: 2
Fore
SplineSet
200 1500 m 1,0,-1
 100 1500 l 1,1,-1
 100 1600 l 1,2,-1
 200 1600 l 1,3,-1
 200 1700 l 1,4,-1
 400 1700 l 1,5,-1
 400 1100 l 1,6,-1
 500 1100 l 1,7,-1
 500 1000 l 1,8,-1
 100 1000 l 1,9,-1
 100 1100 l 1,10,-1
 200 1100 l 1,11,-1
 200 1500 l 1,0,-1
1000 400 m 1,12,-1
 1100 400 l 1,13,-1
 1100 300 l 1,14,-1
 1000 300 l 1,15,-1
 1000 100 l 1,16,-1
 900 100 l 1,17,-1
 900 300 l 1,18,-1
 600 300 l 1,19,-1
 600 500 l 1,20,-1
 700 500 l 1,21,-1
 700 700 l 1,22,-1
 800 700 l 1,23,-1
 800 800 l 1,24,-1
 1000 800 l 1,25,-1
 1000 400 l 1,12,-1
900 400 m 1,26,-1
 900 600 l 1,27,-1
 800 600 l 1,28,-1
 800 400 l 1,29,-1
 900 400 l 1,26,-1
900 1600 m 1,30,-1
 900 1700 l 1,31,-1
 1000 1700 l 1,32,-1
 1000 1500 l 1,33,-1
 900 1500 l 1,34,-1
 900 1300 l 1,35,-1
 800 1300 l 1,36,-1
 800 1100 l 1,37,-1
 700 1100 l 1,38,-1
 700 900 l 1,39,-1
 600 900 l 1,40,-1
 600 800 l 1,41,-1
 500 800 l 1,42,-1
 500 600 l 1,43,-1
 400 600 l 1,44,-1
 400 400 l 1,45,-1
 300 400 l 1,46,-1
 300 200 l 1,47,-1
 200 200 l 1,48,-1
 200 100 l 1,49,-1
 100 100 l 1,50,-1
 100 300 l 1,51,-1
 200 300 l 1,52,-1
 200 500 l 1,53,-1
 300 500 l 1,54,-1
 300 700 l 1,55,-1
 400 700 l 1,56,-1
 400 900 l 1,57,-1
 500 900 l 1,58,-1
 500 1000 l 1,59,-1
 600 1000 l 1,60,-1
 600 1200 l 1,61,-1
 700 1200 l 1,62,-1
 700 1400 l 1,63,-1
 800 1400 l 1,64,-1
 800 1600 l 1,65,-1
 900 1600 l 1,30,-1
EndSplineSet
Validated: 5
Ligature2: "'frac' Diagonal Fractions in Latin lookup 1 subtable" one fraction four
EndChar

StartChar: onehalf
Encoding: 189 189 115
Width: 1200
Flags: W
LayerCount: 2
Fore
SplineSet
200 1500 m 1,0,-1
 100 1500 l 1,1,-1
 100 1600 l 1,2,-1
 200 1600 l 1,3,-1
 200 1700 l 1,4,-1
 400 1700 l 1,5,-1
 400 1100 l 1,6,-1
 500 1100 l 1,7,-1
 500 1000 l 1,8,-1
 100 1000 l 1,9,-1
 100 1100 l 1,10,-1
 200 1100 l 1,11,-1
 200 1500 l 1,0,-1
600 600 m 1,12,-1
 600 700 l 1,13,-1
 700 700 l 1,14,-1
 700 800 l 1,15,-1
 1000 800 l 1,16,-1
 1000 700 l 1,17,-1
 1100 700 l 1,18,-1
 1100 500 l 1,19,-1
 1000 500 l 1,20,-1
 1000 400 l 1,21,-1
 800 400 l 1,22,-1
 800 200 l 1,23,-1
 1100 200 l 1,24,-1
 1100 100 l 1,25,-1
 600 100 l 1,26,-1
 600 400 l 1,27,-1
 700 400 l 1,28,-1
 700 500 l 1,29,-1
 900 500 l 1,30,-1
 900 700 l 1,31,-1
 800 700 l 1,32,-1
 800 600 l 1,33,-1
 600 600 l 1,12,-1
900 1600 m 1,34,-1
 900 1700 l 1,35,-1
 1000 1700 l 1,36,-1
 1000 1500 l 1,37,-1
 900 1500 l 1,38,-1
 900 1300 l 1,39,-1
 800 1300 l 1,40,-1
 800 1100 l 1,41,-1
 700 1100 l 1,42,-1
 700 900 l 1,43,-1
 600 900 l 1,44,-1
 600 800 l 1,45,-1
 500 800 l 1,46,-1
 500 600 l 1,47,-1
 400 600 l 1,48,-1
 400 400 l 1,49,-1
 300 400 l 1,50,-1
 300 200 l 1,51,-1
 200 200 l 1,52,-1
 200 100 l 1,53,-1
 100 100 l 1,54,-1
 100 300 l 1,55,-1
 200 300 l 1,56,-1
 200 500 l 1,57,-1
 300 500 l 1,58,-1
 300 700 l 1,59,-1
 400 700 l 1,60,-1
 400 900 l 1,61,-1
 500 900 l 1,62,-1
 500 1000 l 1,63,-1
 600 1000 l 1,64,-1
 600 1200 l 1,65,-1
 700 1200 l 1,66,-1
 700 1400 l 1,67,-1
 800 1400 l 1,68,-1
 800 1600 l 1,69,-1
 900 1600 l 1,34,-1
EndSplineSet
Validated: 5
Ligature2: "'frac' Diagonal Fractions in Latin lookup 1 subtable" one fraction two
EndChar

StartChar: threequarters
Encoding: 190 190 116
Width: 1200
Flags: W
LayerCount: 2
Fore
SplineSet
500 1600 m 1,0,-1
 600 1600 l 1,1,-1
 600 1400 l 1,2,-1
 500 1400 l 1,3,-1
 500 1300 l 1,4,-1
 600 1300 l 1,5,-1
 600 1100 l 1,6,-1
 500 1100 l 1,7,-1
 500 1000 l 1,8,-1
 200 1000 l 1,9,-1
 200 1100 l 1,10,-1
 100 1100 l 1,11,-1
 100 1200 l 1,12,-1
 300 1200 l 1,13,-1
 300 1100 l 1,14,-1
 400 1100 l 1,15,-1
 400 1300 l 1,16,-1
 300 1300 l 1,17,-1
 300 1400 l 1,18,-1
 400 1400 l 1,19,-1
 400 1600 l 1,20,-1
 300 1600 l 1,21,-1
 300 1500 l 1,22,-1
 100 1500 l 1,23,-1
 100 1600 l 1,24,-1
 200 1600 l 1,25,-1
 200 1700 l 1,26,-1
 500 1700 l 1,27,-1
 500 1600 l 1,0,-1
1000 400 m 1,28,-1
 1100 400 l 1,29,-1
 1100 300 l 1,30,-1
 1000 300 l 1,31,-1
 1000 100 l 1,32,-1
 900 100 l 1,33,-1
 900 300 l 1,34,-1
 600 300 l 1,35,-1
 600 500 l 1,36,-1
 700 500 l 1,37,-1
 700 700 l 1,38,-1
 800 700 l 1,39,-1
 800 800 l 1,40,-1
 1000 800 l 1,41,-1
 1000 400 l 1,28,-1
900 400 m 1,42,-1
 900 600 l 1,43,-1
 800 600 l 1,44,-1
 800 400 l 1,45,-1
 900 400 l 1,42,-1
1000 1600 m 1,46,-1
 1000 1700 l 1,47,-1
 1100 1700 l 1,48,-1
 1100 1500 l 1,49,-1
 1000 1500 l 1,50,-1
 1000 1300 l 1,51,-1
 900 1300 l 1,52,-1
 900 1100 l 1,53,-1
 800 1100 l 1,54,-1
 800 900 l 1,55,-1
 700 900 l 1,56,-1
 700 800 l 1,57,-1
 600 800 l 1,58,-1
 600 600 l 1,59,-1
 500 600 l 1,60,-1
 500 400 l 1,61,-1
 400 400 l 1,62,-1
 400 200 l 1,63,-1
 300 200 l 1,64,-1
 300 100 l 1,65,-1
 200 100 l 1,66,-1
 200 300 l 1,67,-1
 300 300 l 1,68,-1
 300 500 l 1,69,-1
 400 500 l 1,70,-1
 400 700 l 1,71,-1
 500 700 l 1,72,-1
 500 900 l 1,73,-1
 600 900 l 1,74,-1
 600 1000 l 1,75,-1
 700 1000 l 1,76,-1
 700 1200 l 1,77,-1
 800 1200 l 1,78,-1
 800 1400 l 1,79,-1
 900 1400 l 1,80,-1
 900 1600 l 1,81,-1
 1000 1600 l 1,46,-1
EndSplineSet
Validated: 1
Ligature2: "'frac' Diagonal Fractions in Latin lookup 1 subtable" three fraction four
EndChar

StartChar: questiondown
Encoding: 191 191 117
Width: 1200
Flags: W
LayerCount: 2
Fore
SplineSet
500 1300 m 1,0,-1
 500 1500 l 1,1,-1
 700 1500 l 1,2,-1
 700 1300 l 1,3,-1
 500 1300 l 1,0,-1
500 800 m 1,4,-1
 500 700 l 1,5,-1
 400 700 l 1,6,-1
 400 600 l 1,7,-1
 300 600 l 1,8,-1
 300 400 l 1,9,-1
 400 400 l 1,10,-1
 400 300 l 1,11,-1
 800 300 l 1,12,-1
 800 400 l 1,13,-1
 900 400 l 1,14,-1
 900 500 l 1,15,-1
 1100 500 l 1,16,-1
 1100 300 l 1,17,-1
 1000 300 l 1,18,-1
 1000 200 l 1,19,-1
 900 200 l 1,20,-1
 900 100 l 1,21,-1
 300 100 l 1,22,-1
 300 200 l 1,23,-1
 200 200 l 1,24,-1
 200 300 l 1,25,-1
 100 300 l 1,26,-1
 100 700 l 1,27,-1
 200 700 l 1,28,-1
 200 800 l 1,29,-1
 300 800 l 1,30,-1
 300 900 l 1,31,-1
 400 900 l 1,32,-1
 400 1000 l 1,33,-1
 500 1000 l 1,34,-1
 500 1100 l 1,35,-1
 700 1100 l 1,36,-1
 700 900 l 1,37,-1
 600 900 l 1,38,-1
 600 800 l 1,39,-1
 500 800 l 1,4,-1
EndSplineSet
Validated: 1
EndChar

StartChar: Agrave
Encoding: 192 192 118
Width: 1200
Flags: W
LayerCount: 2
Fore
SplineSet
300 100 m 1,0,-1
 100 100 l 1,1,-1
 100 900 l 1,2,-1
 200 900 l 1,3,-1
 200 1000 l 1,4,-1
 300 1000 l 1,5,-1
 300 1100 l 1,6,-1
 400 1100 l 1,7,-1
 400 1200 l 1,8,-1
 500 1200 l 1,9,-1
 500 1300 l 1,10,-1
 700 1300 l 1,11,-1
 700 1200 l 1,12,-1
 800 1200 l 1,13,-1
 800 1100 l 1,14,-1
 900 1100 l 1,15,-1
 900 1000 l 1,16,-1
 1000 1000 l 1,17,-1
 1000 900 l 1,18,-1
 1100 900 l 1,19,-1
 1100 100 l 1,20,-1
 900 100 l 1,21,-1
 900 400 l 1,22,-1
 300 400 l 1,23,-1
 300 100 l 1,0,-1
900 600 m 1,24,-1
 900 800 l 1,25,-1
 800 800 l 1,26,-1
 800 900 l 1,27,-1
 700 900 l 1,28,-1
 700 1000 l 1,29,-1
 500 1000 l 1,30,-1
 500 900 l 1,31,-1
 400 900 l 1,32,-1
 400 800 l 1,33,-1
 300 800 l 1,34,-1
 300 600 l 1,35,-1
 900 600 l 1,24,-1
600 1700 m 1,36,-1
 600 1600 l 1,37,-1
 700 1600 l 1,38,-1
 700 1500 l 1,39,-1
 800 1500 l 1,40,-1
 800 1400 l 1,41,-1
 600 1400 l 1,42,-1
 600 1500 l 1,43,-1
 400 1500 l 1,44,-1
 400 1600 l 1,45,-1
 300 1600 l 1,46,-1
 300 1700 l 1,47,-1
 600 1700 l 1,36,-1
EndSplineSet
Validated: 1
EndChar

StartChar: Aacute
Encoding: 193 193 119
Width: 1200
Flags: W
LayerCount: 2
Fore
SplineSet
300 100 m 1,0,-1
 100 100 l 1,1,-1
 100 900 l 1,2,-1
 200 900 l 1,3,-1
 200 1000 l 1,4,-1
 300 1000 l 1,5,-1
 300 1100 l 1,6,-1
 400 1100 l 1,7,-1
 400 1200 l 1,8,-1
 500 1200 l 1,9,-1
 500 1300 l 1,10,-1
 700 1300 l 1,11,-1
 700 1200 l 1,12,-1
 800 1200 l 1,13,-1
 800 1100 l 1,14,-1
 900 1100 l 1,15,-1
 900 1000 l 1,16,-1
 1000 1000 l 1,17,-1
 1000 900 l 1,18,-1
 1100 900 l 1,19,-1
 1100 100 l 1,20,-1
 900 100 l 1,21,-1
 900 400 l 1,22,-1
 300 400 l 1,23,-1
 300 100 l 1,0,-1
900 600 m 1,24,-1
 900 800 l 1,25,-1
 800 800 l 1,26,-1
 800 900 l 1,27,-1
 700 900 l 1,28,-1
 700 1000 l 1,29,-1
 500 1000 l 1,30,-1
 500 900 l 1,31,-1
 400 900 l 1,32,-1
 400 800 l 1,33,-1
 300 800 l 1,34,-1
 300 600 l 1,35,-1
 900 600 l 1,24,-1
600 1600 m 1,36,-1
 600 1700 l 1,37,-1
 900 1700 l 1,38,-1
 900 1600 l 1,39,-1
 800 1600 l 1,40,-1
 800 1500 l 1,41,-1
 600 1500 l 1,42,-1
 600 1400 l 1,43,-1
 400 1400 l 1,44,-1
 400 1500 l 1,45,-1
 500 1500 l 1,46,-1
 500 1600 l 1,47,-1
 600 1600 l 1,36,-1
EndSplineSet
Validated: 1
EndChar

StartChar: Acircumflex
Encoding: 194 194 120
Width: 1200
Flags: W
LayerCount: 2
Fore
SplineSet
700 1700 m 1,0,-1
 700 1600 l 1,1,-1
 800 1600 l 1,2,-1
 800 1500 l 1,3,-1
 900 1500 l 1,4,-1
 900 1400 l 1,5,-1
 700 1400 l 1,6,-1
 700 1500 l 1,7,-1
 500 1500 l 1,8,-1
 500 1400 l 1,9,-1
 300 1400 l 1,10,-1
 300 1500 l 1,11,-1
 400 1500 l 1,12,-1
 400 1600 l 1,13,-1
 500 1600 l 1,14,-1
 500 1700 l 1,15,-1
 700 1700 l 1,0,-1
300 100 m 1,16,-1
 100 100 l 1,17,-1
 100 900 l 1,18,-1
 200 900 l 1,19,-1
 200 1000 l 1,20,-1
 300 1000 l 1,21,-1
 300 1100 l 1,22,-1
 400 1100 l 1,23,-1
 400 1200 l 1,24,-1
 500 1200 l 1,25,-1
 500 1300 l 1,26,-1
 700 1300 l 1,27,-1
 700 1200 l 1,28,-1
 800 1200 l 1,29,-1
 800 1100 l 1,30,-1
 900 1100 l 1,31,-1
 900 1000 l 1,32,-1
 1000 1000 l 1,33,-1
 1000 900 l 1,34,-1
 1100 900 l 1,35,-1
 1100 100 l 1,36,-1
 900 100 l 1,37,-1
 900 400 l 1,38,-1
 300 400 l 1,39,-1
 300 100 l 1,16,-1
900 600 m 1,40,-1
 900 800 l 1,41,-1
 800 800 l 1,42,-1
 800 900 l 1,43,-1
 700 900 l 1,44,-1
 700 1000 l 1,45,-1
 500 1000 l 1,46,-1
 500 900 l 1,47,-1
 400 900 l 1,48,-1
 400 800 l 1,49,-1
 300 800 l 1,50,-1
 300 600 l 1,51,-1
 900 600 l 1,40,-1
EndSplineSet
Validated: 1
EndChar

StartChar: Atilde
Encoding: 195 195 121
Width: 1200
Flags: W
LayerCount: 2
Fore
SplineSet
800 1500 m 1,0,-1
 800 1400 l 1,1,-1
 600 1400 l 1,2,-1
 600 1500 l 1,3,-1
 400 1500 l 1,4,-1
 400 1400 l 1,5,-1
 300 1400 l 1,6,-1
 300 1600 l 1,7,-1
 400 1600 l 1,8,-1
 400 1700 l 1,9,-1
 600 1700 l 1,10,-1
 600 1600 l 1,11,-1
 800 1600 l 1,12,-1
 800 1700 l 1,13,-1
 900 1700 l 1,14,-1
 900 1500 l 1,15,-1
 800 1500 l 1,0,-1
900 600 m 1,16,-1
 900 800 l 1,17,-1
 800 800 l 1,18,-1
 800 900 l 1,19,-1
 700 900 l 1,20,-1
 700 1000 l 1,21,-1
 500 1000 l 1,22,-1
 500 900 l 1,23,-1
 400 900 l 1,24,-1
 400 800 l 1,25,-1
 300 800 l 1,26,-1
 300 600 l 1,27,-1
 900 600 l 1,16,-1
300 100 m 1,28,-1
 100 100 l 1,29,-1
 100 900 l 1,30,-1
 200 900 l 1,31,-1
 200 1000 l 1,32,-1
 300 1000 l 1,33,-1
 300 1100 l 1,34,-1
 400 1100 l 1,35,-1
 400 1200 l 1,36,-1
 500 1200 l 1,37,-1
 500 1300 l 1,38,-1
 700 1300 l 1,39,-1
 700 1200 l 1,40,-1
 800 1200 l 1,41,-1
 800 1100 l 1,42,-1
 900 1100 l 1,43,-1
 900 1000 l 1,44,-1
 1000 1000 l 1,45,-1
 1000 900 l 1,46,-1
 1100 900 l 1,47,-1
 1100 100 l 1,48,-1
 900 100 l 1,49,-1
 900 400 l 1,50,-1
 300 400 l 1,51,-1
 300 100 l 1,28,-1
EndSplineSet
Validated: 1
EndChar

StartChar: Adieresis
Encoding: 196 196 122
Width: 1200
Flags: W
LayerCount: 2
Fore
SplineSet
300 100 m 1,0,-1
 100 100 l 1,1,-1
 100 900 l 1,2,-1
 200 900 l 1,3,-1
 200 1000 l 1,4,-1
 300 1000 l 1,5,-1
 300 1100 l 1,6,-1
 400 1100 l 1,7,-1
 400 1200 l 1,8,-1
 500 1200 l 1,9,-1
 500 1300 l 1,10,-1
 700 1300 l 1,11,-1
 700 1200 l 1,12,-1
 800 1200 l 1,13,-1
 800 1100 l 1,14,-1
 900 1100 l 1,15,-1
 900 1000 l 1,16,-1
 1000 1000 l 1,17,-1
 1000 900 l 1,18,-1
 1100 900 l 1,19,-1
 1100 100 l 1,20,-1
 900 100 l 1,21,-1
 900 400 l 1,22,-1
 300 400 l 1,23,-1
 300 100 l 1,0,-1
900 600 m 1,24,-1
 900 800 l 1,25,-1
 800 800 l 1,26,-1
 800 900 l 1,27,-1
 700 900 l 1,28,-1
 700 1000 l 1,29,-1
 500 1000 l 1,30,-1
 500 900 l 1,31,-1
 400 900 l 1,32,-1
 400 800 l 1,33,-1
 300 800 l 1,34,-1
 300 600 l 1,35,-1
 900 600 l 1,24,-1
300 1500 m 1,36,-1
 300 1700 l 1,37,-1
 500 1700 l 1,38,-1
 500 1500 l 1,39,-1
 300 1500 l 1,36,-1
700 1700 m 1,40,-1
 900 1700 l 1,41,-1
 900 1500 l 1,42,-1
 700 1500 l 1,43,-1
 700 1700 l 1,40,-1
EndSplineSet
Validated: 1
EndChar

StartChar: Aring
Encoding: 197 197 123
Width: 1200
Flags: W
LayerCount: 2
Fore
SplineSet
300 100 m 1,0,-1
 100 100 l 1,1,-1
 100 900 l 1,2,-1
 200 900 l 1,3,-1
 200 1000 l 1,4,-1
 300 1000 l 1,5,-1
 300 1100 l 1,6,-1
 400 1100 l 1,7,-1
 400 1200 l 1,8,-1
 500 1200 l 1,9,-1
 500 1300 l 1,10,-1
 700 1300 l 1,11,-1
 700 1200 l 1,12,-1
 800 1200 l 1,13,-1
 800 1100 l 1,14,-1
 900 1100 l 1,15,-1
 900 1000 l 1,16,-1
 1000 1000 l 1,17,-1
 1000 900 l 1,18,-1
 1100 900 l 1,19,-1
 1100 100 l 1,20,-1
 900 100 l 1,21,-1
 900 400 l 1,22,-1
 300 400 l 1,23,-1
 300 100 l 1,0,-1
900 600 m 1,24,-1
 900 800 l 1,25,-1
 800 800 l 1,26,-1
 800 900 l 1,27,-1
 700 900 l 1,28,-1
 700 1000 l 1,29,-1
 500 1000 l 1,30,-1
 500 900 l 1,31,-1
 400 900 l 1,32,-1
 400 800 l 1,33,-1
 300 800 l 1,34,-1
 300 600 l 1,35,-1
 900 600 l 1,24,-1
400 1600 m 1,36,-1
 500 1600 l 1,37,-1
 500 1400 l 1,38,-1
 400 1400 l 1,39,-1
 400 1600 l 1,36,-1
500 1300 m 1,40,-1
 500 1400 l 1,41,-1
 700 1400 l 1,42,-1
 700 1300 l 1,43,-1
 500 1300 l 1,40,-1
700 1700 m 1,44,-1
 700 1600 l 1,45,-1
 500 1600 l 1,46,-1
 500 1700 l 1,47,-1
 700 1700 l 1,44,-1
800 1400 m 1,48,-1
 700 1400 l 1,49,-1
 700 1600 l 1,50,-1
 800 1600 l 1,51,-1
 800 1400 l 1,48,-1
EndSplineSet
Validated: 5
EndChar

StartChar: AE
Encoding: 198 198 124
Width: 1200
Flags: W
LayerCount: 2
Fore
SplineSet
600 700 m 1,0,-1
 600 1200 l 1,1,-1
 500 1200 l 1,2,-1
 500 1100 l 1,3,-1
 400 1100 l 1,4,-1
 400 1000 l 1,5,-1
 300 1000 l 1,6,-1
 300 700 l 1,7,-1
 600 700 l 1,0,-1
800 1000 m 1,8,-1
 1100 1000 l 1,9,-1
 1100 800 l 1,10,-1
 800 800 l 1,11,-1
 800 300 l 1,12,-1
 1100 300 l 1,13,-1
 1100 100 l 1,14,-1
 600 100 l 1,15,-1
 600 500 l 1,16,-1
 300 500 l 1,17,-1
 300 100 l 1,18,-1
 100 100 l 1,19,-1
 100 1000 l 1,20,-1
 200 1000 l 1,21,-1
 200 1200 l 1,22,-1
 300 1200 l 1,23,-1
 300 1300 l 1,24,-1
 400 1300 l 1,25,-1
 400 1400 l 1,26,-1
 500 1400 l 1,27,-1
 500 1500 l 1,28,-1
 600 1500 l 1,29,-1
 600 1600 l 1,30,-1
 1100 1600 l 1,31,-1
 1100 1400 l 1,32,-1
 800 1400 l 1,33,-1
 800 1000 l 1,8,-1
EndSplineSet
Validated: 1
EndChar

StartChar: Ccedilla
Encoding: 199 199 125
Width: 1200
Flags: W
LayerCount: 2
Fore
SplineSet
1000 1300 m 1,0,-1
 1100 1300 l 1,1,-1
 1100 1100 l 1,2,-1
 900 1100 l 1,3,-1
 900 1200 l 1,4,-1
 800 1200 l 1,5,-1
 800 1300 l 1,6,-1
 400 1300 l 1,7,-1
 400 1200 l 1,8,-1
 300 1200 l 1,9,-1
 300 700 l 1,10,-1
 400 700 l 1,11,-1
 400 600 l 1,12,-1
 800 600 l 1,13,-1
 800 700 l 1,14,-1
 900 700 l 1,15,-1
 900 800 l 1,16,-1
 1100 800 l 1,17,-1
 1100 600 l 1,18,-1
 1000 600 l 1,19,-1
 1000 500 l 1,20,-1
 900 500 l 1,21,-1
 900 400 l 1,22,-1
 800 400 l 1,23,-1
 800 300 l 1,24,-1
 700 300 l 1,25,-1
 700 200 l 1,26,-1
 600 200 l 1,27,-1
 600 100 l 1,28,-1
 300 100 l 1,29,-1
 300 200 l 1,30,-1
 400 200 l 1,31,-1
 400 300 l 1,32,-1
 500 300 l 1,33,-1
 500 400 l 1,34,-1
 300 400 l 1,35,-1
 300 500 l 1,36,-1
 200 500 l 1,37,-1
 200 600 l 1,38,-1
 100 600 l 1,39,-1
 100 1300 l 1,40,-1
 200 1300 l 1,41,-1
 200 1400 l 1,42,-1
 300 1400 l 1,43,-1
 300 1500 l 1,44,-1
 900 1500 l 1,45,-1
 900 1400 l 1,46,-1
 1000 1400 l 1,47,-1
 1000 1300 l 1,0,-1
EndSplineSet
Validated: 1
EndChar

StartChar: Egrave
Encoding: 200 200 126
Width: 1200
Flags: W
LayerCount: 2
Fore
SplineSet
1100 1300 m 1,0,-1
 1100 1100 l 1,1,-1
 300 1100 l 1,2,-1
 300 800 l 1,3,-1
 900 800 l 1,4,-1
 900 600 l 1,5,-1
 300 600 l 1,6,-1
 300 300 l 1,7,-1
 1100 300 l 1,8,-1
 1100 100 l 1,9,-1
 100 100 l 1,10,-1
 100 1300 l 1,11,-1
 1100 1300 l 1,0,-1
600 1700 m 1,12,-1
 600 1600 l 1,13,-1
 700 1600 l 1,14,-1
 700 1500 l 1,15,-1
 800 1500 l 1,16,-1
 800 1400 l 1,17,-1
 600 1400 l 1,18,-1
 600 1500 l 1,19,-1
 400 1500 l 1,20,-1
 400 1600 l 1,21,-1
 300 1600 l 1,22,-1
 300 1700 l 1,23,-1
 600 1700 l 1,12,-1
EndSplineSet
Validated: 1
EndChar

StartChar: Eacute
Encoding: 201 201 127
Width: 1200
Flags: W
LayerCount: 2
Fore
SplineSet
600 1600 m 1,0,-1
 600 1700 l 1,1,-1
 900 1700 l 1,2,-1
 900 1600 l 1,3,-1
 800 1600 l 1,4,-1
 800 1500 l 1,5,-1
 600 1500 l 1,6,-1
 600 1400 l 1,7,-1
 400 1400 l 1,8,-1
 400 1500 l 1,9,-1
 500 1500 l 1,10,-1
 500 1600 l 1,11,-1
 600 1600 l 1,0,-1
1100 1300 m 1,12,-1
 1100 1100 l 1,13,-1
 300 1100 l 1,14,-1
 300 800 l 1,15,-1
 900 800 l 1,16,-1
 900 600 l 1,17,-1
 300 600 l 1,18,-1
 300 300 l 1,19,-1
 1100 300 l 1,20,-1
 1100 100 l 1,21,-1
 100 100 l 1,22,-1
 100 1300 l 1,23,-1
 1100 1300 l 1,12,-1
EndSplineSet
Validated: 1
EndChar

StartChar: Ecircumflex
Encoding: 202 202 128
Width: 1200
Flags: W
LayerCount: 2
Fore
SplineSet
1100 1300 m 1,0,-1
 1100 1100 l 1,1,-1
 300 1100 l 1,2,-1
 300 800 l 1,3,-1
 900 800 l 1,4,-1
 900 600 l 1,5,-1
 300 600 l 1,6,-1
 300 300 l 1,7,-1
 1100 300 l 1,8,-1
 1100 100 l 1,9,-1
 100 100 l 1,10,-1
 100 1300 l 1,11,-1
 1100 1300 l 1,0,-1
700 1700 m 1,12,-1
 700 1600 l 1,13,-1
 800 1600 l 1,14,-1
 800 1500 l 1,15,-1
 900 1500 l 1,16,-1
 900 1400 l 1,17,-1
 700 1400 l 1,18,-1
 700 1500 l 1,19,-1
 500 1500 l 1,20,-1
 500 1400 l 1,21,-1
 300 1400 l 1,22,-1
 300 1500 l 1,23,-1
 400 1500 l 1,24,-1
 400 1600 l 1,25,-1
 500 1600 l 1,26,-1
 500 1700 l 1,27,-1
 700 1700 l 1,12,-1
EndSplineSet
Validated: 1
EndChar

StartChar: Edieresis
Encoding: 203 203 129
Width: 1200
Flags: W
LayerCount: 2
Fore
SplineSet
300 1500 m 1,0,-1
 300 1700 l 1,1,-1
 500 1700 l 1,2,-1
 500 1500 l 1,3,-1
 300 1500 l 1,0,-1
900 1700 m 1,4,-1
 900 1500 l 1,5,-1
 700 1500 l 1,6,-1
 700 1700 l 1,7,-1
 900 1700 l 1,4,-1
1100 1300 m 1,8,-1
 1100 1100 l 1,9,-1
 300 1100 l 1,10,-1
 300 800 l 1,11,-1
 900 800 l 1,12,-1
 900 600 l 1,13,-1
 300 600 l 1,14,-1
 300 300 l 1,15,-1
 1100 300 l 1,16,-1
 1100 100 l 1,17,-1
 100 100 l 1,18,-1
 100 1300 l 1,19,-1
 1100 1300 l 1,8,-1
EndSplineSet
Validated: 1
EndChar

StartChar: Igrave
Encoding: 204 204 130
Width: 1200
Flags: W
LayerCount: 2
Fore
SplineSet
300 100 m 1,0,-1
 300 300 l 1,1,-1
 500 300 l 1,2,-1
 500 1100 l 1,3,-1
 300 1100 l 1,4,-1
 300 1300 l 1,5,-1
 900 1300 l 1,6,-1
 900 1100 l 1,7,-1
 700 1100 l 1,8,-1
 700 300 l 1,9,-1
 900 300 l 1,10,-1
 900 100 l 1,11,-1
 300 100 l 1,0,-1
600 1700 m 1,12,-1
 600 1600 l 1,13,-1
 700 1600 l 1,14,-1
 700 1500 l 1,15,-1
 800 1500 l 1,16,-1
 800 1400 l 1,17,-1
 600 1400 l 1,18,-1
 600 1500 l 1,19,-1
 400 1500 l 1,20,-1
 400 1600 l 1,21,-1
 300 1600 l 1,22,-1
 300 1700 l 1,23,-1
 600 1700 l 1,12,-1
EndSplineSet
Validated: 1
EndChar

StartChar: Iacute
Encoding: 205 205 131
Width: 1200
Flags: W
LayerCount: 2
Fore
SplineSet
300 100 m 1,0,-1
 300 300 l 1,1,-1
 500 300 l 1,2,-1
 500 1100 l 1,3,-1
 300 1100 l 1,4,-1
 300 1300 l 1,5,-1
 900 1300 l 1,6,-1
 900 1100 l 1,7,-1
 700 1100 l 1,8,-1
 700 300 l 1,9,-1
 900 300 l 1,10,-1
 900 100 l 1,11,-1
 300 100 l 1,0,-1
900 1700 m 1,12,-1
 900 1600 l 1,13,-1
 800 1600 l 1,14,-1
 800 1500 l 1,15,-1
 600 1500 l 1,16,-1
 600 1400 l 1,17,-1
 400 1400 l 1,18,-1
 400 1500 l 1,19,-1
 500 1500 l 1,20,-1
 500 1600 l 1,21,-1
 600 1600 l 1,22,-1
 600 1700 l 1,23,-1
 900 1700 l 1,12,-1
EndSplineSet
Validated: 1
EndChar

StartChar: Icircumflex
Encoding: 206 206 132
Width: 1200
Flags: W
LayerCount: 2
Fore
SplineSet
300 100 m 1,0,-1
 300 300 l 1,1,-1
 500 300 l 1,2,-1
 500 1100 l 1,3,-1
 300 1100 l 1,4,-1
 300 1300 l 1,5,-1
 900 1300 l 1,6,-1
 900 1100 l 1,7,-1
 700 1100 l 1,8,-1
 700 300 l 1,9,-1
 900 300 l 1,10,-1
 900 100 l 1,11,-1
 300 100 l 1,0,-1
500 1600 m 1,12,-1
 500 1700 l 1,13,-1
 700 1700 l 1,14,-1
 700 1600 l 1,15,-1
 800 1600 l 1,16,-1
 800 1500 l 1,17,-1
 900 1500 l 1,18,-1
 900 1400 l 1,19,-1
 700 1400 l 1,20,-1
 700 1500 l 1,21,-1
 500 1500 l 1,22,-1
 500 1400 l 1,23,-1
 300 1400 l 1,24,-1
 300 1500 l 1,25,-1
 400 1500 l 1,26,-1
 400 1600 l 1,27,-1
 500 1600 l 1,12,-1
EndSplineSet
Validated: 1
EndChar

StartChar: Idieresis
Encoding: 207 207 133
Width: 1200
Flags: W
LayerCount: 2
Fore
SplineSet
300 100 m 1,0,-1
 300 300 l 1,1,-1
 500 300 l 1,2,-1
 500 1100 l 1,3,-1
 300 1100 l 1,4,-1
 300 1300 l 1,5,-1
 900 1300 l 1,6,-1
 900 1100 l 1,7,-1
 700 1100 l 1,8,-1
 700 300 l 1,9,-1
 900 300 l 1,10,-1
 900 100 l 1,11,-1
 300 100 l 1,0,-1
500 1700 m 1,12,-1
 500 1500 l 1,13,-1
 300 1500 l 1,14,-1
 300 1700 l 1,15,-1
 500 1700 l 1,12,-1
900 1700 m 1,16,-1
 900 1500 l 1,17,-1
 700 1500 l 1,18,-1
 700 1700 l 1,19,-1
 900 1700 l 1,16,-1
EndSplineSet
Validated: 1
EndChar

StartChar: Eth
Encoding: 208 208 134
Width: 1200
Flags: W
LayerCount: 2
Fore
SplineSet
200 900 m 1,0,-1
 200 1500 l 1,1,-1
 900 1500 l 1,2,-1
 900 1400 l 1,3,-1
 1000 1400 l 1,4,-1
 1000 1300 l 1,5,-1
 1100 1300 l 1,6,-1
 1100 300 l 1,7,-1
 1000 300 l 1,8,-1
 1000 200 l 1,9,-1
 900 200 l 1,10,-1
 900 100 l 1,11,-1
 200 100 l 1,12,-1
 200 700 l 1,13,-1
 100 700 l 1,14,-1
 100 900 l 1,15,-1
 200 900 l 1,0,-1
400 900 m 1,16,-1
 600 900 l 1,17,-1
 600 700 l 1,18,-1
 400 700 l 1,19,-1
 400 300 l 1,20,-1
 800 300 l 1,21,-1
 800 400 l 1,22,-1
 900 400 l 1,23,-1
 900 1200 l 1,24,-1
 800 1200 l 1,25,-1
 800 1300 l 1,26,-1
 400 1300 l 1,27,-1
 400 900 l 1,16,-1
EndSplineSet
Validated: 1
EndChar

StartChar: Ntilde
Encoding: 209 209 135
Width: 1200
Flags: W
LayerCount: 2
Fore
SplineSet
400 1600 m 1,0,-1
 400 1700 l 1,1,-1
 600 1700 l 1,2,-1
 600 1600 l 1,3,-1
 800 1600 l 1,4,-1
 800 1700 l 1,5,-1
 900 1700 l 1,6,-1
 900 1500 l 1,7,-1
 800 1500 l 1,8,-1
 800 1400 l 1,9,-1
 600 1400 l 1,10,-1
 600 1500 l 1,11,-1
 400 1500 l 1,12,-1
 400 1400 l 1,13,-1
 300 1400 l 1,14,-1
 300 1600 l 1,15,-1
 400 1600 l 1,0,-1
300 800 m 1,16,-1
 300 100 l 1,17,-1
 100 100 l 1,18,-1
 100 1300 l 1,19,-1
 300 1300 l 1,20,-1
 300 1100 l 1,21,-1
 400 1100 l 1,22,-1
 400 1000 l 1,23,-1
 500 1000 l 1,24,-1
 500 900 l 1,25,-1
 600 900 l 1,26,-1
 600 800 l 1,27,-1
 700 800 l 1,28,-1
 700 700 l 1,29,-1
 800 700 l 1,30,-1
 800 600 l 1,31,-1
 900 600 l 1,32,-1
 900 1300 l 1,33,-1
 1100 1300 l 1,34,-1
 1100 100 l 1,35,-1
 900 100 l 1,36,-1
 900 300 l 1,37,-1
 800 300 l 1,38,-1
 800 400 l 1,39,-1
 700 400 l 1,40,-1
 700 500 l 1,41,-1
 600 500 l 1,42,-1
 600 600 l 1,43,-1
 500 600 l 1,44,-1
 500 700 l 1,45,-1
 400 700 l 1,46,-1
 400 800 l 1,47,-1
 300 800 l 1,16,-1
EndSplineSet
Validated: 1
EndChar

StartChar: Ograve
Encoding: 210 210 136
Width: 1200
Flags: W
LayerCount: 2
Fore
SplineSet
600 1700 m 1,0,-1
 600 1600 l 1,1,-1
 700 1600 l 1,2,-1
 700 1500 l 1,3,-1
 800 1500 l 1,4,-1
 800 1400 l 1,5,-1
 600 1400 l 1,6,-1
 600 1500 l 1,7,-1
 400 1500 l 1,8,-1
 400 1600 l 1,9,-1
 300 1600 l 1,10,-1
 300 1700 l 1,11,-1
 600 1700 l 1,0,-1
400 300 m 1,12,-1
 800 300 l 1,13,-1
 800 400 l 1,14,-1
 900 400 l 1,15,-1
 900 1000 l 1,16,-1
 800 1000 l 1,17,-1
 800 1100 l 1,18,-1
 400 1100 l 1,19,-1
 400 1000 l 1,20,-1
 300 1000 l 1,21,-1
 300 400 l 1,22,-1
 400 400 l 1,23,-1
 400 300 l 1,12,-1
300 100 m 1,24,-1
 300 200 l 1,25,-1
 200 200 l 1,26,-1
 200 300 l 1,27,-1
 100 300 l 1,28,-1
 100 1100 l 1,29,-1
 200 1100 l 1,30,-1
 200 1200 l 1,31,-1
 300 1200 l 1,32,-1
 300 1300 l 1,33,-1
 900 1300 l 1,34,-1
 900 1200 l 1,35,-1
 1000 1200 l 1,36,-1
 1000 1100 l 1,37,-1
 1100 1100 l 1,38,-1
 1100 300 l 1,39,-1
 1000 300 l 1,40,-1
 1000 200 l 1,41,-1
 900 200 l 1,42,-1
 900 100 l 1,43,-1
 300 100 l 1,24,-1
EndSplineSet
Validated: 1
EndChar

StartChar: Oacute
Encoding: 211 211 137
Width: 1200
Flags: W
LayerCount: 2
Fore
SplineSet
600 1600 m 1,0,-1
 600 1700 l 1,1,-1
 900 1700 l 1,2,-1
 900 1600 l 1,3,-1
 800 1600 l 1,4,-1
 800 1500 l 1,5,-1
 600 1500 l 1,6,-1
 600 1400 l 1,7,-1
 400 1400 l 1,8,-1
 400 1500 l 1,9,-1
 500 1500 l 1,10,-1
 500 1600 l 1,11,-1
 600 1600 l 1,0,-1
400 300 m 1,12,-1
 800 300 l 1,13,-1
 800 400 l 1,14,-1
 900 400 l 1,15,-1
 900 1000 l 1,16,-1
 800 1000 l 1,17,-1
 800 1100 l 1,18,-1
 400 1100 l 1,19,-1
 400 1000 l 1,20,-1
 300 1000 l 1,21,-1
 300 400 l 1,22,-1
 400 400 l 1,23,-1
 400 300 l 1,12,-1
300 100 m 1,24,-1
 300 200 l 1,25,-1
 200 200 l 1,26,-1
 200 300 l 1,27,-1
 100 300 l 1,28,-1
 100 1100 l 1,29,-1
 200 1100 l 1,30,-1
 200 1200 l 1,31,-1
 300 1200 l 1,32,-1
 300 1300 l 1,33,-1
 900 1300 l 1,34,-1
 900 1200 l 1,35,-1
 1000 1200 l 1,36,-1
 1000 1100 l 1,37,-1
 1100 1100 l 1,38,-1
 1100 300 l 1,39,-1
 1000 300 l 1,40,-1
 1000 200 l 1,41,-1
 900 200 l 1,42,-1
 900 100 l 1,43,-1
 300 100 l 1,24,-1
EndSplineSet
Validated: 1
EndChar

StartChar: Ocircumflex
Encoding: 212 212 138
Width: 1200
Flags: W
LayerCount: 2
Fore
SplineSet
400 300 m 1,0,-1
 800 300 l 1,1,-1
 800 400 l 1,2,-1
 900 400 l 1,3,-1
 900 1000 l 1,4,-1
 800 1000 l 1,5,-1
 800 1100 l 1,6,-1
 400 1100 l 1,7,-1
 400 1000 l 1,8,-1
 300 1000 l 1,9,-1
 300 400 l 1,10,-1
 400 400 l 1,11,-1
 400 300 l 1,0,-1
300 100 m 1,12,-1
 300 200 l 1,13,-1
 200 200 l 1,14,-1
 200 300 l 1,15,-1
 100 300 l 1,16,-1
 100 1100 l 1,17,-1
 200 1100 l 1,18,-1
 200 1200 l 1,19,-1
 300 1200 l 1,20,-1
 300 1300 l 1,21,-1
 900 1300 l 1,22,-1
 900 1200 l 1,23,-1
 1000 1200 l 1,24,-1
 1000 1100 l 1,25,-1
 1100 1100 l 1,26,-1
 1100 300 l 1,27,-1
 1000 300 l 1,28,-1
 1000 200 l 1,29,-1
 900 200 l 1,30,-1
 900 100 l 1,31,-1
 300 100 l 1,12,-1
700 1700 m 1,32,-1
 700 1600 l 1,33,-1
 800 1600 l 1,34,-1
 800 1500 l 1,35,-1
 900 1500 l 1,36,-1
 900 1400 l 1,37,-1
 700 1400 l 1,38,-1
 700 1500 l 1,39,-1
 500 1500 l 1,40,-1
 500 1400 l 1,41,-1
 300 1400 l 1,42,-1
 300 1500 l 1,43,-1
 400 1500 l 1,44,-1
 400 1600 l 1,45,-1
 500 1600 l 1,46,-1
 500 1700 l 1,47,-1
 700 1700 l 1,32,-1
EndSplineSet
Validated: 1
EndChar

StartChar: Otilde
Encoding: 213 213 139
Width: 1200
Flags: W
LayerCount: 2
Fore
SplineSet
400 300 m 1,0,-1
 800 300 l 1,1,-1
 800 400 l 1,2,-1
 900 400 l 1,3,-1
 900 1000 l 1,4,-1
 800 1000 l 1,5,-1
 800 1100 l 1,6,-1
 400 1100 l 1,7,-1
 400 1000 l 1,8,-1
 300 1000 l 1,9,-1
 300 400 l 1,10,-1
 400 400 l 1,11,-1
 400 300 l 1,0,-1
300 100 m 1,12,-1
 300 200 l 1,13,-1
 200 200 l 1,14,-1
 200 300 l 1,15,-1
 100 300 l 1,16,-1
 100 1100 l 1,17,-1
 200 1100 l 1,18,-1
 200 1200 l 1,19,-1
 300 1200 l 1,20,-1
 300 1300 l 1,21,-1
 900 1300 l 1,22,-1
 900 1200 l 1,23,-1
 1000 1200 l 1,24,-1
 1000 1100 l 1,25,-1
 1100 1100 l 1,26,-1
 1100 300 l 1,27,-1
 1000 300 l 1,28,-1
 1000 200 l 1,29,-1
 900 200 l 1,30,-1
 900 100 l 1,31,-1
 300 100 l 1,12,-1
800 1500 m 1,32,-1
 800 1400 l 1,33,-1
 600 1400 l 1,34,-1
 600 1500 l 1,35,-1
 400 1500 l 1,36,-1
 400 1400 l 1,37,-1
 300 1400 l 1,38,-1
 300 1600 l 1,39,-1
 400 1600 l 1,40,-1
 400 1700 l 1,41,-1
 600 1700 l 1,42,-1
 600 1600 l 1,43,-1
 800 1600 l 1,44,-1
 800 1700 l 1,45,-1
 900 1700 l 1,46,-1
 900 1500 l 1,47,-1
 800 1500 l 1,32,-1
EndSplineSet
Validated: 1
EndChar

StartChar: Odieresis
Encoding: 214 214 140
Width: 1200
Flags: W
LayerCount: 2
Fore
SplineSet
400 300 m 1,0,-1
 800 300 l 1,1,-1
 800 400 l 1,2,-1
 900 400 l 1,3,-1
 900 1000 l 1,4,-1
 800 1000 l 1,5,-1
 800 1100 l 1,6,-1
 400 1100 l 1,7,-1
 400 1000 l 1,8,-1
 300 1000 l 1,9,-1
 300 400 l 1,10,-1
 400 400 l 1,11,-1
 400 300 l 1,0,-1
300 100 m 1,12,-1
 300 200 l 1,13,-1
 200 200 l 1,14,-1
 200 300 l 1,15,-1
 100 300 l 1,16,-1
 100 1100 l 1,17,-1
 200 1100 l 1,18,-1
 200 1200 l 1,19,-1
 300 1200 l 1,20,-1
 300 1300 l 1,21,-1
 900 1300 l 1,22,-1
 900 1200 l 1,23,-1
 1000 1200 l 1,24,-1
 1000 1100 l 1,25,-1
 1100 1100 l 1,26,-1
 1100 300 l 1,27,-1
 1000 300 l 1,28,-1
 1000 200 l 1,29,-1
 900 200 l 1,30,-1
 900 100 l 1,31,-1
 300 100 l 1,12,-1
500 1700 m 1,32,-1
 500 1500 l 1,33,-1
 300 1500 l 1,34,-1
 300 1700 l 1,35,-1
 500 1700 l 1,32,-1
900 1700 m 1,36,-1
 900 1500 l 1,37,-1
 700 1500 l 1,38,-1
 700 1700 l 1,39,-1
 900 1700 l 1,36,-1
EndSplineSet
Validated: 1
EndChar

StartChar: Oslash
Encoding: 216 216 141
Width: 1200
Flags: W
LayerCount: 2
Fore
SplineSet
500 300 m 1,0,-1
 800 300 l 1,1,-1
 800 400 l 1,2,-1
 900 400 l 1,3,-1
 900 1100 l 1,4,-1
 800 1100 l 1,5,-1
 800 900 l 1,6,-1
 700 900 l 1,7,-1
 700 700 l 1,8,-1
 600 700 l 1,9,-1
 600 500 l 1,10,-1
 500 500 l 1,11,-1
 500 300 l 1,0,-1
700 1300 m 1,12,-1
 400 1300 l 1,13,-1
 400 1200 l 1,14,-1
 300 1200 l 1,15,-1
 300 500 l 1,16,-1
 400 500 l 1,17,-1
 400 700 l 1,18,-1
 500 700 l 1,19,-1
 500 900 l 1,20,-1
 600 900 l 1,21,-1
 600 1100 l 1,22,-1
 700 1100 l 1,23,-1
 700 1300 l 1,12,-1
400 100 m 1,24,-1
 400 200 l 1,25,-1
 300 200 l 1,26,-1
 300 100 l 1,27,-1
 100 100 l 1,28,-1
 100 300 l 1,29,-1
 200 300 l 1,30,-1
 200 400 l 1,31,-1
 100 400 l 1,32,-1
 100 1300 l 1,33,-1
 200 1300 l 1,34,-1
 200 1400 l 1,35,-1
 300 1400 l 1,36,-1
 300 1500 l 1,37,-1
 800 1500 l 1,38,-1
 800 1400 l 1,39,-1
 900 1400 l 1,40,-1
 900 1500 l 1,41,-1
 1100 1500 l 1,42,-1
 1100 1300 l 1,43,-1
 1000 1300 l 1,44,-1
 1000 1200 l 1,45,-1
 1100 1200 l 1,46,-1
 1100 300 l 1,47,-1
 1000 300 l 1,48,-1
 1000 200 l 1,49,-1
 900 200 l 1,50,-1
 900 100 l 1,51,-1
 400 100 l 1,24,-1
EndSplineSet
Validated: 1
EndChar

StartChar: Ugrave
Encoding: 217 217 142
Width: 1200
Flags: W
LayerCount: 2
Fore
SplineSet
600 1700 m 1,0,-1
 600 1600 l 1,1,-1
 700 1600 l 1,2,-1
 700 1500 l 1,3,-1
 800 1500 l 1,4,-1
 800 1400 l 1,5,-1
 600 1400 l 1,6,-1
 600 1500 l 1,7,-1
 400 1500 l 1,8,-1
 400 1600 l 1,9,-1
 300 1600 l 1,10,-1
 300 1700 l 1,11,-1
 600 1700 l 1,0,-1
200 300 m 1,12,-1
 100 300 l 1,13,-1
 100 1300 l 1,14,-1
 300 1300 l 1,15,-1
 300 400 l 1,16,-1
 400 400 l 1,17,-1
 400 300 l 1,18,-1
 800 300 l 1,19,-1
 800 400 l 1,20,-1
 900 400 l 1,21,-1
 900 1300 l 1,22,-1
 1100 1300 l 1,23,-1
 1100 300 l 1,24,-1
 1000 300 l 1,25,-1
 1000 200 l 1,26,-1
 900 200 l 1,27,-1
 900 100 l 1,28,-1
 300 100 l 1,29,-1
 300 200 l 1,30,-1
 200 200 l 1,31,-1
 200 300 l 1,12,-1
EndSplineSet
Validated: 1
EndChar

StartChar: Uacute
Encoding: 218 218 143
Width: 1200
Flags: W
LayerCount: 2
Fore
SplineSet
900 1700 m 1,0,-1
 900 1600 l 1,1,-1
 800 1600 l 1,2,-1
 800 1500 l 1,3,-1
 600 1500 l 1,4,-1
 600 1400 l 1,5,-1
 400 1400 l 1,6,-1
 400 1500 l 1,7,-1
 500 1500 l 1,8,-1
 500 1600 l 1,9,-1
 600 1600 l 1,10,-1
 600 1700 l 1,11,-1
 900 1700 l 1,0,-1
200 300 m 1,12,-1
 100 300 l 1,13,-1
 100 1300 l 1,14,-1
 300 1300 l 1,15,-1
 300 400 l 1,16,-1
 400 400 l 1,17,-1
 400 300 l 1,18,-1
 800 300 l 1,19,-1
 800 400 l 1,20,-1
 900 400 l 1,21,-1
 900 1300 l 1,22,-1
 1100 1300 l 1,23,-1
 1100 300 l 1,24,-1
 1000 300 l 1,25,-1
 1000 200 l 1,26,-1
 900 200 l 1,27,-1
 900 100 l 1,28,-1
 300 100 l 1,29,-1
 300 200 l 1,30,-1
 200 200 l 1,31,-1
 200 300 l 1,12,-1
EndSplineSet
Validated: 1
EndChar

StartChar: Ucircumflex
Encoding: 219 219 144
Width: 1200
Flags: W
LayerCount: 2
Fore
SplineSet
200 300 m 1,0,-1
 100 300 l 1,1,-1
 100 1300 l 1,2,-1
 300 1300 l 1,3,-1
 300 400 l 1,4,-1
 400 400 l 1,5,-1
 400 300 l 1,6,-1
 800 300 l 1,7,-1
 800 400 l 1,8,-1
 900 400 l 1,9,-1
 900 1300 l 1,10,-1
 1100 1300 l 1,11,-1
 1100 300 l 1,12,-1
 1000 300 l 1,13,-1
 1000 200 l 1,14,-1
 900 200 l 1,15,-1
 900 100 l 1,16,-1
 300 100 l 1,17,-1
 300 200 l 1,18,-1
 200 200 l 1,19,-1
 200 300 l 1,0,-1
700 1700 m 1,20,-1
 700 1600 l 1,21,-1
 800 1600 l 1,22,-1
 800 1500 l 1,23,-1
 900 1500 l 1,24,-1
 900 1400 l 1,25,-1
 700 1400 l 1,26,-1
 700 1500 l 1,27,-1
 500 1500 l 1,28,-1
 500 1400 l 1,29,-1
 300 1400 l 1,30,-1
 300 1500 l 1,31,-1
 400 1500 l 1,32,-1
 400 1600 l 1,33,-1
 500 1600 l 1,34,-1
 500 1700 l 1,35,-1
 700 1700 l 1,20,-1
EndSplineSet
Validated: 1
EndChar

StartChar: Udieresis
Encoding: 220 220 145
Width: 1200
Flags: W
LayerCount: 2
Fore
SplineSet
200 300 m 1,0,-1
 100 300 l 1,1,-1
 100 1300 l 1,2,-1
 300 1300 l 1,3,-1
 300 400 l 1,4,-1
 400 400 l 1,5,-1
 400 300 l 1,6,-1
 800 300 l 1,7,-1
 800 400 l 1,8,-1
 900 400 l 1,9,-1
 900 1300 l 1,10,-1
 1100 1300 l 1,11,-1
 1100 300 l 1,12,-1
 1000 300 l 1,13,-1
 1000 200 l 1,14,-1
 900 200 l 1,15,-1
 900 100 l 1,16,-1
 300 100 l 1,17,-1
 300 200 l 1,18,-1
 200 200 l 1,19,-1
 200 300 l 1,0,-1
300 1500 m 1,20,-1
 300 1700 l 1,21,-1
 500 1700 l 1,22,-1
 500 1500 l 1,23,-1
 300 1500 l 1,20,-1
700 1700 m 1,24,-1
 900 1700 l 1,25,-1
 900 1500 l 1,26,-1
 700 1500 l 1,27,-1
 700 1700 l 1,24,-1
EndSplineSet
Validated: 1
EndChar

StartChar: Yacute
Encoding: 221 221 146
Width: 1200
Flags: W
LayerCount: 2
Fore
SplineSet
600 1600 m 1,0,-1
 600 1700 l 1,1,-1
 900 1700 l 1,2,-1
 900 1600 l 1,3,-1
 800 1600 l 1,4,-1
 800 1500 l 1,5,-1
 600 1500 l 1,6,-1
 600 1400 l 1,7,-1
 400 1400 l 1,8,-1
 400 1500 l 1,9,-1
 500 1500 l 1,10,-1
 500 1600 l 1,11,-1
 600 1600 l 1,0,-1
100 1300 m 1,12,-1
 300 1300 l 1,13,-1
 300 1000 l 1,14,-1
 400 1000 l 1,15,-1
 400 900 l 1,16,-1
 500 900 l 1,17,-1
 500 800 l 1,18,-1
 700 800 l 1,19,-1
 700 900 l 1,20,-1
 800 900 l 1,21,-1
 800 1000 l 1,22,-1
 900 1000 l 1,23,-1
 900 1300 l 1,24,-1
 1100 1300 l 1,25,-1
 1100 900 l 1,26,-1
 1000 900 l 1,27,-1
 1000 800 l 1,28,-1
 900 800 l 1,29,-1
 900 700 l 1,30,-1
 800 700 l 1,31,-1
 800 600 l 1,32,-1
 700 600 l 1,33,-1
 700 100 l 1,34,-1
 500 100 l 1,35,-1
 500 600 l 1,36,-1
 400 600 l 1,37,-1
 400 700 l 1,38,-1
 300 700 l 1,39,-1
 300 800 l 1,40,-1
 200 800 l 1,41,-1
 200 900 l 1,42,-1
 100 900 l 1,43,-1
 100 1300 l 1,12,-1
EndSplineSet
Validated: 1
EndChar

StartChar: Thorn
Encoding: 222 222 147
Width: 1200
Flags: W
LayerCount: 2
Fore
SplineSet
300 400 m 1,0,-1
 300 100 l 1,1,-1
 100 100 l 1,2,-1
 100 1600 l 1,3,-1
 300 1600 l 1,4,-1
 300 1300 l 1,5,-1
 900 1300 l 1,6,-1
 900 1200 l 1,7,-1
 1000 1200 l 1,8,-1
 1000 1100 l 1,9,-1
 1100 1100 l 1,10,-1
 1100 600 l 1,11,-1
 1000 600 l 1,12,-1
 1000 500 l 1,13,-1
 900 500 l 1,14,-1
 900 400 l 1,15,-1
 300 400 l 1,0,-1
300 1100 m 1,16,-1
 300 600 l 1,17,-1
 800 600 l 1,18,-1
 800 700 l 1,19,-1
 900 700 l 1,20,-1
 900 1000 l 1,21,-1
 800 1000 l 1,22,-1
 800 1100 l 1,23,-1
 300 1100 l 1,16,-1
EndSplineSet
Validated: 1
EndChar

StartChar: germandbls
Encoding: 223 223 148
Width: 1200
Flags: W
LayerCount: 2
Fore
SplineSet
300 1400 m 1,0,-1
 300 100 l 1,1,-1
 100 100 l 1,2,-1
 100 1500 l 1,3,-1
 200 1500 l 1,4,-1
 200 1600 l 1,5,-1
 300 1600 l 1,6,-1
 300 1700 l 1,7,-1
 500 1700 l 1,8,-1
 500 1600 l 1,9,-1
 700 1600 l 1,10,-1
 700 1500 l 1,11,-1
 800 1500 l 1,12,-1
 800 1100 l 1,13,-1
 700 1100 l 1,14,-1
 700 800 l 1,15,-1
 800 800 l 1,16,-1
 800 700 l 1,17,-1
 900 700 l 1,18,-1
 900 600 l 1,19,-1
 1000 600 l 1,20,-1
 1000 200 l 1,21,-1
 900 200 l 1,22,-1
 900 100 l 1,23,-1
 400 100 l 1,24,-1
 400 300 l 1,25,-1
 800 300 l 1,26,-1
 800 500 l 1,27,-1
 700 500 l 1,28,-1
 700 600 l 1,29,-1
 600 600 l 1,30,-1
 600 700 l 1,31,-1
 500 700 l 1,32,-1
 500 1100 l 1,33,-1
 600 1100 l 1,34,-1
 600 1400 l 1,35,-1
 500 1400 l 1,36,-1
 500 1500 l 1,37,-1
 400 1500 l 1,38,-1
 400 1400 l 1,39,-1
 300 1400 l 1,0,-1
EndSplineSet
Validated: 1
EndChar

StartChar: agrave
Encoding: 224 224 149
Width: 1200
Flags: W
LayerCount: 2
Fore
SplineSet
400 300 m 1,0,-1
 800 300 l 1,1,-1
 800 400 l 1,2,-1
 900 400 l 1,3,-1
 900 500 l 1,4,-1
 800 500 l 1,5,-1
 800 600 l 1,6,-1
 400 600 l 1,7,-1
 400 500 l 1,8,-1
 300 500 l 1,9,-1
 300 400 l 1,10,-1
 400 400 l 1,11,-1
 400 300 l 1,0,-1
300 100 m 1,12,-1
 300 200 l 1,13,-1
 200 200 l 1,14,-1
 200 300 l 1,15,-1
 100 300 l 1,16,-1
 100 600 l 1,17,-1
 200 600 l 1,18,-1
 200 700 l 1,19,-1
 300 700 l 1,20,-1
 300 800 l 1,21,-1
 800 800 l 1,22,-1
 800 700 l 1,23,-1
 900 700 l 1,24,-1
 900 900 l 1,25,-1
 300 900 l 1,26,-1
 300 1100 l 1,27,-1
 900 1100 l 1,28,-1
 900 1000 l 1,29,-1
 1000 1000 l 1,30,-1
 1000 900 l 1,31,-1
 1100 900 l 1,32,-1
 1100 100 l 1,33,-1
 900 100 l 1,34,-1
 900 200 l 1,35,-1
 800 200 l 1,36,-1
 800 100 l 1,37,-1
 300 100 l 1,12,-1
600 1500 m 1,38,-1
 600 1400 l 1,39,-1
 700 1400 l 1,40,-1
 700 1300 l 1,41,-1
 800 1300 l 1,42,-1
 800 1200 l 1,43,-1
 600 1200 l 1,44,-1
 600 1300 l 1,45,-1
 400 1300 l 1,46,-1
 400 1400 l 1,47,-1
 300 1400 l 1,48,-1
 300 1500 l 1,49,-1
 600 1500 l 1,38,-1
EndSplineSet
Validated: 1
EndChar

StartChar: aacute
Encoding: 225 225 150
Width: 1200
Flags: W
LayerCount: 2
Fore
SplineSet
400 300 m 1,0,-1
 800 300 l 1,1,-1
 800 400 l 1,2,-1
 900 400 l 1,3,-1
 900 500 l 1,4,-1
 800 500 l 1,5,-1
 800 600 l 1,6,-1
 400 600 l 1,7,-1
 400 500 l 1,8,-1
 300 500 l 1,9,-1
 300 400 l 1,10,-1
 400 400 l 1,11,-1
 400 300 l 1,0,-1
300 100 m 1,12,-1
 300 200 l 1,13,-1
 200 200 l 1,14,-1
 200 300 l 1,15,-1
 100 300 l 1,16,-1
 100 600 l 1,17,-1
 200 600 l 1,18,-1
 200 700 l 1,19,-1
 300 700 l 1,20,-1
 300 800 l 1,21,-1
 800 800 l 1,22,-1
 800 700 l 1,23,-1
 900 700 l 1,24,-1
 900 900 l 1,25,-1
 300 900 l 1,26,-1
 300 1100 l 1,27,-1
 900 1100 l 1,28,-1
 900 1000 l 1,29,-1
 1000 1000 l 1,30,-1
 1000 900 l 1,31,-1
 1100 900 l 1,32,-1
 1100 100 l 1,33,-1
 900 100 l 1,34,-1
 900 200 l 1,35,-1
 800 200 l 1,36,-1
 800 100 l 1,37,-1
 300 100 l 1,12,-1
600 1400 m 1,38,-1
 600 1500 l 1,39,-1
 900 1500 l 1,40,-1
 900 1400 l 1,41,-1
 800 1400 l 1,42,-1
 800 1300 l 1,43,-1
 600 1300 l 1,44,-1
 600 1200 l 1,45,-1
 400 1200 l 1,46,-1
 400 1300 l 1,47,-1
 500 1300 l 1,48,-1
 500 1400 l 1,49,-1
 600 1400 l 1,38,-1
EndSplineSet
Validated: 1
EndChar

StartChar: acircumflex
Encoding: 226 226 151
Width: 1200
Flags: W
LayerCount: 2
Fore
SplineSet
400 300 m 1,0,-1
 800 300 l 1,1,-1
 800 400 l 1,2,-1
 900 400 l 1,3,-1
 900 500 l 1,4,-1
 800 500 l 1,5,-1
 800 600 l 1,6,-1
 400 600 l 1,7,-1
 400 500 l 1,8,-1
 300 500 l 1,9,-1
 300 400 l 1,10,-1
 400 400 l 1,11,-1
 400 300 l 1,0,-1
300 100 m 1,12,-1
 300 200 l 1,13,-1
 200 200 l 1,14,-1
 200 300 l 1,15,-1
 100 300 l 1,16,-1
 100 600 l 1,17,-1
 200 600 l 1,18,-1
 200 700 l 1,19,-1
 300 700 l 1,20,-1
 300 800 l 1,21,-1
 800 800 l 1,22,-1
 800 700 l 1,23,-1
 900 700 l 1,24,-1
 900 900 l 1,25,-1
 300 900 l 1,26,-1
 300 1100 l 1,27,-1
 900 1100 l 1,28,-1
 900 1000 l 1,29,-1
 1000 1000 l 1,30,-1
 1000 900 l 1,31,-1
 1100 900 l 1,32,-1
 1100 100 l 1,33,-1
 900 100 l 1,34,-1
 900 200 l 1,35,-1
 800 200 l 1,36,-1
 800 100 l 1,37,-1
 300 100 l 1,12,-1
700 1500 m 1,38,-1
 700 1400 l 1,39,-1
 800 1400 l 1,40,-1
 800 1300 l 1,41,-1
 900 1300 l 1,42,-1
 900 1200 l 1,43,-1
 700 1200 l 1,44,-1
 700 1300 l 1,45,-1
 500 1300 l 1,46,-1
 500 1200 l 1,47,-1
 300 1200 l 1,48,-1
 300 1300 l 1,49,-1
 400 1300 l 1,50,-1
 400 1400 l 1,51,-1
 500 1400 l 1,52,-1
 500 1500 l 1,53,-1
 700 1500 l 1,38,-1
EndSplineSet
Validated: 1
EndChar

StartChar: atilde
Encoding: 227 227 152
Width: 1200
Flags: W
LayerCount: 2
Fore
SplineSet
400 300 m 1,0,-1
 800 300 l 1,1,-1
 800 400 l 1,2,-1
 900 400 l 1,3,-1
 900 500 l 1,4,-1
 800 500 l 1,5,-1
 800 600 l 1,6,-1
 400 600 l 1,7,-1
 400 500 l 1,8,-1
 300 500 l 1,9,-1
 300 400 l 1,10,-1
 400 400 l 1,11,-1
 400 300 l 1,0,-1
300 100 m 1,12,-1
 300 200 l 1,13,-1
 200 200 l 1,14,-1
 200 300 l 1,15,-1
 100 300 l 1,16,-1
 100 600 l 1,17,-1
 200 600 l 1,18,-1
 200 700 l 1,19,-1
 300 700 l 1,20,-1
 300 800 l 1,21,-1
 800 800 l 1,22,-1
 800 700 l 1,23,-1
 900 700 l 1,24,-1
 900 900 l 1,25,-1
 300 900 l 1,26,-1
 300 1100 l 1,27,-1
 900 1100 l 1,28,-1
 900 1000 l 1,29,-1
 1000 1000 l 1,30,-1
 1000 900 l 1,31,-1
 1100 900 l 1,32,-1
 1100 100 l 1,33,-1
 900 100 l 1,34,-1
 900 200 l 1,35,-1
 800 200 l 1,36,-1
 800 100 l 1,37,-1
 300 100 l 1,12,-1
800 1300 m 1,38,-1
 800 1200 l 1,39,-1
 600 1200 l 1,40,-1
 600 1300 l 1,41,-1
 400 1300 l 1,42,-1
 400 1200 l 1,43,-1
 300 1200 l 1,44,-1
 300 1400 l 1,45,-1
 400 1400 l 1,46,-1
 400 1500 l 1,47,-1
 600 1500 l 1,48,-1
 600 1400 l 1,49,-1
 800 1400 l 1,50,-1
 800 1500 l 1,51,-1
 900 1500 l 1,52,-1
 900 1300 l 1,53,-1
 800 1300 l 1,38,-1
EndSplineSet
Validated: 1
EndChar

StartChar: adieresis
Encoding: 228 228 153
Width: 1200
Flags: W
LayerCount: 2
Fore
SplineSet
300 1300 m 1,0,-1
 300 1500 l 1,1,-1
 500 1500 l 1,2,-1
 500 1300 l 1,3,-1
 300 1300 l 1,0,-1
700 1500 m 1,4,-1
 900 1500 l 1,5,-1
 900 1300 l 1,6,-1
 700 1300 l 1,7,-1
 700 1500 l 1,4,-1
400 300 m 1,8,-1
 800 300 l 1,9,-1
 800 400 l 1,10,-1
 900 400 l 1,11,-1
 900 500 l 1,12,-1
 800 500 l 1,13,-1
 800 600 l 1,14,-1
 400 600 l 1,15,-1
 400 500 l 1,16,-1
 300 500 l 1,17,-1
 300 400 l 1,18,-1
 400 400 l 1,19,-1
 400 300 l 1,8,-1
300 100 m 1,20,-1
 300 200 l 1,21,-1
 200 200 l 1,22,-1
 200 300 l 1,23,-1
 100 300 l 1,24,-1
 100 600 l 1,25,-1
 200 600 l 1,26,-1
 200 700 l 1,27,-1
 300 700 l 1,28,-1
 300 800 l 1,29,-1
 800 800 l 1,30,-1
 800 700 l 1,31,-1
 900 700 l 1,32,-1
 900 900 l 1,33,-1
 300 900 l 1,34,-1
 300 1100 l 1,35,-1
 900 1100 l 1,36,-1
 900 1000 l 1,37,-1
 1000 1000 l 1,38,-1
 1000 900 l 1,39,-1
 1100 900 l 1,40,-1
 1100 100 l 1,41,-1
 900 100 l 1,42,-1
 900 200 l 1,43,-1
 800 200 l 1,44,-1
 800 100 l 1,45,-1
 300 100 l 1,20,-1
EndSplineSet
Validated: 1
EndChar

StartChar: aring
Encoding: 229 229 154
Width: 1200
Flags: W
LayerCount: 2
Fore
SplineSet
400 300 m 1,0,-1
 800 300 l 1,1,-1
 800 400 l 1,2,-1
 900 400 l 1,3,-1
 900 500 l 1,4,-1
 800 500 l 1,5,-1
 800 600 l 1,6,-1
 400 600 l 1,7,-1
 400 500 l 1,8,-1
 300 500 l 1,9,-1
 300 400 l 1,10,-1
 400 400 l 1,11,-1
 400 300 l 1,0,-1
300 100 m 1,12,-1
 300 200 l 1,13,-1
 200 200 l 1,14,-1
 200 300 l 1,15,-1
 100 300 l 1,16,-1
 100 600 l 1,17,-1
 200 600 l 1,18,-1
 200 700 l 1,19,-1
 300 700 l 1,20,-1
 300 800 l 1,21,-1
 800 800 l 1,22,-1
 800 700 l 1,23,-1
 900 700 l 1,24,-1
 900 900 l 1,25,-1
 300 900 l 1,26,-1
 300 1100 l 1,27,-1
 900 1100 l 1,28,-1
 900 1000 l 1,29,-1
 1000 1000 l 1,30,-1
 1000 900 l 1,31,-1
 1100 900 l 1,32,-1
 1100 100 l 1,33,-1
 900 100 l 1,34,-1
 900 200 l 1,35,-1
 800 200 l 1,36,-1
 800 100 l 1,37,-1
 300 100 l 1,12,-1
400 1400 m 1,38,-1
 500 1400 l 1,39,-1
 500 1200 l 1,40,-1
 400 1200 l 1,41,-1
 400 1400 l 1,38,-1
500 1100 m 1,42,-1
 500 1200 l 1,43,-1
 700 1200 l 1,44,-1
 700 1100 l 1,45,-1
 500 1100 l 1,42,-1
700 1500 m 1,46,-1
 700 1400 l 1,47,-1
 500 1400 l 1,48,-1
 500 1500 l 1,49,-1
 700 1500 l 1,46,-1
800 1200 m 1,50,-1
 700 1200 l 1,51,-1
 700 1400 l 1,52,-1
 800 1400 l 1,53,-1
 800 1200 l 1,50,-1
EndSplineSet
Validated: 5
EndChar

StartChar: ae
Encoding: 230 230 155
Width: 1200
Flags: W
LayerCount: 2
Fore
SplineSet
700 800 m 1,0,-1
 900 800 l 1,1,-1
 900 1000 l 1,2,-1
 700 1000 l 1,3,-1
 700 800 l 1,0,-1
500 600 m 1,4,-1
 300 600 l 1,5,-1
 300 300 l 1,6,-1
 500 300 l 1,7,-1
 500 600 l 1,4,-1
200 100 m 1,8,-1
 200 200 l 1,9,-1
 100 200 l 1,10,-1
 100 700 l 1,11,-1
 200 700 l 1,12,-1
 200 800 l 1,13,-1
 500 800 l 1,14,-1
 500 1000 l 1,15,-1
 100 1000 l 1,16,-1
 100 1200 l 1,17,-1
 500 1200 l 1,18,-1
 500 1100 l 1,19,-1
 700 1100 l 1,20,-1
 700 1200 l 1,21,-1
 1000 1200 l 1,22,-1
 1000 1100 l 1,23,-1
 1100 1100 l 1,24,-1
 1100 600 l 1,25,-1
 700 600 l 1,26,-1
 700 300 l 1,27,-1
 1000 300 l 1,28,-1
 1000 100 l 1,29,-1
 700 100 l 1,30,-1
 700 200 l 1,31,-1
 600 200 l 1,32,-1
 600 100 l 1,33,-1
 200 100 l 1,8,-1
EndSplineSet
Validated: 1
EndChar

StartChar: ccedilla
Encoding: 231 231 156
Width: 1200
Flags: W
LayerCount: 2
Fore
SplineSet
500 400 m 1,0,-1
 300 400 l 1,1,-1
 300 500 l 1,2,-1
 200 500 l 1,3,-1
 200 600 l 1,4,-1
 100 600 l 1,5,-1
 100 1200 l 1,6,-1
 200 1200 l 1,7,-1
 200 1300 l 1,8,-1
 300 1300 l 1,9,-1
 300 1400 l 1,10,-1
 900 1400 l 1,11,-1
 900 1300 l 1,12,-1
 1000 1300 l 1,13,-1
 1000 1200 l 1,14,-1
 1100 1200 l 1,15,-1
 1100 1000 l 1,16,-1
 900 1000 l 1,17,-1
 900 1100 l 1,18,-1
 800 1100 l 1,19,-1
 800 1200 l 1,20,-1
 400 1200 l 1,21,-1
 400 1100 l 1,22,-1
 300 1100 l 1,23,-1
 300 700 l 1,24,-1
 400 700 l 1,25,-1
 400 600 l 1,26,-1
 800 600 l 1,27,-1
 800 700 l 1,28,-1
 900 700 l 1,29,-1
 900 800 l 1,30,-1
 1100 800 l 1,31,-1
 1100 600 l 1,32,-1
 1000 600 l 1,33,-1
 1000 500 l 1,34,-1
 900 500 l 1,35,-1
 900 400 l 1,36,-1
 800 400 l 1,37,-1
 800 300 l 1,38,-1
 700 300 l 1,39,-1
 700 200 l 1,40,-1
 600 200 l 1,41,-1
 600 100 l 1,42,-1
 300 100 l 1,43,-1
 300 200 l 1,44,-1
 400 200 l 1,45,-1
 400 300 l 1,46,-1
 500 300 l 1,47,-1
 500 400 l 1,0,-1
EndSplineSet
Validated: 1
EndChar

StartChar: egrave
Encoding: 232 232 157
Width: 1200
Flags: W
LayerCount: 2
Fore
SplineSet
600 1500 m 1,0,-1
 600 1400 l 1,1,-1
 700 1400 l 1,2,-1
 700 1300 l 1,3,-1
 800 1300 l 1,4,-1
 800 1200 l 1,5,-1
 600 1200 l 1,6,-1
 600 1300 l 1,7,-1
 400 1300 l 1,8,-1
 400 1400 l 1,9,-1
 300 1400 l 1,10,-1
 300 1500 l 1,11,-1
 600 1500 l 1,0,-1
1100 400 m 1,12,-1
 1100 300 l 1,13,-1
 1000 300 l 1,14,-1
 1000 200 l 1,15,-1
 900 200 l 1,16,-1
 900 100 l 1,17,-1
 300 100 l 1,18,-1
 300 200 l 1,19,-1
 200 200 l 1,20,-1
 200 300 l 1,21,-1
 100 300 l 1,22,-1
 100 900 l 1,23,-1
 200 900 l 1,24,-1
 200 1000 l 1,25,-1
 300 1000 l 1,26,-1
 300 1100 l 1,27,-1
 900 1100 l 1,28,-1
 900 1000 l 1,29,-1
 1000 1000 l 1,30,-1
 1000 900 l 1,31,-1
 1100 900 l 1,32,-1
 1100 600 l 1,33,-1
 1000 600 l 1,34,-1
 1000 500 l 1,35,-1
 300 500 l 1,36,-1
 300 400 l 1,37,-1
 400 400 l 1,38,-1
 400 300 l 1,39,-1
 800 300 l 1,40,-1
 800 400 l 1,41,-1
 1100 400 l 1,12,-1
300 700 m 1,42,-1
 900 700 l 1,43,-1
 900 800 l 1,44,-1
 800 800 l 1,45,-1
 800 900 l 1,46,-1
 400 900 l 1,47,-1
 400 800 l 1,48,-1
 300 800 l 1,49,-1
 300 700 l 1,42,-1
EndSplineSet
Validated: 1
EndChar

StartChar: eacute
Encoding: 233 233 158
Width: 1200
Flags: W
LayerCount: 2
Fore
SplineSet
1100 400 m 1,0,-1
 1100 300 l 1,1,-1
 1000 300 l 1,2,-1
 1000 200 l 1,3,-1
 900 200 l 1,4,-1
 900 100 l 1,5,-1
 300 100 l 1,6,-1
 300 200 l 1,7,-1
 200 200 l 1,8,-1
 200 300 l 1,9,-1
 100 300 l 1,10,-1
 100 900 l 1,11,-1
 200 900 l 1,12,-1
 200 1000 l 1,13,-1
 300 1000 l 1,14,-1
 300 1100 l 1,15,-1
 900 1100 l 1,16,-1
 900 1000 l 1,17,-1
 1000 1000 l 1,18,-1
 1000 900 l 1,19,-1
 1100 900 l 1,20,-1
 1100 600 l 1,21,-1
 1000 600 l 1,22,-1
 1000 500 l 1,23,-1
 300 500 l 1,24,-1
 300 400 l 1,25,-1
 400 400 l 1,26,-1
 400 300 l 1,27,-1
 800 300 l 1,28,-1
 800 400 l 1,29,-1
 1100 400 l 1,0,-1
300 700 m 1,30,-1
 900 700 l 1,31,-1
 900 800 l 1,32,-1
 800 800 l 1,33,-1
 800 900 l 1,34,-1
 400 900 l 1,35,-1
 400 800 l 1,36,-1
 300 800 l 1,37,-1
 300 700 l 1,30,-1
600 1400 m 1,38,-1
 600 1500 l 1,39,-1
 900 1500 l 1,40,-1
 900 1400 l 1,41,-1
 800 1400 l 1,42,-1
 800 1300 l 1,43,-1
 600 1300 l 1,44,-1
 600 1200 l 1,45,-1
 400 1200 l 1,46,-1
 400 1300 l 1,47,-1
 500 1300 l 1,48,-1
 500 1400 l 1,49,-1
 600 1400 l 1,38,-1
EndSplineSet
Validated: 1
EndChar

StartChar: ecircumflex
Encoding: 234 234 159
Width: 1200
Flags: W
LayerCount: 2
Fore
SplineSet
1100 400 m 1,0,-1
 1100 300 l 1,1,-1
 1000 300 l 1,2,-1
 1000 200 l 1,3,-1
 900 200 l 1,4,-1
 900 100 l 1,5,-1
 300 100 l 1,6,-1
 300 200 l 1,7,-1
 200 200 l 1,8,-1
 200 300 l 1,9,-1
 100 300 l 1,10,-1
 100 900 l 1,11,-1
 200 900 l 1,12,-1
 200 1000 l 1,13,-1
 300 1000 l 1,14,-1
 300 1100 l 1,15,-1
 900 1100 l 1,16,-1
 900 1000 l 1,17,-1
 1000 1000 l 1,18,-1
 1000 900 l 1,19,-1
 1100 900 l 1,20,-1
 1100 600 l 1,21,-1
 1000 600 l 1,22,-1
 1000 500 l 1,23,-1
 300 500 l 1,24,-1
 300 400 l 1,25,-1
 400 400 l 1,26,-1
 400 300 l 1,27,-1
 800 300 l 1,28,-1
 800 400 l 1,29,-1
 1100 400 l 1,0,-1
300 700 m 1,30,-1
 900 700 l 1,31,-1
 900 800 l 1,32,-1
 800 800 l 1,33,-1
 800 900 l 1,34,-1
 400 900 l 1,35,-1
 400 800 l 1,36,-1
 300 800 l 1,37,-1
 300 700 l 1,30,-1
700 1500 m 1,38,-1
 700 1400 l 1,39,-1
 800 1400 l 1,40,-1
 800 1300 l 1,41,-1
 900 1300 l 1,42,-1
 900 1200 l 1,43,-1
 700 1200 l 1,44,-1
 700 1300 l 1,45,-1
 500 1300 l 1,46,-1
 500 1200 l 1,47,-1
 300 1200 l 1,48,-1
 300 1300 l 1,49,-1
 400 1300 l 1,50,-1
 400 1400 l 1,51,-1
 500 1400 l 1,52,-1
 500 1500 l 1,53,-1
 700 1500 l 1,38,-1
EndSplineSet
Validated: 1
EndChar

StartChar: edieresis
Encoding: 235 235 160
Width: 1200
Flags: W
LayerCount: 2
Fore
SplineSet
1100 400 m 1,0,-1
 1100 300 l 1,1,-1
 1000 300 l 1,2,-1
 1000 200 l 1,3,-1
 900 200 l 1,4,-1
 900 100 l 1,5,-1
 300 100 l 1,6,-1
 300 200 l 1,7,-1
 200 200 l 1,8,-1
 200 300 l 1,9,-1
 100 300 l 1,10,-1
 100 900 l 1,11,-1
 200 900 l 1,12,-1
 200 1000 l 1,13,-1
 300 1000 l 1,14,-1
 300 1100 l 1,15,-1
 900 1100 l 1,16,-1
 900 1000 l 1,17,-1
 1000 1000 l 1,18,-1
 1000 900 l 1,19,-1
 1100 900 l 1,20,-1
 1100 600 l 1,21,-1
 1000 600 l 1,22,-1
 1000 500 l 1,23,-1
 300 500 l 1,24,-1
 300 400 l 1,25,-1
 400 400 l 1,26,-1
 400 300 l 1,27,-1
 800 300 l 1,28,-1
 800 400 l 1,29,-1
 1100 400 l 1,0,-1
300 700 m 1,30,-1
 900 700 l 1,31,-1
 900 800 l 1,32,-1
 800 800 l 1,33,-1
 800 900 l 1,34,-1
 400 900 l 1,35,-1
 400 800 l 1,36,-1
 300 800 l 1,37,-1
 300 700 l 1,30,-1
300 1300 m 1,38,-1
 300 1500 l 1,39,-1
 500 1500 l 1,40,-1
 500 1300 l 1,41,-1
 300 1300 l 1,38,-1
700 1500 m 1,42,-1
 900 1500 l 1,43,-1
 900 1300 l 1,44,-1
 700 1300 l 1,45,-1
 700 1500 l 1,42,-1
EndSplineSet
Validated: 1
EndChar

StartChar: igrave
Encoding: 236 236 161
Width: 1200
Flags: W
LayerCount: 2
Fore
SplineSet
800 300 m 1,0,-1
 900 300 l 1,1,-1
 900 100 l 1,2,-1
 700 100 l 1,3,-1
 700 200 l 1,4,-1
 600 200 l 1,5,-1
 600 300 l 1,6,-1
 500 300 l 1,7,-1
 500 800 l 1,8,-1
 300 800 l 1,9,-1
 300 1000 l 1,10,-1
 700 1000 l 1,11,-1
 700 400 l 1,12,-1
 800 400 l 1,13,-1
 800 300 l 1,0,-1
800 300 m 1,14,-1
 900 300 l 1,15,-1
 900 100 l 1,16,-1
 700 100 l 1,17,-1
 700 200 l 1,18,-1
 600 200 l 1,19,-1
 600 300 l 1,20,-1
 500 300 l 1,21,-1
 500 800 l 1,22,-1
 300 800 l 1,23,-1
 300 1000 l 1,24,-1
 700 1000 l 1,25,-1
 700 400 l 1,26,-1
 800 400 l 1,27,-1
 800 300 l 1,14,-1
500 1500 m 1,28,-1
 500 1400 l 1,29,-1
 600 1400 l 1,30,-1
 600 1300 l 1,31,-1
 700 1300 l 1,32,-1
 700 1200 l 1,33,-1
 500 1200 l 1,34,-1
 500 1300 l 1,35,-1
 300 1300 l 1,36,-1
 300 1400 l 1,37,-1
 200 1400 l 1,38,-1
 200 1500 l 1,39,-1
 500 1500 l 1,28,-1
EndSplineSet
Validated: 5
EndChar

StartChar: iacute
Encoding: 237 237 162
Width: 1200
Flags: W
LayerCount: 2
Fore
SplineSet
800 300 m 1,0,-1
 900 300 l 1,1,-1
 900 100 l 1,2,-1
 700 100 l 1,3,-1
 700 200 l 1,4,-1
 600 200 l 1,5,-1
 600 300 l 1,6,-1
 500 300 l 1,7,-1
 500 800 l 1,8,-1
 300 800 l 1,9,-1
 300 1000 l 1,10,-1
 700 1000 l 1,11,-1
 700 400 l 1,12,-1
 800 400 l 1,13,-1
 800 300 l 1,0,-1
800 300 m 1,14,-1
 900 300 l 1,15,-1
 900 100 l 1,16,-1
 700 100 l 1,17,-1
 700 200 l 1,18,-1
 600 200 l 1,19,-1
 600 300 l 1,20,-1
 500 300 l 1,21,-1
 500 800 l 1,22,-1
 300 800 l 1,23,-1
 300 1000 l 1,24,-1
 700 1000 l 1,25,-1
 700 400 l 1,26,-1
 800 400 l 1,27,-1
 800 300 l 1,14,-1
900 1500 m 1,28,-1
 900 1400 l 1,29,-1
 800 1400 l 1,30,-1
 800 1300 l 1,31,-1
 600 1300 l 1,32,-1
 600 1200 l 1,33,-1
 400 1200 l 1,34,-1
 400 1300 l 1,35,-1
 500 1300 l 1,36,-1
 500 1400 l 1,37,-1
 600 1400 l 1,38,-1
 600 1500 l 1,39,-1
 900 1500 l 1,28,-1
EndSplineSet
Validated: 5
EndChar

StartChar: icircumflex
Encoding: 238 238 163
Width: 1200
Flags: W
LayerCount: 2
Fore
SplineSet
800 300 m 1,0,-1
 900 300 l 1,1,-1
 900 100 l 1,2,-1
 700 100 l 1,3,-1
 700 200 l 1,4,-1
 600 200 l 1,5,-1
 600 300 l 1,6,-1
 500 300 l 1,7,-1
 500 800 l 1,8,-1
 300 800 l 1,9,-1
 300 1000 l 1,10,-1
 700 1000 l 1,11,-1
 700 400 l 1,12,-1
 800 400 l 1,13,-1
 800 300 l 1,0,-1
800 300 m 1,14,-1
 900 300 l 1,15,-1
 900 100 l 1,16,-1
 700 100 l 1,17,-1
 700 200 l 1,18,-1
 600 200 l 1,19,-1
 600 300 l 1,20,-1
 500 300 l 1,21,-1
 500 800 l 1,22,-1
 300 800 l 1,23,-1
 300 1000 l 1,24,-1
 700 1000 l 1,25,-1
 700 400 l 1,26,-1
 800 400 l 1,27,-1
 800 300 l 1,14,-1
600 1500 m 1,28,-1
 600 1400 l 1,29,-1
 700 1400 l 1,30,-1
 700 1300 l 1,31,-1
 800 1300 l 1,32,-1
 800 1200 l 1,33,-1
 600 1200 l 1,34,-1
 600 1300 l 1,35,-1
 400 1300 l 1,36,-1
 400 1200 l 1,37,-1
 200 1200 l 1,38,-1
 200 1300 l 1,39,-1
 300 1300 l 1,40,-1
 300 1400 l 1,41,-1
 400 1400 l 1,42,-1
 400 1500 l 1,43,-1
 600 1500 l 1,28,-1
EndSplineSet
Validated: 5
EndChar

StartChar: idieresis
Encoding: 239 239 164
Width: 1200
Flags: W
LayerCount: 2
Fore
SplineSet
800 300 m 1,0,-1
 900 300 l 1,1,-1
 900 100 l 1,2,-1
 700 100 l 1,3,-1
 700 200 l 1,4,-1
 600 200 l 1,5,-1
 600 300 l 1,6,-1
 500 300 l 1,7,-1
 500 800 l 1,8,-1
 300 800 l 1,9,-1
 300 1000 l 1,10,-1
 700 1000 l 1,11,-1
 700 400 l 1,12,-1
 800 400 l 1,13,-1
 800 300 l 1,0,-1
800 300 m 1,14,-1
 900 300 l 1,15,-1
 900 100 l 1,16,-1
 700 100 l 1,17,-1
 700 200 l 1,18,-1
 600 200 l 1,19,-1
 600 300 l 1,20,-1
 500 300 l 1,21,-1
 500 800 l 1,22,-1
 300 800 l 1,23,-1
 300 1000 l 1,24,-1
 700 1000 l 1,25,-1
 700 400 l 1,26,-1
 800 400 l 1,27,-1
 800 300 l 1,14,-1
200 1300 m 1,28,-1
 200 1500 l 1,29,-1
 400 1500 l 1,30,-1
 400 1300 l 1,31,-1
 200 1300 l 1,28,-1
600 1500 m 1,32,-1
 800 1500 l 1,33,-1
 800 1300 l 1,34,-1
 600 1300 l 1,35,-1
 600 1500 l 1,32,-1
EndSplineSet
Validated: 5
EndChar

StartChar: eth
Encoding: 240 240 165
Width: 1200
Flags: W
LayerCount: 2
Fore
SplineSet
300 400 m 1,0,-1
 400 400 l 1,1,-1
 400 300 l 1,2,-1
 700 300 l 1,3,-1
 700 400 l 1,4,-1
 800 400 l 1,5,-1
 800 900 l 1,6,-1
 400 900 l 1,7,-1
 400 800 l 1,8,-1
 300 800 l 1,9,-1
 300 400 l 1,0,-1
200 300 m 1,10,-1
 100 300 l 1,11,-1
 100 900 l 1,12,-1
 200 900 l 1,13,-1
 200 1000 l 1,14,-1
 300 1000 l 1,15,-1
 300 1100 l 1,16,-1
 800 1100 l 1,17,-1
 800 1200 l 1,18,-1
 400 1200 l 1,19,-1
 400 1400 l 1,20,-1
 800 1400 l 1,21,-1
 800 1600 l 1,22,-1
 1000 1600 l 1,23,-1
 1000 1400 l 1,24,-1
 1100 1400 l 1,25,-1
 1100 1200 l 1,26,-1
 1000 1200 l 1,27,-1
 1000 300 l 1,28,-1
 900 300 l 1,29,-1
 900 200 l 1,30,-1
 800 200 l 1,31,-1
 800 100 l 1,32,-1
 300 100 l 1,33,-1
 300 200 l 1,34,-1
 200 200 l 1,35,-1
 200 300 l 1,10,-1
EndSplineSet
Validated: 1
EndChar

StartChar: ntilde
Encoding: 241 241 166
Width: 1200
Flags: W
LayerCount: 2
Fore
SplineSet
300 800 m 1,0,-1
 300 100 l 1,1,-1
 100 100 l 1,2,-1
 100 1100 l 1,3,-1
 300 1100 l 1,4,-1
 300 1000 l 1,5,-1
 400 1000 l 1,6,-1
 400 1100 l 1,7,-1
 900 1100 l 1,8,-1
 900 1000 l 1,9,-1
 1000 1000 l 1,10,-1
 1000 900 l 1,11,-1
 1100 900 l 1,12,-1
 1100 100 l 1,13,-1
 900 100 l 1,14,-1
 900 800 l 1,15,-1
 800 800 l 1,16,-1
 800 900 l 1,17,-1
 400 900 l 1,18,-1
 400 800 l 1,19,-1
 300 800 l 1,0,-1
800 1300 m 1,20,-1
 800 1200 l 1,21,-1
 600 1200 l 1,22,-1
 600 1300 l 1,23,-1
 400 1300 l 1,24,-1
 400 1200 l 1,25,-1
 300 1200 l 1,26,-1
 300 1400 l 1,27,-1
 400 1400 l 1,28,-1
 400 1500 l 1,29,-1
 600 1500 l 1,30,-1
 600 1400 l 1,31,-1
 800 1400 l 1,32,-1
 800 1500 l 1,33,-1
 900 1500 l 1,34,-1
 900 1300 l 1,35,-1
 800 1300 l 1,20,-1
EndSplineSet
Validated: 1
EndChar

StartChar: ograve
Encoding: 242 242 167
Width: 1200
Flags: W
LayerCount: 2
Fore
SplineSet
600 1500 m 1,0,-1
 600 1400 l 1,1,-1
 700 1400 l 1,2,-1
 700 1300 l 1,3,-1
 800 1300 l 1,4,-1
 800 1200 l 1,5,-1
 600 1200 l 1,6,-1
 600 1300 l 1,7,-1
 400 1300 l 1,8,-1
 400 1400 l 1,9,-1
 300 1400 l 1,10,-1
 300 1500 l 1,11,-1
 600 1500 l 1,0,-1
400 300 m 1,12,-1
 800 300 l 1,13,-1
 800 400 l 1,14,-1
 900 400 l 1,15,-1
 900 800 l 1,16,-1
 800 800 l 1,17,-1
 800 900 l 1,18,-1
 400 900 l 1,19,-1
 400 800 l 1,20,-1
 300 800 l 1,21,-1
 300 400 l 1,22,-1
 400 400 l 1,23,-1
 400 300 l 1,12,-1
300 100 m 1,24,-1
 300 200 l 1,25,-1
 200 200 l 1,26,-1
 200 300 l 1,27,-1
 100 300 l 1,28,-1
 100 900 l 1,29,-1
 200 900 l 1,30,-1
 200 1000 l 1,31,-1
 300 1000 l 1,32,-1
 300 1100 l 1,33,-1
 900 1100 l 1,34,-1
 900 1000 l 1,35,-1
 1000 1000 l 1,36,-1
 1000 900 l 1,37,-1
 1100 900 l 1,38,-1
 1100 300 l 1,39,-1
 1000 300 l 1,40,-1
 1000 200 l 1,41,-1
 900 200 l 1,42,-1
 900 100 l 1,43,-1
 300 100 l 1,24,-1
EndSplineSet
Validated: 1
EndChar

StartChar: oacute
Encoding: 243 243 168
Width: 1200
Flags: W
LayerCount: 2
Fore
SplineSet
900 1500 m 1,0,-1
 900 1400 l 1,1,-1
 800 1400 l 1,2,-1
 800 1300 l 1,3,-1
 600 1300 l 1,4,-1
 600 1200 l 1,5,-1
 400 1200 l 1,6,-1
 400 1300 l 1,7,-1
 500 1300 l 1,8,-1
 500 1400 l 1,9,-1
 600 1400 l 1,10,-1
 600 1500 l 1,11,-1
 900 1500 l 1,0,-1
400 300 m 1,12,-1
 800 300 l 1,13,-1
 800 400 l 1,14,-1
 900 400 l 1,15,-1
 900 800 l 1,16,-1
 800 800 l 1,17,-1
 800 900 l 1,18,-1
 400 900 l 1,19,-1
 400 800 l 1,20,-1
 300 800 l 1,21,-1
 300 400 l 1,22,-1
 400 400 l 1,23,-1
 400 300 l 1,12,-1
300 100 m 1,24,-1
 300 200 l 1,25,-1
 200 200 l 1,26,-1
 200 300 l 1,27,-1
 100 300 l 1,28,-1
 100 900 l 1,29,-1
 200 900 l 1,30,-1
 200 1000 l 1,31,-1
 300 1000 l 1,32,-1
 300 1100 l 1,33,-1
 900 1100 l 1,34,-1
 900 1000 l 1,35,-1
 1000 1000 l 1,36,-1
 1000 900 l 1,37,-1
 1100 900 l 1,38,-1
 1100 300 l 1,39,-1
 1000 300 l 1,40,-1
 1000 200 l 1,41,-1
 900 200 l 1,42,-1
 900 100 l 1,43,-1
 300 100 l 1,24,-1
EndSplineSet
Validated: 1
EndChar

StartChar: ocircumflex
Encoding: 244 244 169
Width: 1200
Flags: W
LayerCount: 2
Fore
SplineSet
400 300 m 1,0,-1
 800 300 l 1,1,-1
 800 400 l 1,2,-1
 900 400 l 1,3,-1
 900 800 l 1,4,-1
 800 800 l 1,5,-1
 800 900 l 1,6,-1
 400 900 l 1,7,-1
 400 800 l 1,8,-1
 300 800 l 1,9,-1
 300 400 l 1,10,-1
 400 400 l 1,11,-1
 400 300 l 1,0,-1
300 100 m 1,12,-1
 300 200 l 1,13,-1
 200 200 l 1,14,-1
 200 300 l 1,15,-1
 100 300 l 1,16,-1
 100 900 l 1,17,-1
 200 900 l 1,18,-1
 200 1000 l 1,19,-1
 300 1000 l 1,20,-1
 300 1100 l 1,21,-1
 900 1100 l 1,22,-1
 900 1000 l 1,23,-1
 1000 1000 l 1,24,-1
 1000 900 l 1,25,-1
 1100 900 l 1,26,-1
 1100 300 l 1,27,-1
 1000 300 l 1,28,-1
 1000 200 l 1,29,-1
 900 200 l 1,30,-1
 900 100 l 1,31,-1
 300 100 l 1,12,-1
700 1500 m 1,32,-1
 700 1400 l 1,33,-1
 800 1400 l 1,34,-1
 800 1300 l 1,35,-1
 900 1300 l 1,36,-1
 900 1200 l 1,37,-1
 700 1200 l 1,38,-1
 700 1300 l 1,39,-1
 500 1300 l 1,40,-1
 500 1200 l 1,41,-1
 300 1200 l 1,42,-1
 300 1300 l 1,43,-1
 400 1300 l 1,44,-1
 400 1400 l 1,45,-1
 500 1400 l 1,46,-1
 500 1500 l 1,47,-1
 700 1500 l 1,32,-1
EndSplineSet
Validated: 1
EndChar

StartChar: otilde
Encoding: 245 245 170
Width: 1200
Flags: W
LayerCount: 2
Fore
SplineSet
400 300 m 1,0,-1
 800 300 l 1,1,-1
 800 400 l 1,2,-1
 900 400 l 1,3,-1
 900 800 l 1,4,-1
 800 800 l 1,5,-1
 800 900 l 1,6,-1
 400 900 l 1,7,-1
 400 800 l 1,8,-1
 300 800 l 1,9,-1
 300 400 l 1,10,-1
 400 400 l 1,11,-1
 400 300 l 1,0,-1
300 100 m 1,12,-1
 300 200 l 1,13,-1
 200 200 l 1,14,-1
 200 300 l 1,15,-1
 100 300 l 1,16,-1
 100 900 l 1,17,-1
 200 900 l 1,18,-1
 200 1000 l 1,19,-1
 300 1000 l 1,20,-1
 300 1100 l 1,21,-1
 900 1100 l 1,22,-1
 900 1000 l 1,23,-1
 1000 1000 l 1,24,-1
 1000 900 l 1,25,-1
 1100 900 l 1,26,-1
 1100 300 l 1,27,-1
 1000 300 l 1,28,-1
 1000 200 l 1,29,-1
 900 200 l 1,30,-1
 900 100 l 1,31,-1
 300 100 l 1,12,-1
800 1300 m 1,32,-1
 800 1200 l 1,33,-1
 600 1200 l 1,34,-1
 600 1300 l 1,35,-1
 400 1300 l 1,36,-1
 400 1200 l 1,37,-1
 300 1200 l 1,38,-1
 300 1400 l 1,39,-1
 400 1400 l 1,40,-1
 400 1500 l 1,41,-1
 600 1500 l 1,42,-1
 600 1400 l 1,43,-1
 800 1400 l 1,44,-1
 800 1500 l 1,45,-1
 900 1500 l 1,46,-1
 900 1300 l 1,47,-1
 800 1300 l 1,32,-1
EndSplineSet
Validated: 1
EndChar

StartChar: odieresis
Encoding: 246 246 171
Width: 1200
Flags: W
LayerCount: 2
Fore
SplineSet
400 300 m 1,0,-1
 800 300 l 1,1,-1
 800 400 l 1,2,-1
 900 400 l 1,3,-1
 900 800 l 1,4,-1
 800 800 l 1,5,-1
 800 900 l 1,6,-1
 400 900 l 1,7,-1
 400 800 l 1,8,-1
 300 800 l 1,9,-1
 300 400 l 1,10,-1
 400 400 l 1,11,-1
 400 300 l 1,0,-1
300 100 m 1,12,-1
 300 200 l 1,13,-1
 200 200 l 1,14,-1
 200 300 l 1,15,-1
 100 300 l 1,16,-1
 100 900 l 1,17,-1
 200 900 l 1,18,-1
 200 1000 l 1,19,-1
 300 1000 l 1,20,-1
 300 1100 l 1,21,-1
 900 1100 l 1,22,-1
 900 1000 l 1,23,-1
 1000 1000 l 1,24,-1
 1000 900 l 1,25,-1
 1100 900 l 1,26,-1
 1100 300 l 1,27,-1
 1000 300 l 1,28,-1
 1000 200 l 1,29,-1
 900 200 l 1,30,-1
 900 100 l 1,31,-1
 300 100 l 1,12,-1
300 1300 m 1,32,-1
 300 1500 l 1,33,-1
 500 1500 l 1,34,-1
 500 1300 l 1,35,-1
 300 1300 l 1,32,-1
700 1500 m 1,36,-1
 900 1500 l 1,37,-1
 900 1300 l 1,38,-1
 700 1300 l 1,39,-1
 700 1500 l 1,36,-1
EndSplineSet
Validated: 1
EndChar

StartChar: oslash
Encoding: 248 248 172
Width: 1200
Flags: W
LayerCount: 2
Fore
SplineSet
800 1000 m 1,0,-1
 400 1000 l 1,1,-1
 400 900 l 1,2,-1
 300 900 l 1,3,-1
 300 500 l 1,4,-1
 400 500 l 1,5,-1
 400 600 l 1,6,-1
 500 600 l 1,7,-1
 500 700 l 1,8,-1
 600 700 l 1,9,-1
 600 800 l 1,10,-1
 700 800 l 1,11,-1
 700 900 l 1,12,-1
 800 900 l 1,13,-1
 800 1000 l 1,0,-1
400 100 m 1,14,-1
 400 200 l 1,15,-1
 300 200 l 1,16,-1
 300 100 l 1,17,-1
 100 100 l 1,18,-1
 100 300 l 1,19,-1
 200 300 l 1,20,-1
 200 400 l 1,21,-1
 100 400 l 1,22,-1
 100 1000 l 1,23,-1
 200 1000 l 1,24,-1
 200 1100 l 1,25,-1
 300 1100 l 1,26,-1
 300 1200 l 1,27,-1
 800 1200 l 1,28,-1
 800 1100 l 1,29,-1
 900 1100 l 1,30,-1
 900 1200 l 1,31,-1
 1100 1200 l 1,32,-1
 1100 1000 l 1,33,-1
 1000 1000 l 1,34,-1
 1000 900 l 1,35,-1
 1100 900 l 1,36,-1
 1100 300 l 1,37,-1
 1000 300 l 1,38,-1
 1000 200 l 1,39,-1
 900 200 l 1,40,-1
 900 100 l 1,41,-1
 400 100 l 1,14,-1
800 300 m 1,42,-1
 800 400 l 1,43,-1
 900 400 l 1,44,-1
 900 800 l 1,45,-1
 800 800 l 1,46,-1
 800 700 l 1,47,-1
 700 700 l 1,48,-1
 700 600 l 1,49,-1
 600 600 l 1,50,-1
 600 500 l 1,51,-1
 500 500 l 1,52,-1
 500 400 l 1,53,-1
 400 400 l 1,54,-1
 400 300 l 1,55,-1
 800 300 l 1,42,-1
EndSplineSet
Validated: 1
EndChar

StartChar: ugrave
Encoding: 249 249 173
Width: 1200
Flags: W
LayerCount: 2
Fore
SplineSet
100 1100 m 1,0,-1
 300 1100 l 1,1,-1
 300 400 l 1,2,-1
 400 400 l 1,3,-1
 400 300 l 1,4,-1
 800 300 l 1,5,-1
 800 400 l 1,6,-1
 900 400 l 1,7,-1
 900 1100 l 1,8,-1
 1100 1100 l 1,9,-1
 1100 300 l 1,10,-1
 1000 300 l 1,11,-1
 1000 200 l 1,12,-1
 900 200 l 1,13,-1
 900 100 l 1,14,-1
 300 100 l 1,15,-1
 300 200 l 1,16,-1
 200 200 l 1,17,-1
 200 300 l 1,18,-1
 100 300 l 1,19,-1
 100 1100 l 1,0,-1
600 1500 m 1,20,-1
 600 1400 l 1,21,-1
 700 1400 l 1,22,-1
 700 1300 l 1,23,-1
 800 1300 l 1,24,-1
 800 1200 l 1,25,-1
 600 1200 l 1,26,-1
 600 1300 l 1,27,-1
 400 1300 l 1,28,-1
 400 1400 l 1,29,-1
 300 1400 l 1,30,-1
 300 1500 l 1,31,-1
 600 1500 l 1,20,-1
EndSplineSet
Validated: 1
EndChar

StartChar: uacute
Encoding: 250 250 174
Width: 1200
Flags: W
LayerCount: 2
Fore
SplineSet
100 1100 m 1,0,-1
 300 1100 l 1,1,-1
 300 400 l 1,2,-1
 400 400 l 1,3,-1
 400 300 l 1,4,-1
 800 300 l 1,5,-1
 800 400 l 1,6,-1
 900 400 l 1,7,-1
 900 1100 l 1,8,-1
 1100 1100 l 1,9,-1
 1100 300 l 1,10,-1
 1000 300 l 1,11,-1
 1000 200 l 1,12,-1
 900 200 l 1,13,-1
 900 100 l 1,14,-1
 300 100 l 1,15,-1
 300 200 l 1,16,-1
 200 200 l 1,17,-1
 200 300 l 1,18,-1
 100 300 l 1,19,-1
 100 1100 l 1,0,-1
900 1500 m 1,20,-1
 900 1400 l 1,21,-1
 800 1400 l 1,22,-1
 800 1300 l 1,23,-1
 600 1300 l 1,24,-1
 600 1200 l 1,25,-1
 400 1200 l 1,26,-1
 400 1300 l 1,27,-1
 500 1300 l 1,28,-1
 500 1400 l 1,29,-1
 600 1400 l 1,30,-1
 600 1500 l 1,31,-1
 900 1500 l 1,20,-1
EndSplineSet
Validated: 1
EndChar

StartChar: ucircumflex
Encoding: 251 251 175
Width: 1200
Flags: W
LayerCount: 2
Fore
SplineSet
700 1500 m 1,0,-1
 700 1400 l 1,1,-1
 800 1400 l 1,2,-1
 800 1300 l 1,3,-1
 900 1300 l 1,4,-1
 900 1200 l 1,5,-1
 700 1200 l 1,6,-1
 700 1300 l 1,7,-1
 500 1300 l 1,8,-1
 500 1200 l 1,9,-1
 300 1200 l 1,10,-1
 300 1300 l 1,11,-1
 400 1300 l 1,12,-1
 400 1400 l 1,13,-1
 500 1400 l 1,14,-1
 500 1500 l 1,15,-1
 700 1500 l 1,0,-1
100 1100 m 1,16,-1
 300 1100 l 1,17,-1
 300 400 l 1,18,-1
 400 400 l 1,19,-1
 400 300 l 1,20,-1
 800 300 l 1,21,-1
 800 400 l 1,22,-1
 900 400 l 1,23,-1
 900 1100 l 1,24,-1
 1100 1100 l 1,25,-1
 1100 300 l 1,26,-1
 1000 300 l 1,27,-1
 1000 200 l 1,28,-1
 900 200 l 1,29,-1
 900 100 l 1,30,-1
 300 100 l 1,31,-1
 300 200 l 1,32,-1
 200 200 l 1,33,-1
 200 300 l 1,34,-1
 100 300 l 1,35,-1
 100 1100 l 1,16,-1
EndSplineSet
Validated: 1
EndChar

StartChar: udieresis
Encoding: 252 252 176
Width: 1200
Flags: W
LayerCount: 2
Fore
SplineSet
100 1100 m 1,0,-1
 300 1100 l 1,1,-1
 300 400 l 1,2,-1
 400 400 l 1,3,-1
 400 300 l 1,4,-1
 800 300 l 1,5,-1
 800 400 l 1,6,-1
 900 400 l 1,7,-1
 900 1100 l 1,8,-1
 1100 1100 l 1,9,-1
 1100 300 l 1,10,-1
 1000 300 l 1,11,-1
 1000 200 l 1,12,-1
 900 200 l 1,13,-1
 900 100 l 1,14,-1
 300 100 l 1,15,-1
 300 200 l 1,16,-1
 200 200 l 1,17,-1
 200 300 l 1,18,-1
 100 300 l 1,19,-1
 100 1100 l 1,0,-1
300 1300 m 1,20,-1
 300 1500 l 1,21,-1
 500 1500 l 1,22,-1
 500 1300 l 1,23,-1
 300 1300 l 1,20,-1
700 1500 m 1,24,-1
 900 1500 l 1,25,-1
 900 1300 l 1,26,-1
 700 1300 l 1,27,-1
 700 1500 l 1,24,-1
EndSplineSet
Validated: 1
EndChar

StartChar: yacute
Encoding: 253 253 177
Width: 1200
Flags: W
LayerCount: 2
Fore
SplineSet
300 100 m 1,0,-1
 300 300 l 1,1,-1
 800 300 l 1,2,-1
 800 400 l 1,3,-1
 900 400 l 1,4,-1
 900 700 l 1,5,-1
 800 700 l 1,6,-1
 800 600 l 1,7,-1
 700 600 l 1,8,-1
 700 500 l 1,9,-1
 300 500 l 1,10,-1
 300 600 l 1,11,-1
 200 600 l 1,12,-1
 200 700 l 1,13,-1
 100 700 l 1,14,-1
 100 1100 l 1,15,-1
 300 1100 l 1,16,-1
 300 800 l 1,17,-1
 400 800 l 1,18,-1
 400 700 l 1,19,-1
 600 700 l 1,20,-1
 600 800 l 1,21,-1
 700 800 l 1,22,-1
 700 900 l 1,23,-1
 800 900 l 1,24,-1
 800 1000 l 1,25,-1
 900 1000 l 1,26,-1
 900 1100 l 1,27,-1
 1100 1100 l 1,28,-1
 1100 300 l 1,29,-1
 1000 300 l 1,30,-1
 1000 200 l 1,31,-1
 900 200 l 1,32,-1
 900 100 l 1,33,-1
 300 100 l 1,0,-1
600 1400 m 1,34,-1
 600 1500 l 1,35,-1
 900 1500 l 1,36,-1
 900 1400 l 1,37,-1
 800 1400 l 1,38,-1
 800 1300 l 1,39,-1
 600 1300 l 1,40,-1
 600 1200 l 1,41,-1
 400 1200 l 1,42,-1
 400 1300 l 1,43,-1
 500 1300 l 1,44,-1
 500 1400 l 1,45,-1
 600 1400 l 1,34,-1
EndSplineSet
Validated: 1
EndChar

StartChar: thorn
Encoding: 254 254 178
Width: 1200
Flags: W
LayerCount: 2
Fore
SplineSet
300 400 m 1,0,-1
 300 100 l 1,1,-1
 100 100 l 1,2,-1
 100 1400 l 1,3,-1
 300 1400 l 1,4,-1
 300 1100 l 1,5,-1
 500 1100 l 1,6,-1
 500 1200 l 1,7,-1
 900 1200 l 1,8,-1
 900 1100 l 1,9,-1
 1000 1100 l 1,10,-1
 1000 1000 l 1,11,-1
 1100 1000 l 1,12,-1
 1100 500 l 1,13,-1
 1000 500 l 1,14,-1
 1000 400 l 1,15,-1
 900 400 l 1,16,-1
 900 300 l 1,17,-1
 500 300 l 1,18,-1
 500 400 l 1,19,-1
 300 400 l 1,0,-1
300 900 m 1,20,-1
 300 600 l 1,21,-1
 500 600 l 1,22,-1
 500 500 l 1,23,-1
 800 500 l 1,24,-1
 800 600 l 1,25,-1
 900 600 l 1,26,-1
 900 900 l 1,27,-1
 800 900 l 1,28,-1
 800 1000 l 1,29,-1
 500 1000 l 1,30,-1
 500 900 l 1,31,-1
 300 900 l 1,20,-1
EndSplineSet
Validated: 1
EndChar

StartChar: ydieresis
Encoding: 255 255 179
Width: 1200
Flags: W
LayerCount: 2
Fore
SplineSet
300 1300 m 1,0,-1
 300 1500 l 1,1,-1
 500 1500 l 1,2,-1
 500 1300 l 1,3,-1
 300 1300 l 1,0,-1
700 1500 m 1,4,-1
 900 1500 l 1,5,-1
 900 1300 l 1,6,-1
 700 1300 l 1,7,-1
 700 1500 l 1,4,-1
300 100 m 1,8,-1
 300 300 l 1,9,-1
 800 300 l 1,10,-1
 800 400 l 1,11,-1
 900 400 l 1,12,-1
 900 700 l 1,13,-1
 800 700 l 1,14,-1
 800 600 l 1,15,-1
 700 600 l 1,16,-1
 700 500 l 1,17,-1
 300 500 l 1,18,-1
 300 600 l 1,19,-1
 200 600 l 1,20,-1
 200 700 l 1,21,-1
 100 700 l 1,22,-1
 100 1100 l 1,23,-1
 300 1100 l 1,24,-1
 300 800 l 1,25,-1
 400 800 l 1,26,-1
 400 700 l 1,27,-1
 600 700 l 1,28,-1
 600 800 l 1,29,-1
 700 800 l 1,30,-1
 700 900 l 1,31,-1
 800 900 l 1,32,-1
 800 1000 l 1,33,-1
 900 1000 l 1,34,-1
 900 1100 l 1,35,-1
 1100 1100 l 1,36,-1
 1100 300 l 1,37,-1
 1000 300 l 1,38,-1
 1000 200 l 1,39,-1
 900 200 l 1,40,-1
 900 100 l 1,41,-1
 300 100 l 1,8,-1
EndSplineSet
Validated: 1
EndChar

StartChar: quoteleft
Encoding: 8216 8216 180
Width: 1200
Flags: W
LayerCount: 2
Fore
SplineSet
900 1500 m 1,0,-1
 900 1400 l 1,1,-1
 800 1400 l 1,2,-1
 800 1500 l 1,3,-1
 900 1500 l 1,0,-1
800 1200 m 1,4,-1
 900 1200 l 1,5,-1
 900 900 l 1,6,-1
 600 900 l 1,7,-1
 600 1300 l 1,8,-1
 700 1300 l 1,9,-1
 700 1400 l 1,10,-1
 800 1400 l 1,11,-1
 800 1200 l 1,4,-1
EndSplineSet
Validated: 5
EndChar

StartChar: quoteright
Encoding: 8217 8217 181
Width: 1200
Flags: W
LayerCount: 2
Fore
SplineSet
300 900 m 1,0,-1
 300 1000 l 1,1,-1
 400 1000 l 1,2,-1
 400 900 l 1,3,-1
 300 900 l 1,0,-1
400 1200 m 1,4,-1
 300 1200 l 1,5,-1
 300 1500 l 1,6,-1
 600 1500 l 1,7,-1
 600 1100 l 1,8,-1
 500 1100 l 1,9,-1
 500 1000 l 1,10,-1
 400 1000 l 1,11,-1
 400 1200 l 1,4,-1
EndSplineSet
Validated: 5
EndChar

StartChar: quotedblleft
Encoding: 8220 8220 182
Width: 1200
Flags: W
LayerCount: 2
Fore
SplineSet
500 1500 m 1,0,-1
 500 1400 l 1,1,-1
 400 1400 l 1,2,-1
 400 1500 l 1,3,-1
 500 1500 l 1,0,-1
900 1200 m 1,4,-1
 1000 1200 l 1,5,-1
 1000 900 l 1,6,-1
 700 900 l 1,7,-1
 700 1300 l 1,8,-1
 800 1300 l 1,9,-1
 800 1400 l 1,10,-1
 900 1400 l 1,11,-1
 900 1200 l 1,4,-1
400 1200 m 1,12,-1
 500 1200 l 1,13,-1
 500 900 l 1,14,-1
 200 900 l 1,15,-1
 200 1300 l 1,16,-1
 300 1300 l 1,17,-1
 300 1400 l 1,18,-1
 400 1400 l 1,19,-1
 400 1200 l 1,12,-1
1000 1500 m 1,20,-1
 1000 1400 l 1,21,-1
 900 1400 l 1,22,-1
 900 1500 l 1,23,-1
 1000 1500 l 1,20,-1
EndSplineSet
Validated: 5
EndChar

StartChar: quotedblright
Encoding: 8221 8221 183
Width: 1200
Flags: W
LayerCount: 2
Fore
SplineSet
700 900 m 1,0,-1
 700 1000 l 1,1,-1
 800 1000 l 1,2,-1
 800 900 l 1,3,-1
 700 900 l 1,0,-1
300 1200 m 1,4,-1
 200 1200 l 1,5,-1
 200 1500 l 1,6,-1
 500 1500 l 1,7,-1
 500 1100 l 1,8,-1
 400 1100 l 1,9,-1
 400 1000 l 1,10,-1
 300 1000 l 1,11,-1
 300 1200 l 1,4,-1
800 1200 m 1,12,-1
 700 1200 l 1,13,-1
 700 1500 l 1,14,-1
 1000 1500 l 1,15,-1
 1000 1100 l 1,16,-1
 900 1100 l 1,17,-1
 900 1000 l 1,18,-1
 800 1000 l 1,19,-1
 800 1200 l 1,12,-1
200 900 m 1,20,-1
 200 1000 l 1,21,-1
 300 1000 l 1,22,-1
 300 900 l 1,23,-1
 200 900 l 1,20,-1
EndSplineSet
Validated: 5
EndChar

StartChar: bullet
Encoding: 8226 8226 184
Width: 1200
Flags: W
LayerCount: 2
Fore
SplineSet
400 1000 m 1,0,-1
 400 1100 l 1,1,-1
 800 1100 l 1,2,-1
 800 1000 l 1,3,-1
 900 1000 l 1,4,-1
 900 700 l 1,5,-1
 800 700 l 1,6,-1
 800 600 l 1,7,-1
 400 600 l 1,8,-1
 400 700 l 1,9,-1
 300 700 l 1,10,-1
 300 1000 l 1,11,-1
 400 1000 l 1,0,-1
EndSplineSet
Validated: 1
EndChar

StartChar: ellipsis
Encoding: 8230 8230 185
Width: 1200
Flags: W
LayerCount: 2
Fore
SplineSet
300 300 m 1,0,-1
 300 100 l 1,1,-1
 100 100 l 1,2,-1
 100 300 l 1,3,-1
 300 300 l 1,0,-1
700 300 m 1,4,-1
 700 100 l 1,5,-1
 500 100 l 1,6,-1
 500 300 l 1,7,-1
 700 300 l 1,4,-1
1100 300 m 1,8,-1
 1100 100 l 1,9,-1
 900 100 l 1,10,-1
 900 300 l 1,11,-1
 1100 300 l 1,8,-1
EndSplineSet
Validated: 1
EndChar

StartChar: guilsinglleft
Encoding: 8249 8249 186
Width: 1200
Flags: W
LayerCount: 2
Fore
SplineSet
300 500 m 1,0,-1
 200 500 l 1,1,-1
 200 600 l 1,2,-1
 300 600 l 1,3,-1
 300 700 l 1,4,-1
 400 700 l 1,5,-1
 400 800 l 1,6,-1
 500 800 l 1,7,-1
 500 900 l 1,8,-1
 600 900 l 1,9,-1
 600 1000 l 1,10,-1
 700 1000 l 1,11,-1
 700 800 l 1,12,-1
 600 800 l 1,13,-1
 600 700 l 1,14,-1
 500 700 l 1,15,-1
 500 600 l 1,16,-1
 400 600 l 1,17,-1
 400 500 l 1,18,-1
 500 500 l 1,19,-1
 500 400 l 1,20,-1
 600 400 l 1,21,-1
 600 300 l 1,22,-1
 700 300 l 1,23,-1
 700 100 l 1,24,-1
 600 100 l 1,25,-1
 600 200 l 1,26,-1
 500 200 l 1,27,-1
 500 300 l 1,28,-1
 400 300 l 1,29,-1
 400 400 l 1,30,-1
 300 400 l 1,31,-1
 300 500 l 1,0,-1
EndSplineSet
Validated: 1
EndChar

StartChar: guilsinglright
Encoding: 8250 8250 187
Width: 1200
Flags: W
LayerCount: 2
Fore
SplineSet
700 400 m 1,0,-1
 600 400 l 1,1,-1
 600 300 l 1,2,-1
 500 300 l 1,3,-1
 500 200 l 1,4,-1
 400 200 l 1,5,-1
 400 100 l 1,6,-1
 300 100 l 1,7,-1
 300 300 l 1,8,-1
 400 300 l 1,9,-1
 400 400 l 1,10,-1
 500 400 l 1,11,-1
 500 500 l 1,12,-1
 600 500 l 1,13,-1
 600 600 l 1,14,-1
 500 600 l 1,15,-1
 500 700 l 1,16,-1
 400 700 l 1,17,-1
 400 800 l 1,18,-1
 300 800 l 1,19,-1
 300 1000 l 1,20,-1
 400 1000 l 1,21,-1
 400 900 l 1,22,-1
 500 900 l 1,23,-1
 500 800 l 1,24,-1
 600 800 l 1,25,-1
 600 700 l 1,26,-1
 700 700 l 1,27,-1
 700 600 l 1,28,-1
 800 600 l 1,29,-1
 800 500 l 1,30,-1
 700 500 l 1,31,-1
 700 400 l 1,0,-1
EndSplineSet
Validated: 1
EndChar

StartChar: fraction
Encoding: 8260 8260 188
AltUni2: 002215.ffffffff.0
Width: 1200
Flags: W
LayerCount: 2
Fore
SplineSet
900 1500 m 1,0,-1
 1100 1500 l 1,1,-1
 1100 1100 l 1,2,-1
 1000 1100 l 1,3,-1
 1000 1000 l 1,4,-1
 900 1000 l 1,5,-1
 900 900 l 1,6,-1
 800 900 l 1,7,-1
 800 800 l 1,8,-1
 700 800 l 1,9,-1
 700 700 l 1,10,-1
 600 700 l 1,11,-1
 600 600 l 1,12,-1
 500 600 l 1,13,-1
 500 500 l 1,14,-1
 400 500 l 1,15,-1
 400 400 l 1,16,-1
 300 400 l 1,17,-1
 300 100 l 1,18,-1
 100 100 l 1,19,-1
 100 500 l 1,20,-1
 200 500 l 1,21,-1
 200 600 l 1,22,-1
 300 600 l 1,23,-1
 300 700 l 1,24,-1
 400 700 l 1,25,-1
 400 800 l 1,26,-1
 500 800 l 1,27,-1
 500 900 l 1,28,-1
 600 900 l 1,29,-1
 600 1000 l 1,30,-1
 700 1000 l 1,31,-1
 700 1100 l 1,32,-1
 800 1100 l 1,33,-1
 800 1200 l 1,34,-1
 900 1200 l 1,35,-1
 900 1500 l 1,0,-1
EndSplineSet
Validated: 1
EndChar

StartChar: franc
Encoding: 8355 8355 189
Width: 1200
Flags: W
LayerCount: 2
Fore
SplineSet
200 500 m 1,0,-1
 200 1500 l 1,1,-1
 1100 1500 l 1,2,-1
 1100 1300 l 1,3,-1
 400 1300 l 1,4,-1
 400 900 l 1,5,-1
 900 900 l 1,6,-1
 900 700 l 1,7,-1
 400 700 l 1,8,-1
 400 500 l 1,9,-1
 600 500 l 1,10,-1
 600 400 l 1,11,-1
 400 400 l 1,12,-1
 400 100 l 1,13,-1
 200 100 l 1,14,-1
 200 400 l 1,15,-1
 100 400 l 1,16,-1
 100 500 l 1,17,-1
 200 500 l 1,0,-1
EndSplineSet
Validated: 1
EndChar

StartChar: lira
Encoding: 8356 8356 190
Width: 1200
Flags: W
LayerCount: 2
Fore
SplineSet
400 300 m 1,0,-1
 1100 300 l 1,1,-1
 1100 100 l 1,2,-1
 100 100 l 1,3,-1
 100 300 l 1,4,-1
 200 300 l 1,5,-1
 200 400 l 1,6,-1
 300 400 l 1,7,-1
 300 600 l 1,8,-1
 100 600 l 1,9,-1
 100 800 l 1,10,-1
 300 800 l 1,11,-1
 300 900 l 1,12,-1
 100 900 l 1,13,-1
 100 1100 l 1,14,-1
 300 1100 l 1,15,-1
 300 1500 l 1,16,-1
 400 1500 l 1,17,-1
 400 1600 l 1,18,-1
 500 1600 l 1,19,-1
 500 1700 l 1,20,-1
 900 1700 l 1,21,-1
 900 1600 l 1,22,-1
 1000 1600 l 1,23,-1
 1000 1500 l 1,24,-1
 1100 1500 l 1,25,-1
 1100 1300 l 1,26,-1
 900 1300 l 1,27,-1
 900 1400 l 1,28,-1
 800 1400 l 1,29,-1
 800 1500 l 1,30,-1
 600 1500 l 1,31,-1
 600 1400 l 1,32,-1
 500 1400 l 1,33,-1
 500 1100 l 1,34,-1
 900 1100 l 1,35,-1
 900 900 l 1,36,-1
 500 900 l 1,37,-1
 500 800 l 1,38,-1
 900 800 l 1,39,-1
 900 600 l 1,40,-1
 500 600 l 1,41,-1
 500 400 l 1,42,-1
 400 400 l 1,43,-1
 400 300 l 1,0,-1
EndSplineSet
Validated: 1
EndChar

StartChar: peseta
Encoding: 8359 8359 191
Width: 1200
Flags: W
LayerCount: 2
Fore
SplineSet
200 600 m 1,0,-1
 200 100 l 1,1,-1
 100 100 l 1,2,-1
 100 1500 l 1,3,-1
 400 1500 l 1,4,-1
 400 1400 l 1,5,-1
 500 1400 l 1,6,-1
 500 800 l 1,7,-1
 600 800 l 1,8,-1
 600 1000 l 1,9,-1
 700 1000 l 1,10,-1
 700 800 l 1,11,-1
 1100 800 l 1,12,-1
 1100 600 l 1,13,-1
 1000 600 l 1,14,-1
 1000 700 l 1,15,-1
 900 700 l 1,16,-1
 900 500 l 1,17,-1
 1100 500 l 1,18,-1
 1100 100 l 1,19,-1
 800 100 l 1,20,-1
 800 300 l 1,21,-1
 900 300 l 1,22,-1
 900 200 l 1,23,-1
 1000 200 l 1,24,-1
 1000 400 l 1,25,-1
 800 400 l 1,26,-1
 800 700 l 1,27,-1
 700 700 l 1,28,-1
 700 100 l 1,29,-1
 600 100 l 1,30,-1
 600 700 l 1,31,-1
 400 700 l 1,32,-1
 400 600 l 1,33,-1
 200 600 l 1,0,-1
200 1400 m 1,34,-1
 200 700 l 1,35,-1
 300 700 l 1,36,-1
 300 800 l 1,37,-1
 400 800 l 1,38,-1
 400 1300 l 1,39,-1
 300 1300 l 1,40,-1
 300 1400 l 1,41,-1
 200 1400 l 1,34,-1
EndSplineSet
Validated: 1
EndChar

StartChar: Euro
Encoding: 8364 8364 192
Width: 1200
Flags: W
LayerCount: 2
Fore
SplineSet
1000 1500 m 1,0,-1
 1100 1500 l 1,1,-1
 1100 1400 l 1,2,-1
 900 1400 l 1,3,-1
 900 1500 l 1,4,-1
 600 1500 l 1,5,-1
 600 1400 l 1,6,-1
 500 1400 l 1,7,-1
 500 1300 l 1,8,-1
 400 1300 l 1,9,-1
 400 1200 l 1,10,-1
 700 1200 l 1,11,-1
 700 1000 l 1,12,-1
 400 1000 l 1,13,-1
 400 900 l 1,14,-1
 700 900 l 1,15,-1
 700 700 l 1,16,-1
 400 700 l 1,17,-1
 400 500 l 1,18,-1
 500 500 l 1,19,-1
 500 400 l 1,20,-1
 600 400 l 1,21,-1
 600 300 l 1,22,-1
 900 300 l 1,23,-1
 900 400 l 1,24,-1
 1100 400 l 1,25,-1
 1100 300 l 1,26,-1
 1000 300 l 1,27,-1
 1000 200 l 1,28,-1
 900 200 l 1,29,-1
 900 100 l 1,30,-1
 500 100 l 1,31,-1
 500 200 l 1,32,-1
 400 200 l 1,33,-1
 400 300 l 1,34,-1
 300 300 l 1,35,-1
 300 400 l 1,36,-1
 200 400 l 1,37,-1
 200 700 l 1,38,-1
 100 700 l 1,39,-1
 100 900 l 1,40,-1
 200 900 l 1,41,-1
 200 1000 l 1,42,-1
 100 1000 l 1,43,-1
 100 1200 l 1,44,-1
 200 1200 l 1,45,-1
 200 1400 l 1,46,-1
 300 1400 l 1,47,-1
 300 1500 l 1,48,-1
 400 1500 l 1,49,-1
 400 1600 l 1,50,-1
 500 1600 l 1,51,-1
 500 1700 l 1,52,-1
 900 1700 l 1,53,-1
 900 1600 l 1,54,-1
 1000 1600 l 1,55,-1
 1000 1500 l 1,0,-1
EndSplineSet
Validated: 1
EndChar

StartChar: trademark
Encoding: 8482 8482 193
Width: 1200
Flags: W
LayerCount: 2
Fore
SplineSet
900 1300 m 1,0,-1
 900 1200 l 1,1,-1
 800 1200 l 1,2,-1
 800 1300 l 1,3,-1
 900 1300 l 1,0,-1
700 1300 m 1,4,-1
 700 900 l 1,5,-1
 600 900 l 1,6,-1
 600 1500 l 1,7,-1
 700 1500 l 1,8,-1
 700 1400 l 1,9,-1
 800 1400 l 1,10,-1
 800 1300 l 1,11,-1
 700 1300 l 1,4,-1
1000 1400 m 1,12,-1
 1000 1500 l 1,13,-1
 1100 1500 l 1,14,-1
 1100 900 l 1,15,-1
 1000 900 l 1,16,-1
 1000 1300 l 1,17,-1
 900 1300 l 1,18,-1
 900 1400 l 1,19,-1
 1000 1400 l 1,12,-1
300 1400 m 1,20,-1
 100 1400 l 1,21,-1
 100 1500 l 1,22,-1
 600 1500 l 1,23,-1
 600 1400 l 1,24,-1
 400 1400 l 1,25,-1
 400 900 l 1,26,-1
 300 900 l 1,27,-1
 300 1400 l 1,20,-1
EndSplineSet
Validated: 5
EndChar

StartChar: triagrt
Encoding: 9658 9658 194
Width: 1200
Flags: W
LayerCount: 2
Fore
SplineSet
200 200 m 1,0,-1
 200 1400 l 1,1,-1
 500 1400 l 1,2,-1
 500 1300 l 1,3,-1
 600 1300 l 1,4,-1
 600 1200 l 1,5,-1
 700 1200 l 1,6,-1
 700 1100 l 1,7,-1
 800 1100 l 1,8,-1
 800 1000 l 1,9,-1
 900 1000 l 1,10,-1
 900 900 l 1,11,-1
 1000 900 l 1,12,-1
 1000 700 l 1,13,-1
 900 700 l 1,14,-1
 900 600 l 1,15,-1
 800 600 l 1,16,-1
 800 500 l 1,17,-1
 700 500 l 1,18,-1
 700 400 l 1,19,-1
 600 400 l 1,20,-1
 600 300 l 1,21,-1
 500 300 l 1,22,-1
 500 200 l 1,23,-1
 200 200 l 1,0,-1
EndSplineSet
Validated: 1
EndChar

StartChar: triaglf
Encoding: 9668 9668 195
Width: 1200
Flags: W
LayerCount: 2
Fore
SplineSet
700 200 m 1,0,-1
 700 300 l 1,1,-1
 600 300 l 1,2,-1
 600 400 l 1,3,-1
 500 400 l 1,4,-1
 500 500 l 1,5,-1
 400 500 l 1,6,-1
 400 600 l 1,7,-1
 300 600 l 1,8,-1
 300 700 l 1,9,-1
 200 700 l 1,10,-1
 200 900 l 1,11,-1
 300 900 l 1,12,-1
 300 1000 l 1,13,-1
 400 1000 l 1,14,-1
 400 1100 l 1,15,-1
 500 1100 l 1,16,-1
 500 1200 l 1,17,-1
 600 1200 l 1,18,-1
 600 1300 l 1,19,-1
 700 1300 l 1,20,-1
 700 1400 l 1,21,-1
 1000 1400 l 1,22,-1
 1000 200 l 1,23,-1
 700 200 l 1,0,-1
EndSplineSet
Validated: 1
EndChar

StartChar: triagdn
Encoding: 9660 9660 196
Width: 1200
Flags: W
LayerCount: 2
Fore
SplineSet
1100 1000 m 1,0,-1
 1000 1000 l 1,1,-1
 1000 800 l 1,2,-1
 900 800 l 1,3,-1
 900 600 l 1,4,-1
 800 600 l 1,5,-1
 800 400 l 1,6,-1
 700 400 l 1,7,-1
 700 200 l 1,8,-1
 500 200 l 1,9,-1
 500 400 l 1,10,-1
 400 400 l 1,11,-1
 400 600 l 1,12,-1
 300 600 l 1,13,-1
 300 800 l 1,14,-1
 200 800 l 1,15,-1
 200 1000 l 1,16,-1
 100 1000 l 1,17,-1
 100 1400 l 1,18,-1
 1100 1400 l 1,19,-1
 1100 1000 l 1,0,-1
EndSplineSet
Validated: 1
EndChar

StartChar: triagup
Encoding: 9650 9650 197
Width: 1200
Flags: W
LayerCount: 2
Fore
SplineSet
1100 200 m 1,0,-1
 100 200 l 1,1,-1
 100 600 l 1,2,-1
 200 600 l 1,3,-1
 200 800 l 1,4,-1
 300 800 l 1,5,-1
 300 1000 l 1,6,-1
 400 1000 l 1,7,-1
 400 1200 l 1,8,-1
 500 1200 l 1,9,-1
 500 1400 l 1,10,-1
 700 1400 l 1,11,-1
 700 1200 l 1,12,-1
 800 1200 l 1,13,-1
 800 1000 l 1,14,-1
 900 1000 l 1,15,-1
 900 800 l 1,16,-1
 1000 800 l 1,17,-1
 1000 600 l 1,18,-1
 1100 600 l 1,19,-1
 1100 200 l 1,0,-1
EndSplineSet
Validated: 1
EndChar

StartChar: arrowleft
Encoding: 8592 8592 198
Width: 1200
Flags: W
LayerCount: 2
Fore
SplineSet
500 1200 m 1,0,-1
 500 1300 l 1,1,-1
 700 1300 l 1,2,-1
 700 1200 l 1,3,-1
 600 1200 l 1,4,-1
 600 1100 l 1,5,-1
 500 1100 l 1,6,-1
 500 1000 l 1,7,-1
 400 1000 l 1,8,-1
 400 900 l 1,9,-1
 1100 900 l 1,10,-1
 1100 700 l 1,11,-1
 400 700 l 1,12,-1
 400 600 l 1,13,-1
 500 600 l 1,14,-1
 500 500 l 1,15,-1
 600 500 l 1,16,-1
 600 400 l 1,17,-1
 700 400 l 1,18,-1
 700 300 l 1,19,-1
 500 300 l 1,20,-1
 500 400 l 1,21,-1
 400 400 l 1,22,-1
 400 500 l 1,23,-1
 300 500 l 1,24,-1
 300 600 l 1,25,-1
 200 600 l 1,26,-1
 200 700 l 1,27,-1
 100 700 l 1,28,-1
 100 900 l 1,29,-1
 200 900 l 1,30,-1
 200 1000 l 1,31,-1
 300 1000 l 1,32,-1
 300 1100 l 1,33,-1
 400 1100 l 1,34,-1
 400 1200 l 1,35,-1
 500 1200 l 1,0,-1
EndSplineSet
Validated: 1
EndChar

StartChar: arrowright
Encoding: 8594 8594 199
Width: 1200
Flags: W
LayerCount: 2
Fore
SplineSet
800 1200 m 1,0,-1
 800 1100 l 1,1,-1
 900 1100 l 1,2,-1
 900 1000 l 1,3,-1
 1000 1000 l 1,4,-1
 1000 900 l 1,5,-1
 1100 900 l 1,6,-1
 1100 700 l 1,7,-1
 1000 700 l 1,8,-1
 1000 600 l 1,9,-1
 900 600 l 1,10,-1
 900 500 l 1,11,-1
 800 500 l 1,12,-1
 800 400 l 1,13,-1
 700 400 l 1,14,-1
 700 300 l 1,15,-1
 500 300 l 1,16,-1
 500 400 l 1,17,-1
 600 400 l 1,18,-1
 600 500 l 1,19,-1
 700 500 l 1,20,-1
 700 600 l 1,21,-1
 800 600 l 1,22,-1
 800 700 l 1,23,-1
 100 700 l 1,24,-1
 100 900 l 1,25,-1
 800 900 l 1,26,-1
 800 1000 l 1,27,-1
 700 1000 l 1,28,-1
 700 1100 l 1,29,-1
 600 1100 l 1,30,-1
 600 1200 l 1,31,-1
 500 1200 l 1,32,-1
 500 1300 l 1,33,-1
 700 1300 l 1,34,-1
 700 1200 l 1,35,-1
 800 1200 l 1,0,-1
EndSplineSet
Validated: 1
EndChar

StartChar: arrowup
Encoding: 8593 8593 200
Width: 1200
Flags: W
LayerCount: 2
Fore
SplineSet
300 500 m 1,0,-1
 300 300 l 1,1,-1
 100 300 l 1,2,-1
 100 500 l 1,3,-1
 200 500 l 1,4,-1
 200 700 l 1,5,-1
 300 700 l 1,6,-1
 300 900 l 1,7,-1
 400 900 l 1,8,-1
 400 1100 l 1,9,-1
 500 1100 l 1,10,-1
 500 1300 l 1,11,-1
 700 1300 l 1,12,-1
 700 1100 l 1,13,-1
 800 1100 l 1,14,-1
 800 900 l 1,15,-1
 900 900 l 1,16,-1
 900 700 l 1,17,-1
 1000 700 l 1,18,-1
 1000 500 l 1,19,-1
 1100 500 l 1,20,-1
 1100 300 l 1,21,-1
 900 300 l 1,22,-1
 900 500 l 1,23,-1
 800 500 l 1,24,-1
 800 700 l 1,25,-1
 700 700 l 1,26,-1
 700 900 l 1,27,-1
 500 900 l 1,28,-1
 500 700 l 1,29,-1
 400 700 l 1,30,-1
 400 500 l 1,31,-1
 300 500 l 1,0,-1
EndSplineSet
Validated: 1
EndChar

StartChar: arrowdown
Encoding: 8595 8595 201
Width: 1200
Flags: W
LayerCount: 2
Fore
SplineSet
900 1100 m 1,0,-1
 900 1300 l 1,1,-1
 1100 1300 l 1,2,-1
 1100 1100 l 1,3,-1
 1000 1100 l 1,4,-1
 1000 900 l 1,5,-1
 900 900 l 1,6,-1
 900 700 l 1,7,-1
 800 700 l 1,8,-1
 800 500 l 1,9,-1
 700 500 l 1,10,-1
 700 300 l 1,11,-1
 500 300 l 1,12,-1
 500 500 l 1,13,-1
 400 500 l 1,14,-1
 400 700 l 1,15,-1
 300 700 l 1,16,-1
 300 900 l 1,17,-1
 200 900 l 1,18,-1
 200 1100 l 1,19,-1
 100 1100 l 1,20,-1
 100 1300 l 1,21,-1
 300 1300 l 1,22,-1
 300 1100 l 1,23,-1
 400 1100 l 1,24,-1
 400 900 l 1,25,-1
 500 900 l 1,26,-1
 500 700 l 1,27,-1
 700 700 l 1,28,-1
 700 900 l 1,29,-1
 800 900 l 1,30,-1
 800 1100 l 1,31,-1
 900 1100 l 1,0,-1
EndSplineSet
Validated: 1
EndChar

StartChar: exclamdown
Encoding: 161 161 202
Width: 1200
Flags: W
LayerCount: 2
Fore
SplineSet
600 1300 m 1,0,-1
 600 1500 l 1,1,-1
 800 1500 l 1,2,-1
 800 1300 l 1,3,-1
 600 1300 l 1,0,-1
600 1100 m 1,4,-1
 800 1100 l 1,5,-1
 800 100 l 1,6,-1
 600 100 l 1,7,-1
 600 1100 l 1,4,-1
EndSplineSet
Validated: 1
EndChar

StartChar: arrowboth
Encoding: 8596 8596 203
Width: 1200
Flags: W
LayerCount: 2
Fore
SplineSet
100 900 m 5,0,-1
 600 900 l 5,1,-1
 600 1200 l 5,2,-1
 700 1200 l 5,3,-1
 700 1100 l 5,4,-1
 800 1100 l 5,5,-1
 800 1000 l 5,6,-1
 900 1000 l 5,7,-1
 900 900 l 5,8,-1
 1000 900 l 5,9,-1
 1000 800 l 5,10,-1
 1100 800 l 5,11,-1
 1100 600 l 5,12,-1
 1000 600 l 5,13,-1
 1000 500 l 5,14,-1
 900 500 l 5,15,-1
 900 400 l 5,16,-1
 800 400 l 5,17,-1
 800 300 l 5,18,-1
 700 300 l 5,19,-1
 700 200 l 5,20,-1
 600 200 l 5,21,-1
 600 500 l 5,22,-1
 100 500 l 5,23,-1
 100 900 l 5,0,-1
EndSplineSet
Validated: 1
EndChar

StartChar: uni23EA
Encoding: 9194 9194 204
Width: 1200
Flags: W
LayerCount: 2
Fore
SplineSet
600 300 m 5,0,-1
 500 300 l 1,1,-1
 500 400 l 1,2,-1
 400 400 l 1,3,-1
 400 500 l 1,4,-1
 300 500 l 1,5,-1
 300 600 l 1,6,-1
 200 600 l 1,7,-1
 200 700 l 1,8,-1
 100 700 l 1,9,-1
 100 800 l 1,10,-1
 200 800 l 1,11,-1
 200 900 l 1,12,-1
 300 900 l 1,13,-1
 300 1000 l 1,14,-1
 400 1000 l 1,15,-1
 400 1100 l 1,16,-1
 500 1100 l 1,17,-1
 500 1200 l 1,18,-1
 600 1200 l 5,19,-1
 600 300 l 5,0,-1
1100 300 m 1,20,-1
 1000 300 l 1,21,-1
 1000 400 l 1,22,-1
 900 400 l 1,23,-1
 900 500 l 1,24,-1
 800 500 l 1,25,-1
 800 600 l 1,26,-1
 700 600 l 1,27,-1
 700 700 l 1,28,-1
 600 700 l 1,29,-1
 600 800 l 1,30,-1
 700 800 l 1,31,-1
 700 900 l 1,32,-1
 800 900 l 1,33,-1
 800 1000 l 1,34,-1
 900 1000 l 1,35,-1
 900 1100 l 1,36,-1
 1000 1100 l 1,37,-1
 1000 1200 l 1,38,-1
 1100 1200 l 1,39,-1
 1100 300 l 1,20,-1
EndSplineSet
Validated: 5
EndChar

StartChar: uni23E9
Encoding: 9193 9193 205
Width: 1200
Flags: W
LayerCount: 2
Fore
SplineSet
600 1200 m 1,0,-1
 700 1200 l 1,1,-1
 700 1100 l 1,2,-1
 800 1100 l 1,3,-1
 800 1000 l 1,4,-1
 900 1000 l 1,5,-1
 900 900 l 1,6,-1
 1000 900 l 1,7,-1
 1000 800 l 1,8,-1
 1100 800 l 1,9,-1
 1100 700 l 1,10,-1
 1000 700 l 1,11,-1
 1000 600 l 1,12,-1
 900 600 l 1,13,-1
 900 500 l 1,14,-1
 800 500 l 1,15,-1
 800 400 l 1,16,-1
 700 400 l 1,17,-1
 700 300 l 1,18,-1
 600 300 l 1,19,-1
 600 1200 l 1,0,-1
100 1200 m 1,20,-1
 200 1200 l 1,21,-1
 200 1100 l 1,22,-1
 300 1100 l 1,23,-1
 300 1000 l 1,24,-1
 400 1000 l 1,25,-1
 400 900 l 1,26,-1
 500 900 l 1,27,-1
 500 800 l 1,28,-1
 600 800 l 1,29,-1
 600 700 l 1,30,-1
 500 700 l 1,31,-1
 500 600 l 1,32,-1
 400 600 l 1,33,-1
 400 500 l 1,34,-1
 300 500 l 1,35,-1
 300 400 l 1,36,-1
 200 400 l 1,37,-1
 200 300 l 1,38,-1
 100 300 l 1,39,-1
 100 1200 l 1,20,-1
EndSplineSet
Validated: 5
EndChar

StartChar: infinity
Encoding: 8734 8734 206
Width: 2400
Flags: MWO
LayerCount: 2
Back
Fore
SplineSet
2100 818 m 1,0,-1
 2300 818 l 1,1,-1
 2300 518 l 1,2,-1
 2200 518 l 1,3,-1
 2200 418 l 1,4,-1
 2100 418 l 1,5,-1
 2100 318 l 1,6,-1
 2000 318 l 1,7,-1
 2000 218 l 1,8,-1
 1100 218 l 1,9,-1
 1100 -182 l 1,10,-1
 900 -182 l 1,11,-1
 900 -82 l 1,12,-1
 800 -82 l 1,13,-1
 800 18 l 1,14,-1
 700 18 l 1,15,-1
 700 118 l 1,16,-1
 600 118 l 1,17,-1
 600 218 l 1,18,-1
 500 218 l 1,19,-1
 500 418 l 1,20,-1
 600 418 l 1,21,-1
 600 518 l 1,22,-1
 700 518 l 1,23,-1
 700 618 l 1,24,-1
 800 618 l 1,25,-1
 800 718 l 1,26,-1
 900 718 l 1,27,-1
 900 818 l 1,28,-1
 1100 818 l 1,29,-1
 1100 418 l 1,30,-1
 1900 418 l 1,31,-1
 1900 518 l 1,32,-1
 2000 518 l 1,33,-1
 2000 618 l 1,34,-1
 2100 618 l 1,35,-1
 2100 818 l 1,0,-1
300 819 m 1,36,-1
 100 819 l 1,37,-1
 100 1119 l 1,38,-1
 200 1119 l 1,39,-1
 200 1219 l 1,40,-1
 300 1219 l 1,41,-1
 300 1319 l 1,42,-1
 400 1319 l 1,43,-1
 400 1419 l 1,44,-1
 1300 1419 l 1,45,-1
 1300 1819 l 1,46,-1
 1500 1819 l 1,47,-1
 1500 1719 l 1,48,-1
 1600 1719 l 1,49,-1
 1600 1619 l 1,50,-1
 1700 1619 l 1,51,-1
 1700 1519 l 1,52,-1
 1800 1519 l 1,53,-1
 1800 1419 l 1,54,-1
 1900 1419 l 1,55,-1
 1900 1219 l 1,56,-1
 1800 1219 l 1,57,-1
 1800 1119 l 1,58,-1
 1700 1119 l 1,59,-1
 1700 1019 l 1,60,-1
 1600 1019 l 1,61,-1
 1600 919 l 1,62,-1
 1500 919 l 1,63,-1
 1500 819 l 1,64,-1
 1300 819 l 1,65,-1
 1300 1219 l 1,66,-1
 500 1219 l 1,67,-1
 500 1119 l 1,68,-1
 400 1119 l 1,69,-1
 400 1019 l 1,70,-1
 300 1019 l 1,71,-1
 300 819 l 1,36,-1
EndSplineSet
EndChar
